G75*
%MOIN*%
%OFA0B0*%
%FSLAX25Y25*%
%IPPOS*%
%LPD*%
%AMOC8*
5,1,8,0,0,1.08239X$1,22.5*
%
%ADD10C,0.00000*%
%ADD11C,0.01600*%
%ADD12C,0.00400*%
%ADD13C,0.00800*%
%ADD14C,0.00600*%
%ADD15C,0.01200*%
%ADD16C,0.00500*%
%ADD17C,0.00100*%
%ADD18C,0.00300*%
D10*
X0001000Y0001000D02*
X0001000Y0315961D01*
X0394701Y0315961D01*
X0394701Y0001000D01*
X0001000Y0001000D01*
X0014386Y0020685D02*
X0014388Y0020843D01*
X0014394Y0021001D01*
X0014404Y0021159D01*
X0014418Y0021317D01*
X0014436Y0021474D01*
X0014457Y0021631D01*
X0014483Y0021787D01*
X0014513Y0021943D01*
X0014546Y0022098D01*
X0014584Y0022251D01*
X0014625Y0022404D01*
X0014670Y0022556D01*
X0014719Y0022707D01*
X0014772Y0022856D01*
X0014828Y0023004D01*
X0014888Y0023150D01*
X0014952Y0023295D01*
X0015020Y0023438D01*
X0015091Y0023580D01*
X0015165Y0023720D01*
X0015243Y0023857D01*
X0015325Y0023993D01*
X0015409Y0024127D01*
X0015498Y0024258D01*
X0015589Y0024387D01*
X0015684Y0024514D01*
X0015781Y0024639D01*
X0015882Y0024761D01*
X0015986Y0024880D01*
X0016093Y0024997D01*
X0016203Y0025111D01*
X0016316Y0025222D01*
X0016431Y0025331D01*
X0016549Y0025436D01*
X0016670Y0025538D01*
X0016793Y0025638D01*
X0016919Y0025734D01*
X0017047Y0025827D01*
X0017177Y0025917D01*
X0017310Y0026003D01*
X0017445Y0026087D01*
X0017581Y0026166D01*
X0017720Y0026243D01*
X0017861Y0026315D01*
X0018003Y0026385D01*
X0018147Y0026450D01*
X0018293Y0026512D01*
X0018440Y0026570D01*
X0018589Y0026625D01*
X0018739Y0026676D01*
X0018890Y0026723D01*
X0019042Y0026766D01*
X0019195Y0026805D01*
X0019350Y0026841D01*
X0019505Y0026872D01*
X0019661Y0026900D01*
X0019817Y0026924D01*
X0019974Y0026944D01*
X0020132Y0026960D01*
X0020289Y0026972D01*
X0020448Y0026980D01*
X0020606Y0026984D01*
X0020764Y0026984D01*
X0020922Y0026980D01*
X0021081Y0026972D01*
X0021238Y0026960D01*
X0021396Y0026944D01*
X0021553Y0026924D01*
X0021709Y0026900D01*
X0021865Y0026872D01*
X0022020Y0026841D01*
X0022175Y0026805D01*
X0022328Y0026766D01*
X0022480Y0026723D01*
X0022631Y0026676D01*
X0022781Y0026625D01*
X0022930Y0026570D01*
X0023077Y0026512D01*
X0023223Y0026450D01*
X0023367Y0026385D01*
X0023509Y0026315D01*
X0023650Y0026243D01*
X0023789Y0026166D01*
X0023925Y0026087D01*
X0024060Y0026003D01*
X0024193Y0025917D01*
X0024323Y0025827D01*
X0024451Y0025734D01*
X0024577Y0025638D01*
X0024700Y0025538D01*
X0024821Y0025436D01*
X0024939Y0025331D01*
X0025054Y0025222D01*
X0025167Y0025111D01*
X0025277Y0024997D01*
X0025384Y0024880D01*
X0025488Y0024761D01*
X0025589Y0024639D01*
X0025686Y0024514D01*
X0025781Y0024387D01*
X0025872Y0024258D01*
X0025961Y0024127D01*
X0026045Y0023993D01*
X0026127Y0023857D01*
X0026205Y0023720D01*
X0026279Y0023580D01*
X0026350Y0023438D01*
X0026418Y0023295D01*
X0026482Y0023150D01*
X0026542Y0023004D01*
X0026598Y0022856D01*
X0026651Y0022707D01*
X0026700Y0022556D01*
X0026745Y0022404D01*
X0026786Y0022251D01*
X0026824Y0022098D01*
X0026857Y0021943D01*
X0026887Y0021787D01*
X0026913Y0021631D01*
X0026934Y0021474D01*
X0026952Y0021317D01*
X0026966Y0021159D01*
X0026976Y0021001D01*
X0026982Y0020843D01*
X0026984Y0020685D01*
X0026982Y0020527D01*
X0026976Y0020369D01*
X0026966Y0020211D01*
X0026952Y0020053D01*
X0026934Y0019896D01*
X0026913Y0019739D01*
X0026887Y0019583D01*
X0026857Y0019427D01*
X0026824Y0019272D01*
X0026786Y0019119D01*
X0026745Y0018966D01*
X0026700Y0018814D01*
X0026651Y0018663D01*
X0026598Y0018514D01*
X0026542Y0018366D01*
X0026482Y0018220D01*
X0026418Y0018075D01*
X0026350Y0017932D01*
X0026279Y0017790D01*
X0026205Y0017650D01*
X0026127Y0017513D01*
X0026045Y0017377D01*
X0025961Y0017243D01*
X0025872Y0017112D01*
X0025781Y0016983D01*
X0025686Y0016856D01*
X0025589Y0016731D01*
X0025488Y0016609D01*
X0025384Y0016490D01*
X0025277Y0016373D01*
X0025167Y0016259D01*
X0025054Y0016148D01*
X0024939Y0016039D01*
X0024821Y0015934D01*
X0024700Y0015832D01*
X0024577Y0015732D01*
X0024451Y0015636D01*
X0024323Y0015543D01*
X0024193Y0015453D01*
X0024060Y0015367D01*
X0023925Y0015283D01*
X0023789Y0015204D01*
X0023650Y0015127D01*
X0023509Y0015055D01*
X0023367Y0014985D01*
X0023223Y0014920D01*
X0023077Y0014858D01*
X0022930Y0014800D01*
X0022781Y0014745D01*
X0022631Y0014694D01*
X0022480Y0014647D01*
X0022328Y0014604D01*
X0022175Y0014565D01*
X0022020Y0014529D01*
X0021865Y0014498D01*
X0021709Y0014470D01*
X0021553Y0014446D01*
X0021396Y0014426D01*
X0021238Y0014410D01*
X0021081Y0014398D01*
X0020922Y0014390D01*
X0020764Y0014386D01*
X0020606Y0014386D01*
X0020448Y0014390D01*
X0020289Y0014398D01*
X0020132Y0014410D01*
X0019974Y0014426D01*
X0019817Y0014446D01*
X0019661Y0014470D01*
X0019505Y0014498D01*
X0019350Y0014529D01*
X0019195Y0014565D01*
X0019042Y0014604D01*
X0018890Y0014647D01*
X0018739Y0014694D01*
X0018589Y0014745D01*
X0018440Y0014800D01*
X0018293Y0014858D01*
X0018147Y0014920D01*
X0018003Y0014985D01*
X0017861Y0015055D01*
X0017720Y0015127D01*
X0017581Y0015204D01*
X0017445Y0015283D01*
X0017310Y0015367D01*
X0017177Y0015453D01*
X0017047Y0015543D01*
X0016919Y0015636D01*
X0016793Y0015732D01*
X0016670Y0015832D01*
X0016549Y0015934D01*
X0016431Y0016039D01*
X0016316Y0016148D01*
X0016203Y0016259D01*
X0016093Y0016373D01*
X0015986Y0016490D01*
X0015882Y0016609D01*
X0015781Y0016731D01*
X0015684Y0016856D01*
X0015589Y0016983D01*
X0015498Y0017112D01*
X0015409Y0017243D01*
X0015325Y0017377D01*
X0015243Y0017513D01*
X0015165Y0017650D01*
X0015091Y0017790D01*
X0015020Y0017932D01*
X0014952Y0018075D01*
X0014888Y0018220D01*
X0014828Y0018366D01*
X0014772Y0018514D01*
X0014719Y0018663D01*
X0014670Y0018814D01*
X0014625Y0018966D01*
X0014584Y0019119D01*
X0014546Y0019272D01*
X0014513Y0019427D01*
X0014483Y0019583D01*
X0014457Y0019739D01*
X0014436Y0019896D01*
X0014418Y0020053D01*
X0014404Y0020211D01*
X0014394Y0020369D01*
X0014388Y0020527D01*
X0014386Y0020685D01*
X0014386Y0296276D02*
X0014388Y0296434D01*
X0014394Y0296592D01*
X0014404Y0296750D01*
X0014418Y0296908D01*
X0014436Y0297065D01*
X0014457Y0297222D01*
X0014483Y0297378D01*
X0014513Y0297534D01*
X0014546Y0297689D01*
X0014584Y0297842D01*
X0014625Y0297995D01*
X0014670Y0298147D01*
X0014719Y0298298D01*
X0014772Y0298447D01*
X0014828Y0298595D01*
X0014888Y0298741D01*
X0014952Y0298886D01*
X0015020Y0299029D01*
X0015091Y0299171D01*
X0015165Y0299311D01*
X0015243Y0299448D01*
X0015325Y0299584D01*
X0015409Y0299718D01*
X0015498Y0299849D01*
X0015589Y0299978D01*
X0015684Y0300105D01*
X0015781Y0300230D01*
X0015882Y0300352D01*
X0015986Y0300471D01*
X0016093Y0300588D01*
X0016203Y0300702D01*
X0016316Y0300813D01*
X0016431Y0300922D01*
X0016549Y0301027D01*
X0016670Y0301129D01*
X0016793Y0301229D01*
X0016919Y0301325D01*
X0017047Y0301418D01*
X0017177Y0301508D01*
X0017310Y0301594D01*
X0017445Y0301678D01*
X0017581Y0301757D01*
X0017720Y0301834D01*
X0017861Y0301906D01*
X0018003Y0301976D01*
X0018147Y0302041D01*
X0018293Y0302103D01*
X0018440Y0302161D01*
X0018589Y0302216D01*
X0018739Y0302267D01*
X0018890Y0302314D01*
X0019042Y0302357D01*
X0019195Y0302396D01*
X0019350Y0302432D01*
X0019505Y0302463D01*
X0019661Y0302491D01*
X0019817Y0302515D01*
X0019974Y0302535D01*
X0020132Y0302551D01*
X0020289Y0302563D01*
X0020448Y0302571D01*
X0020606Y0302575D01*
X0020764Y0302575D01*
X0020922Y0302571D01*
X0021081Y0302563D01*
X0021238Y0302551D01*
X0021396Y0302535D01*
X0021553Y0302515D01*
X0021709Y0302491D01*
X0021865Y0302463D01*
X0022020Y0302432D01*
X0022175Y0302396D01*
X0022328Y0302357D01*
X0022480Y0302314D01*
X0022631Y0302267D01*
X0022781Y0302216D01*
X0022930Y0302161D01*
X0023077Y0302103D01*
X0023223Y0302041D01*
X0023367Y0301976D01*
X0023509Y0301906D01*
X0023650Y0301834D01*
X0023789Y0301757D01*
X0023925Y0301678D01*
X0024060Y0301594D01*
X0024193Y0301508D01*
X0024323Y0301418D01*
X0024451Y0301325D01*
X0024577Y0301229D01*
X0024700Y0301129D01*
X0024821Y0301027D01*
X0024939Y0300922D01*
X0025054Y0300813D01*
X0025167Y0300702D01*
X0025277Y0300588D01*
X0025384Y0300471D01*
X0025488Y0300352D01*
X0025589Y0300230D01*
X0025686Y0300105D01*
X0025781Y0299978D01*
X0025872Y0299849D01*
X0025961Y0299718D01*
X0026045Y0299584D01*
X0026127Y0299448D01*
X0026205Y0299311D01*
X0026279Y0299171D01*
X0026350Y0299029D01*
X0026418Y0298886D01*
X0026482Y0298741D01*
X0026542Y0298595D01*
X0026598Y0298447D01*
X0026651Y0298298D01*
X0026700Y0298147D01*
X0026745Y0297995D01*
X0026786Y0297842D01*
X0026824Y0297689D01*
X0026857Y0297534D01*
X0026887Y0297378D01*
X0026913Y0297222D01*
X0026934Y0297065D01*
X0026952Y0296908D01*
X0026966Y0296750D01*
X0026976Y0296592D01*
X0026982Y0296434D01*
X0026984Y0296276D01*
X0026982Y0296118D01*
X0026976Y0295960D01*
X0026966Y0295802D01*
X0026952Y0295644D01*
X0026934Y0295487D01*
X0026913Y0295330D01*
X0026887Y0295174D01*
X0026857Y0295018D01*
X0026824Y0294863D01*
X0026786Y0294710D01*
X0026745Y0294557D01*
X0026700Y0294405D01*
X0026651Y0294254D01*
X0026598Y0294105D01*
X0026542Y0293957D01*
X0026482Y0293811D01*
X0026418Y0293666D01*
X0026350Y0293523D01*
X0026279Y0293381D01*
X0026205Y0293241D01*
X0026127Y0293104D01*
X0026045Y0292968D01*
X0025961Y0292834D01*
X0025872Y0292703D01*
X0025781Y0292574D01*
X0025686Y0292447D01*
X0025589Y0292322D01*
X0025488Y0292200D01*
X0025384Y0292081D01*
X0025277Y0291964D01*
X0025167Y0291850D01*
X0025054Y0291739D01*
X0024939Y0291630D01*
X0024821Y0291525D01*
X0024700Y0291423D01*
X0024577Y0291323D01*
X0024451Y0291227D01*
X0024323Y0291134D01*
X0024193Y0291044D01*
X0024060Y0290958D01*
X0023925Y0290874D01*
X0023789Y0290795D01*
X0023650Y0290718D01*
X0023509Y0290646D01*
X0023367Y0290576D01*
X0023223Y0290511D01*
X0023077Y0290449D01*
X0022930Y0290391D01*
X0022781Y0290336D01*
X0022631Y0290285D01*
X0022480Y0290238D01*
X0022328Y0290195D01*
X0022175Y0290156D01*
X0022020Y0290120D01*
X0021865Y0290089D01*
X0021709Y0290061D01*
X0021553Y0290037D01*
X0021396Y0290017D01*
X0021238Y0290001D01*
X0021081Y0289989D01*
X0020922Y0289981D01*
X0020764Y0289977D01*
X0020606Y0289977D01*
X0020448Y0289981D01*
X0020289Y0289989D01*
X0020132Y0290001D01*
X0019974Y0290017D01*
X0019817Y0290037D01*
X0019661Y0290061D01*
X0019505Y0290089D01*
X0019350Y0290120D01*
X0019195Y0290156D01*
X0019042Y0290195D01*
X0018890Y0290238D01*
X0018739Y0290285D01*
X0018589Y0290336D01*
X0018440Y0290391D01*
X0018293Y0290449D01*
X0018147Y0290511D01*
X0018003Y0290576D01*
X0017861Y0290646D01*
X0017720Y0290718D01*
X0017581Y0290795D01*
X0017445Y0290874D01*
X0017310Y0290958D01*
X0017177Y0291044D01*
X0017047Y0291134D01*
X0016919Y0291227D01*
X0016793Y0291323D01*
X0016670Y0291423D01*
X0016549Y0291525D01*
X0016431Y0291630D01*
X0016316Y0291739D01*
X0016203Y0291850D01*
X0016093Y0291964D01*
X0015986Y0292081D01*
X0015882Y0292200D01*
X0015781Y0292322D01*
X0015684Y0292447D01*
X0015589Y0292574D01*
X0015498Y0292703D01*
X0015409Y0292834D01*
X0015325Y0292968D01*
X0015243Y0293104D01*
X0015165Y0293241D01*
X0015091Y0293381D01*
X0015020Y0293523D01*
X0014952Y0293666D01*
X0014888Y0293811D01*
X0014828Y0293957D01*
X0014772Y0294105D01*
X0014719Y0294254D01*
X0014670Y0294405D01*
X0014625Y0294557D01*
X0014584Y0294710D01*
X0014546Y0294863D01*
X0014513Y0295018D01*
X0014483Y0295174D01*
X0014457Y0295330D01*
X0014436Y0295487D01*
X0014418Y0295644D01*
X0014404Y0295802D01*
X0014394Y0295960D01*
X0014388Y0296118D01*
X0014386Y0296276D01*
X0368717Y0296276D02*
X0368719Y0296434D01*
X0368725Y0296592D01*
X0368735Y0296750D01*
X0368749Y0296908D01*
X0368767Y0297065D01*
X0368788Y0297222D01*
X0368814Y0297378D01*
X0368844Y0297534D01*
X0368877Y0297689D01*
X0368915Y0297842D01*
X0368956Y0297995D01*
X0369001Y0298147D01*
X0369050Y0298298D01*
X0369103Y0298447D01*
X0369159Y0298595D01*
X0369219Y0298741D01*
X0369283Y0298886D01*
X0369351Y0299029D01*
X0369422Y0299171D01*
X0369496Y0299311D01*
X0369574Y0299448D01*
X0369656Y0299584D01*
X0369740Y0299718D01*
X0369829Y0299849D01*
X0369920Y0299978D01*
X0370015Y0300105D01*
X0370112Y0300230D01*
X0370213Y0300352D01*
X0370317Y0300471D01*
X0370424Y0300588D01*
X0370534Y0300702D01*
X0370647Y0300813D01*
X0370762Y0300922D01*
X0370880Y0301027D01*
X0371001Y0301129D01*
X0371124Y0301229D01*
X0371250Y0301325D01*
X0371378Y0301418D01*
X0371508Y0301508D01*
X0371641Y0301594D01*
X0371776Y0301678D01*
X0371912Y0301757D01*
X0372051Y0301834D01*
X0372192Y0301906D01*
X0372334Y0301976D01*
X0372478Y0302041D01*
X0372624Y0302103D01*
X0372771Y0302161D01*
X0372920Y0302216D01*
X0373070Y0302267D01*
X0373221Y0302314D01*
X0373373Y0302357D01*
X0373526Y0302396D01*
X0373681Y0302432D01*
X0373836Y0302463D01*
X0373992Y0302491D01*
X0374148Y0302515D01*
X0374305Y0302535D01*
X0374463Y0302551D01*
X0374620Y0302563D01*
X0374779Y0302571D01*
X0374937Y0302575D01*
X0375095Y0302575D01*
X0375253Y0302571D01*
X0375412Y0302563D01*
X0375569Y0302551D01*
X0375727Y0302535D01*
X0375884Y0302515D01*
X0376040Y0302491D01*
X0376196Y0302463D01*
X0376351Y0302432D01*
X0376506Y0302396D01*
X0376659Y0302357D01*
X0376811Y0302314D01*
X0376962Y0302267D01*
X0377112Y0302216D01*
X0377261Y0302161D01*
X0377408Y0302103D01*
X0377554Y0302041D01*
X0377698Y0301976D01*
X0377840Y0301906D01*
X0377981Y0301834D01*
X0378120Y0301757D01*
X0378256Y0301678D01*
X0378391Y0301594D01*
X0378524Y0301508D01*
X0378654Y0301418D01*
X0378782Y0301325D01*
X0378908Y0301229D01*
X0379031Y0301129D01*
X0379152Y0301027D01*
X0379270Y0300922D01*
X0379385Y0300813D01*
X0379498Y0300702D01*
X0379608Y0300588D01*
X0379715Y0300471D01*
X0379819Y0300352D01*
X0379920Y0300230D01*
X0380017Y0300105D01*
X0380112Y0299978D01*
X0380203Y0299849D01*
X0380292Y0299718D01*
X0380376Y0299584D01*
X0380458Y0299448D01*
X0380536Y0299311D01*
X0380610Y0299171D01*
X0380681Y0299029D01*
X0380749Y0298886D01*
X0380813Y0298741D01*
X0380873Y0298595D01*
X0380929Y0298447D01*
X0380982Y0298298D01*
X0381031Y0298147D01*
X0381076Y0297995D01*
X0381117Y0297842D01*
X0381155Y0297689D01*
X0381188Y0297534D01*
X0381218Y0297378D01*
X0381244Y0297222D01*
X0381265Y0297065D01*
X0381283Y0296908D01*
X0381297Y0296750D01*
X0381307Y0296592D01*
X0381313Y0296434D01*
X0381315Y0296276D01*
X0381313Y0296118D01*
X0381307Y0295960D01*
X0381297Y0295802D01*
X0381283Y0295644D01*
X0381265Y0295487D01*
X0381244Y0295330D01*
X0381218Y0295174D01*
X0381188Y0295018D01*
X0381155Y0294863D01*
X0381117Y0294710D01*
X0381076Y0294557D01*
X0381031Y0294405D01*
X0380982Y0294254D01*
X0380929Y0294105D01*
X0380873Y0293957D01*
X0380813Y0293811D01*
X0380749Y0293666D01*
X0380681Y0293523D01*
X0380610Y0293381D01*
X0380536Y0293241D01*
X0380458Y0293104D01*
X0380376Y0292968D01*
X0380292Y0292834D01*
X0380203Y0292703D01*
X0380112Y0292574D01*
X0380017Y0292447D01*
X0379920Y0292322D01*
X0379819Y0292200D01*
X0379715Y0292081D01*
X0379608Y0291964D01*
X0379498Y0291850D01*
X0379385Y0291739D01*
X0379270Y0291630D01*
X0379152Y0291525D01*
X0379031Y0291423D01*
X0378908Y0291323D01*
X0378782Y0291227D01*
X0378654Y0291134D01*
X0378524Y0291044D01*
X0378391Y0290958D01*
X0378256Y0290874D01*
X0378120Y0290795D01*
X0377981Y0290718D01*
X0377840Y0290646D01*
X0377698Y0290576D01*
X0377554Y0290511D01*
X0377408Y0290449D01*
X0377261Y0290391D01*
X0377112Y0290336D01*
X0376962Y0290285D01*
X0376811Y0290238D01*
X0376659Y0290195D01*
X0376506Y0290156D01*
X0376351Y0290120D01*
X0376196Y0290089D01*
X0376040Y0290061D01*
X0375884Y0290037D01*
X0375727Y0290017D01*
X0375569Y0290001D01*
X0375412Y0289989D01*
X0375253Y0289981D01*
X0375095Y0289977D01*
X0374937Y0289977D01*
X0374779Y0289981D01*
X0374620Y0289989D01*
X0374463Y0290001D01*
X0374305Y0290017D01*
X0374148Y0290037D01*
X0373992Y0290061D01*
X0373836Y0290089D01*
X0373681Y0290120D01*
X0373526Y0290156D01*
X0373373Y0290195D01*
X0373221Y0290238D01*
X0373070Y0290285D01*
X0372920Y0290336D01*
X0372771Y0290391D01*
X0372624Y0290449D01*
X0372478Y0290511D01*
X0372334Y0290576D01*
X0372192Y0290646D01*
X0372051Y0290718D01*
X0371912Y0290795D01*
X0371776Y0290874D01*
X0371641Y0290958D01*
X0371508Y0291044D01*
X0371378Y0291134D01*
X0371250Y0291227D01*
X0371124Y0291323D01*
X0371001Y0291423D01*
X0370880Y0291525D01*
X0370762Y0291630D01*
X0370647Y0291739D01*
X0370534Y0291850D01*
X0370424Y0291964D01*
X0370317Y0292081D01*
X0370213Y0292200D01*
X0370112Y0292322D01*
X0370015Y0292447D01*
X0369920Y0292574D01*
X0369829Y0292703D01*
X0369740Y0292834D01*
X0369656Y0292968D01*
X0369574Y0293104D01*
X0369496Y0293241D01*
X0369422Y0293381D01*
X0369351Y0293523D01*
X0369283Y0293666D01*
X0369219Y0293811D01*
X0369159Y0293957D01*
X0369103Y0294105D01*
X0369050Y0294254D01*
X0369001Y0294405D01*
X0368956Y0294557D01*
X0368915Y0294710D01*
X0368877Y0294863D01*
X0368844Y0295018D01*
X0368814Y0295174D01*
X0368788Y0295330D01*
X0368767Y0295487D01*
X0368749Y0295644D01*
X0368735Y0295802D01*
X0368725Y0295960D01*
X0368719Y0296118D01*
X0368717Y0296276D01*
X0368115Y0021008D02*
X0368117Y0021166D01*
X0368123Y0021324D01*
X0368133Y0021482D01*
X0368147Y0021640D01*
X0368165Y0021797D01*
X0368186Y0021954D01*
X0368212Y0022110D01*
X0368242Y0022266D01*
X0368275Y0022421D01*
X0368313Y0022574D01*
X0368354Y0022727D01*
X0368399Y0022879D01*
X0368448Y0023030D01*
X0368501Y0023179D01*
X0368557Y0023327D01*
X0368617Y0023473D01*
X0368681Y0023618D01*
X0368749Y0023761D01*
X0368820Y0023903D01*
X0368894Y0024043D01*
X0368972Y0024180D01*
X0369054Y0024316D01*
X0369138Y0024450D01*
X0369227Y0024581D01*
X0369318Y0024710D01*
X0369413Y0024837D01*
X0369510Y0024962D01*
X0369611Y0025084D01*
X0369715Y0025203D01*
X0369822Y0025320D01*
X0369932Y0025434D01*
X0370045Y0025545D01*
X0370160Y0025654D01*
X0370278Y0025759D01*
X0370399Y0025861D01*
X0370522Y0025961D01*
X0370648Y0026057D01*
X0370776Y0026150D01*
X0370906Y0026240D01*
X0371039Y0026326D01*
X0371174Y0026410D01*
X0371310Y0026489D01*
X0371449Y0026566D01*
X0371590Y0026638D01*
X0371732Y0026708D01*
X0371876Y0026773D01*
X0372022Y0026835D01*
X0372169Y0026893D01*
X0372318Y0026948D01*
X0372468Y0026999D01*
X0372619Y0027046D01*
X0372771Y0027089D01*
X0372924Y0027128D01*
X0373079Y0027164D01*
X0373234Y0027195D01*
X0373390Y0027223D01*
X0373546Y0027247D01*
X0373703Y0027267D01*
X0373861Y0027283D01*
X0374018Y0027295D01*
X0374177Y0027303D01*
X0374335Y0027307D01*
X0374493Y0027307D01*
X0374651Y0027303D01*
X0374810Y0027295D01*
X0374967Y0027283D01*
X0375125Y0027267D01*
X0375282Y0027247D01*
X0375438Y0027223D01*
X0375594Y0027195D01*
X0375749Y0027164D01*
X0375904Y0027128D01*
X0376057Y0027089D01*
X0376209Y0027046D01*
X0376360Y0026999D01*
X0376510Y0026948D01*
X0376659Y0026893D01*
X0376806Y0026835D01*
X0376952Y0026773D01*
X0377096Y0026708D01*
X0377238Y0026638D01*
X0377379Y0026566D01*
X0377518Y0026489D01*
X0377654Y0026410D01*
X0377789Y0026326D01*
X0377922Y0026240D01*
X0378052Y0026150D01*
X0378180Y0026057D01*
X0378306Y0025961D01*
X0378429Y0025861D01*
X0378550Y0025759D01*
X0378668Y0025654D01*
X0378783Y0025545D01*
X0378896Y0025434D01*
X0379006Y0025320D01*
X0379113Y0025203D01*
X0379217Y0025084D01*
X0379318Y0024962D01*
X0379415Y0024837D01*
X0379510Y0024710D01*
X0379601Y0024581D01*
X0379690Y0024450D01*
X0379774Y0024316D01*
X0379856Y0024180D01*
X0379934Y0024043D01*
X0380008Y0023903D01*
X0380079Y0023761D01*
X0380147Y0023618D01*
X0380211Y0023473D01*
X0380271Y0023327D01*
X0380327Y0023179D01*
X0380380Y0023030D01*
X0380429Y0022879D01*
X0380474Y0022727D01*
X0380515Y0022574D01*
X0380553Y0022421D01*
X0380586Y0022266D01*
X0380616Y0022110D01*
X0380642Y0021954D01*
X0380663Y0021797D01*
X0380681Y0021640D01*
X0380695Y0021482D01*
X0380705Y0021324D01*
X0380711Y0021166D01*
X0380713Y0021008D01*
X0380711Y0020850D01*
X0380705Y0020692D01*
X0380695Y0020534D01*
X0380681Y0020376D01*
X0380663Y0020219D01*
X0380642Y0020062D01*
X0380616Y0019906D01*
X0380586Y0019750D01*
X0380553Y0019595D01*
X0380515Y0019442D01*
X0380474Y0019289D01*
X0380429Y0019137D01*
X0380380Y0018986D01*
X0380327Y0018837D01*
X0380271Y0018689D01*
X0380211Y0018543D01*
X0380147Y0018398D01*
X0380079Y0018255D01*
X0380008Y0018113D01*
X0379934Y0017973D01*
X0379856Y0017836D01*
X0379774Y0017700D01*
X0379690Y0017566D01*
X0379601Y0017435D01*
X0379510Y0017306D01*
X0379415Y0017179D01*
X0379318Y0017054D01*
X0379217Y0016932D01*
X0379113Y0016813D01*
X0379006Y0016696D01*
X0378896Y0016582D01*
X0378783Y0016471D01*
X0378668Y0016362D01*
X0378550Y0016257D01*
X0378429Y0016155D01*
X0378306Y0016055D01*
X0378180Y0015959D01*
X0378052Y0015866D01*
X0377922Y0015776D01*
X0377789Y0015690D01*
X0377654Y0015606D01*
X0377518Y0015527D01*
X0377379Y0015450D01*
X0377238Y0015378D01*
X0377096Y0015308D01*
X0376952Y0015243D01*
X0376806Y0015181D01*
X0376659Y0015123D01*
X0376510Y0015068D01*
X0376360Y0015017D01*
X0376209Y0014970D01*
X0376057Y0014927D01*
X0375904Y0014888D01*
X0375749Y0014852D01*
X0375594Y0014821D01*
X0375438Y0014793D01*
X0375282Y0014769D01*
X0375125Y0014749D01*
X0374967Y0014733D01*
X0374810Y0014721D01*
X0374651Y0014713D01*
X0374493Y0014709D01*
X0374335Y0014709D01*
X0374177Y0014713D01*
X0374018Y0014721D01*
X0373861Y0014733D01*
X0373703Y0014749D01*
X0373546Y0014769D01*
X0373390Y0014793D01*
X0373234Y0014821D01*
X0373079Y0014852D01*
X0372924Y0014888D01*
X0372771Y0014927D01*
X0372619Y0014970D01*
X0372468Y0015017D01*
X0372318Y0015068D01*
X0372169Y0015123D01*
X0372022Y0015181D01*
X0371876Y0015243D01*
X0371732Y0015308D01*
X0371590Y0015378D01*
X0371449Y0015450D01*
X0371310Y0015527D01*
X0371174Y0015606D01*
X0371039Y0015690D01*
X0370906Y0015776D01*
X0370776Y0015866D01*
X0370648Y0015959D01*
X0370522Y0016055D01*
X0370399Y0016155D01*
X0370278Y0016257D01*
X0370160Y0016362D01*
X0370045Y0016471D01*
X0369932Y0016582D01*
X0369822Y0016696D01*
X0369715Y0016813D01*
X0369611Y0016932D01*
X0369510Y0017054D01*
X0369413Y0017179D01*
X0369318Y0017306D01*
X0369227Y0017435D01*
X0369138Y0017566D01*
X0369054Y0017700D01*
X0368972Y0017836D01*
X0368894Y0017973D01*
X0368820Y0018113D01*
X0368749Y0018255D01*
X0368681Y0018398D01*
X0368617Y0018543D01*
X0368557Y0018689D01*
X0368501Y0018837D01*
X0368448Y0018986D01*
X0368399Y0019137D01*
X0368354Y0019289D01*
X0368313Y0019442D01*
X0368275Y0019595D01*
X0368242Y0019750D01*
X0368212Y0019906D01*
X0368186Y0020062D01*
X0368165Y0020219D01*
X0368147Y0020376D01*
X0368133Y0020534D01*
X0368123Y0020692D01*
X0368117Y0020850D01*
X0368115Y0021008D01*
D11*
X0373947Y0182047D02*
X0384884Y0182047D01*
X0384884Y0222386D01*
X0374084Y0222386D01*
X0311929Y0256571D02*
X0311929Y0286928D01*
X0301811Y0286928D02*
X0301811Y0256571D01*
X0281984Y0256435D02*
X0281984Y0286791D01*
X0272003Y0286928D02*
X0272003Y0256571D01*
X0252040Y0256435D02*
X0252040Y0286791D01*
X0242059Y0286928D02*
X0242059Y0256571D01*
X0188596Y0256571D02*
X0188596Y0286928D01*
X0178615Y0287065D02*
X0178615Y0256708D01*
X0138552Y0256708D02*
X0138552Y0287065D01*
X0128708Y0287202D02*
X0128708Y0256845D01*
X0088782Y0256845D02*
X0088782Y0287202D01*
X0078937Y0287202D02*
X0078937Y0256845D01*
D12*
X0069259Y0257181D02*
X0069259Y0261785D01*
X0067724Y0261785D01*
X0066190Y0261018D02*
X0066190Y0260251D01*
X0065422Y0259483D01*
X0063888Y0259483D01*
X0063121Y0260251D01*
X0063121Y0261018D01*
X0063888Y0261785D01*
X0065422Y0261785D01*
X0066190Y0261018D01*
X0065422Y0259483D02*
X0066190Y0258716D01*
X0066190Y0257949D01*
X0065422Y0257181D01*
X0063888Y0257181D01*
X0063121Y0257949D01*
X0063121Y0258716D01*
X0063888Y0259483D01*
X0061586Y0257949D02*
X0061586Y0257181D01*
X0060819Y0257181D01*
X0060819Y0257949D01*
X0061586Y0257949D01*
X0059284Y0257949D02*
X0059284Y0257181D01*
X0058517Y0257181D01*
X0058517Y0257949D01*
X0059284Y0257949D01*
X0056982Y0257181D02*
X0053913Y0257181D01*
X0055447Y0257181D02*
X0055447Y0261785D01*
X0053913Y0260251D01*
X0052378Y0261785D02*
X0050843Y0261785D01*
X0050843Y0257181D01*
X0052378Y0257181D01*
X0049309Y0257949D02*
X0049309Y0261018D01*
X0048541Y0261785D01*
X0047007Y0261785D01*
X0046239Y0261018D01*
X0046239Y0257949D01*
X0047007Y0257181D01*
X0048541Y0257181D01*
X0049309Y0257949D01*
X0044705Y0257181D02*
X0043170Y0257181D01*
X0043938Y0257181D02*
X0043938Y0261785D01*
X0044705Y0261785D02*
X0043170Y0261785D01*
X0067724Y0257181D02*
X0069259Y0257181D01*
X0092796Y0257181D02*
X0094331Y0257181D01*
X0093564Y0257181D02*
X0093564Y0261785D01*
X0094331Y0261785D02*
X0092796Y0261785D01*
X0095866Y0261018D02*
X0095866Y0257949D01*
X0096633Y0257181D01*
X0098167Y0257181D01*
X0098935Y0257949D01*
X0098935Y0261018D01*
X0098167Y0261785D01*
X0096633Y0261785D01*
X0095866Y0261018D01*
X0100469Y0261785D02*
X0100469Y0257181D01*
X0102004Y0257181D01*
X0103539Y0257949D02*
X0104306Y0257181D01*
X0105841Y0257181D01*
X0106608Y0257949D01*
X0106608Y0261018D01*
X0105841Y0261785D01*
X0104306Y0261785D01*
X0103539Y0261018D01*
X0103539Y0260251D01*
X0104306Y0259483D01*
X0106608Y0259483D01*
X0108143Y0257949D02*
X0108910Y0257949D01*
X0108910Y0257181D01*
X0108143Y0257181D01*
X0108143Y0257949D01*
X0110445Y0257949D02*
X0111212Y0257949D01*
X0111212Y0257181D01*
X0110445Y0257181D01*
X0110445Y0257949D01*
X0112747Y0257181D02*
X0115816Y0257181D01*
X0114281Y0257181D02*
X0114281Y0261785D01*
X0112747Y0260251D01*
X0117350Y0259483D02*
X0119652Y0259483D01*
X0120420Y0258716D01*
X0120420Y0257949D01*
X0119652Y0257181D01*
X0118118Y0257181D01*
X0117350Y0257949D01*
X0117350Y0259483D01*
X0118885Y0261018D01*
X0120420Y0261785D01*
X0121954Y0261785D02*
X0123489Y0261785D01*
X0123489Y0257181D01*
X0121954Y0257181D01*
X0142422Y0257181D02*
X0143957Y0257181D01*
X0143190Y0257181D02*
X0143190Y0261785D01*
X0143957Y0261785D02*
X0142422Y0261785D01*
X0145492Y0261018D02*
X0145492Y0257949D01*
X0146259Y0257181D01*
X0147793Y0257181D01*
X0148561Y0257949D01*
X0148561Y0261018D01*
X0147793Y0261785D01*
X0146259Y0261785D01*
X0145492Y0261018D01*
X0150095Y0261785D02*
X0150095Y0257181D01*
X0151630Y0257181D01*
X0153165Y0257181D02*
X0156234Y0257181D01*
X0154699Y0257181D02*
X0154699Y0261785D01*
X0153165Y0260251D01*
X0151630Y0261785D02*
X0150095Y0261785D01*
X0157769Y0261785D02*
X0160838Y0261785D01*
X0160838Y0261018D01*
X0157769Y0257949D01*
X0157769Y0257181D01*
X0162373Y0257181D02*
X0163140Y0257181D01*
X0163140Y0257949D01*
X0162373Y0257949D01*
X0162373Y0257181D01*
X0164675Y0257181D02*
X0165442Y0257181D01*
X0165442Y0257949D01*
X0164675Y0257949D01*
X0164675Y0257181D01*
X0166977Y0257181D02*
X0170046Y0260251D01*
X0170046Y0261018D01*
X0169278Y0261785D01*
X0167744Y0261785D01*
X0166977Y0261018D01*
X0166977Y0257181D02*
X0170046Y0257181D01*
X0171580Y0259483D02*
X0173882Y0261785D01*
X0173882Y0257181D01*
X0176184Y0257181D02*
X0177719Y0257181D01*
X0177719Y0261785D01*
X0176184Y0261785D01*
X0174650Y0259483D02*
X0171580Y0259483D01*
X0181385Y0253581D02*
X0182919Y0253581D01*
X0182152Y0253581D02*
X0182152Y0248977D01*
X0181385Y0248977D02*
X0182919Y0248977D01*
X0184454Y0249744D02*
X0185221Y0248977D01*
X0186756Y0248977D01*
X0187523Y0249744D01*
X0187523Y0252814D01*
X0186756Y0253581D01*
X0185221Y0253581D01*
X0184454Y0252814D01*
X0184454Y0249744D01*
X0189058Y0248977D02*
X0189058Y0253581D01*
X0190593Y0253581D01*
X0192127Y0252814D02*
X0192895Y0253581D01*
X0194429Y0253581D01*
X0195197Y0252814D01*
X0195197Y0252046D01*
X0192127Y0248977D01*
X0195197Y0248977D01*
X0196731Y0249744D02*
X0197499Y0248977D01*
X0199033Y0248977D01*
X0199801Y0249744D01*
X0199801Y0251279D01*
X0199033Y0252046D01*
X0198266Y0252046D01*
X0196731Y0251279D01*
X0196731Y0253581D01*
X0199801Y0253581D01*
X0201335Y0249744D02*
X0202102Y0249744D01*
X0202102Y0248977D01*
X0201335Y0248977D01*
X0201335Y0249744D01*
X0203637Y0249744D02*
X0204404Y0249744D01*
X0204404Y0248977D01*
X0203637Y0248977D01*
X0203637Y0249744D01*
X0205939Y0248977D02*
X0209008Y0252046D01*
X0209008Y0252814D01*
X0208241Y0253581D01*
X0206706Y0253581D01*
X0205939Y0252814D01*
X0205939Y0248977D02*
X0209008Y0248977D01*
X0210543Y0249744D02*
X0210543Y0250512D01*
X0211310Y0251279D01*
X0212845Y0251279D01*
X0213612Y0250512D01*
X0213612Y0249744D01*
X0212845Y0248977D01*
X0211310Y0248977D01*
X0210543Y0249744D01*
X0211310Y0251279D02*
X0210543Y0252046D01*
X0210543Y0252814D01*
X0211310Y0253581D01*
X0212845Y0253581D01*
X0213612Y0252814D01*
X0213612Y0252046D01*
X0212845Y0251279D01*
X0214879Y0250018D02*
X0215646Y0249250D01*
X0217181Y0249250D01*
X0217948Y0250018D01*
X0217948Y0251552D01*
X0216414Y0251552D01*
X0216682Y0253581D02*
X0216682Y0248977D01*
X0215147Y0248977D01*
X0214879Y0250018D02*
X0214879Y0253087D01*
X0215646Y0253854D01*
X0217181Y0253854D01*
X0217948Y0253087D01*
X0216682Y0253581D02*
X0215147Y0253581D01*
X0219483Y0253087D02*
X0219483Y0250018D01*
X0220250Y0249250D01*
X0221785Y0249250D01*
X0222552Y0250018D01*
X0224087Y0249250D02*
X0227156Y0249250D01*
X0228691Y0249250D02*
X0228691Y0253854D01*
X0229458Y0251552D02*
X0231760Y0249250D01*
X0233295Y0249250D02*
X0233295Y0253854D01*
X0234829Y0253854D01*
X0236364Y0253087D02*
X0237131Y0253854D01*
X0238666Y0253854D01*
X0239433Y0253087D01*
X0236364Y0250018D01*
X0237131Y0249250D01*
X0238666Y0249250D01*
X0239433Y0250018D01*
X0239433Y0253087D01*
X0236364Y0253087D02*
X0236364Y0250018D01*
X0234829Y0249250D02*
X0233295Y0249250D01*
X0228691Y0250785D02*
X0231760Y0253854D01*
X0224087Y0253854D02*
X0224087Y0249250D01*
X0222552Y0253087D02*
X0221785Y0253854D01*
X0220250Y0253854D01*
X0219483Y0253087D01*
X0240968Y0250018D02*
X0241735Y0250018D01*
X0241735Y0249250D01*
X0240968Y0249250D01*
X0240968Y0250018D01*
X0243270Y0250018D02*
X0244037Y0250018D01*
X0244037Y0249250D01*
X0243270Y0249250D01*
X0243270Y0250018D01*
X0245572Y0250018D02*
X0246339Y0249250D01*
X0247874Y0249250D01*
X0248641Y0250018D01*
X0248641Y0250785D01*
X0247874Y0251552D01*
X0247106Y0251552D01*
X0247874Y0251552D02*
X0248641Y0252320D01*
X0248641Y0253087D01*
X0247874Y0253854D01*
X0246339Y0253854D01*
X0245572Y0253087D01*
X0250176Y0253854D02*
X0251710Y0253854D01*
X0251710Y0249250D01*
X0250176Y0249250D01*
X0254693Y0249524D02*
X0254693Y0254128D01*
X0256227Y0254128D02*
X0253158Y0254128D01*
X0257762Y0254128D02*
X0257762Y0249524D01*
X0257762Y0251059D02*
X0260064Y0251059D01*
X0260831Y0251826D01*
X0260831Y0253361D01*
X0260064Y0254128D01*
X0257762Y0254128D01*
X0259297Y0251059D02*
X0260831Y0249524D01*
X0262366Y0249524D02*
X0264668Y0249524D01*
X0265435Y0250291D01*
X0265435Y0253361D01*
X0264668Y0254128D01*
X0262366Y0254128D01*
X0262366Y0249524D01*
X0266970Y0253361D02*
X0268504Y0251826D01*
X0268504Y0249524D01*
X0268504Y0251826D02*
X0270039Y0253361D01*
X0270039Y0254128D01*
X0271574Y0252593D02*
X0273108Y0254128D01*
X0273108Y0249524D01*
X0271574Y0249524D02*
X0274643Y0249524D01*
X0276178Y0247989D02*
X0277712Y0249524D01*
X0276945Y0249524D01*
X0276945Y0250291D01*
X0277712Y0250291D01*
X0277712Y0249524D01*
X0279247Y0249524D02*
X0282316Y0252593D01*
X0282316Y0253361D01*
X0281549Y0254128D01*
X0280014Y0254128D01*
X0279247Y0253361D01*
X0279247Y0249524D02*
X0282316Y0249524D01*
X0284685Y0256498D02*
X0286220Y0256498D01*
X0286987Y0257265D01*
X0288522Y0256498D02*
X0288522Y0261102D01*
X0291591Y0256498D01*
X0291591Y0261102D01*
X0293126Y0261102D02*
X0296195Y0261102D01*
X0294660Y0261102D02*
X0294660Y0256498D01*
X0297730Y0256498D02*
X0300799Y0256498D01*
X0297730Y0256498D02*
X0297730Y0261102D01*
X0286987Y0260334D02*
X0286220Y0261102D01*
X0284685Y0261102D01*
X0283918Y0260334D01*
X0283918Y0257265D01*
X0284685Y0256498D01*
X0266970Y0254128D02*
X0266970Y0253361D01*
X0275873Y0288738D02*
X0277408Y0290273D01*
X0276641Y0290273D01*
X0276641Y0291040D01*
X0277408Y0291040D01*
X0277408Y0290273D01*
X0278943Y0290273D02*
X0282012Y0293342D01*
X0282012Y0294110D01*
X0281245Y0294877D01*
X0279710Y0294877D01*
X0278943Y0294110D01*
X0278943Y0290273D02*
X0282012Y0290273D01*
X0274339Y0290273D02*
X0271269Y0290273D01*
X0272804Y0290273D02*
X0272804Y0294877D01*
X0271269Y0293342D01*
X0269735Y0294110D02*
X0269735Y0294877D01*
X0269735Y0294110D02*
X0268200Y0292575D01*
X0268200Y0290273D01*
X0268200Y0292575D02*
X0266666Y0294110D01*
X0266666Y0294877D01*
X0265131Y0294110D02*
X0264364Y0294877D01*
X0262062Y0294877D01*
X0262062Y0290273D01*
X0264364Y0290273D01*
X0265131Y0291040D01*
X0265131Y0294110D01*
X0260527Y0294110D02*
X0260527Y0292575D01*
X0259760Y0291808D01*
X0257458Y0291808D01*
X0258992Y0291808D02*
X0260527Y0290273D01*
X0257458Y0290273D02*
X0257458Y0294877D01*
X0259760Y0294877D01*
X0260527Y0294110D01*
X0255923Y0294877D02*
X0254388Y0294877D01*
X0255156Y0294877D02*
X0255156Y0290273D01*
X0255923Y0290273D02*
X0254388Y0290273D01*
X0314678Y0261375D02*
X0314678Y0256771D01*
X0316980Y0256771D01*
X0317747Y0257539D01*
X0317747Y0260608D01*
X0316980Y0261375D01*
X0314678Y0261375D01*
X0319282Y0261375D02*
X0319282Y0256771D01*
X0320816Y0256771D01*
X0322351Y0257539D02*
X0325420Y0260608D01*
X0325420Y0257539D01*
X0324653Y0256771D01*
X0323118Y0256771D01*
X0322351Y0257539D01*
X0322351Y0260608D01*
X0323118Y0261375D01*
X0324653Y0261375D01*
X0325420Y0260608D01*
X0326955Y0257539D02*
X0327722Y0257539D01*
X0327722Y0256771D01*
X0326955Y0256771D01*
X0326955Y0257539D01*
X0329257Y0257539D02*
X0330024Y0257539D01*
X0330024Y0256771D01*
X0329257Y0256771D01*
X0329257Y0257539D01*
X0331559Y0257539D02*
X0331559Y0256771D01*
X0331559Y0257539D02*
X0334628Y0260608D01*
X0334628Y0261375D01*
X0331559Y0261375D01*
X0336163Y0261375D02*
X0337697Y0261375D01*
X0337697Y0256771D01*
X0336163Y0256771D01*
X0320816Y0261375D02*
X0319282Y0261375D01*
X0360066Y0238456D02*
X0360066Y0235386D01*
X0360833Y0234619D01*
X0362368Y0234619D01*
X0363135Y0235386D01*
X0363135Y0236921D01*
X0361600Y0236921D01*
X0360066Y0238456D02*
X0360833Y0239223D01*
X0362368Y0239223D01*
X0363135Y0238456D01*
X0364670Y0239223D02*
X0367739Y0234619D01*
X0367739Y0239223D01*
X0369274Y0239223D02*
X0369274Y0234619D01*
X0371576Y0234619D01*
X0372343Y0235386D01*
X0372343Y0238456D01*
X0371576Y0239223D01*
X0369274Y0239223D01*
X0364670Y0239223D02*
X0364670Y0234619D01*
X0368268Y0219395D02*
X0371338Y0219395D01*
X0372872Y0219395D02*
X0375174Y0219395D01*
X0375942Y0218628D01*
X0375942Y0215559D01*
X0375174Y0214791D01*
X0372872Y0214791D01*
X0372872Y0219395D01*
X0369803Y0219395D02*
X0369803Y0214791D01*
X0369803Y0209413D02*
X0369803Y0204809D01*
X0372872Y0204809D02*
X0375174Y0204809D01*
X0375942Y0205577D01*
X0375942Y0208646D01*
X0375174Y0209413D01*
X0372872Y0209413D01*
X0372872Y0204809D01*
X0377476Y0205577D02*
X0377476Y0208646D01*
X0378244Y0209413D01*
X0379778Y0209413D01*
X0380546Y0208646D01*
X0380546Y0205577D01*
X0379778Y0204809D01*
X0378244Y0204809D01*
X0377476Y0205577D01*
X0377476Y0199568D02*
X0377476Y0194964D01*
X0377476Y0196498D02*
X0380546Y0199568D01*
X0378244Y0197266D02*
X0380546Y0194964D01*
X0375942Y0195731D02*
X0375174Y0194964D01*
X0373640Y0194964D01*
X0372872Y0195731D01*
X0372872Y0198800D01*
X0373640Y0199568D01*
X0375174Y0199568D01*
X0375942Y0198800D01*
X0371338Y0199568D02*
X0368268Y0199568D01*
X0369803Y0199568D02*
X0369803Y0194964D01*
X0369940Y0189722D02*
X0369940Y0185118D01*
X0373009Y0185118D02*
X0373009Y0189722D01*
X0374544Y0188188D01*
X0376078Y0189722D01*
X0376078Y0185118D01*
X0377613Y0185886D02*
X0378380Y0185118D01*
X0379915Y0185118D01*
X0380682Y0185886D01*
X0380682Y0186653D01*
X0379915Y0187420D01*
X0378380Y0187420D01*
X0377613Y0188188D01*
X0377613Y0188955D01*
X0378380Y0189722D01*
X0379915Y0189722D01*
X0380682Y0188955D01*
X0371474Y0189722D02*
X0368405Y0189722D01*
X0367876Y0169758D02*
X0369410Y0169758D01*
X0370178Y0168991D01*
X0370178Y0168223D01*
X0369410Y0167456D01*
X0370178Y0166689D01*
X0370178Y0165921D01*
X0369410Y0165154D01*
X0367876Y0165154D01*
X0367108Y0165921D01*
X0365574Y0165921D02*
X0365574Y0165154D01*
X0364806Y0165154D01*
X0364806Y0165921D01*
X0365574Y0165921D01*
X0363272Y0165921D02*
X0362505Y0165154D01*
X0360970Y0165154D01*
X0360203Y0165921D01*
X0361737Y0167456D02*
X0362505Y0167456D01*
X0363272Y0166689D01*
X0363272Y0165921D01*
X0362505Y0167456D02*
X0363272Y0168223D01*
X0363272Y0168991D01*
X0362505Y0169758D01*
X0360970Y0169758D01*
X0360203Y0168991D01*
X0367108Y0168991D02*
X0367876Y0169758D01*
X0368643Y0167456D02*
X0369410Y0167456D01*
X0371712Y0166689D02*
X0373247Y0165154D01*
X0374782Y0166689D01*
X0374782Y0169758D01*
X0371712Y0169758D02*
X0371712Y0166689D01*
X0371338Y0209413D02*
X0368268Y0209413D01*
X0377476Y0214791D02*
X0379011Y0214791D01*
X0378244Y0214791D02*
X0378244Y0219395D01*
X0379011Y0219395D02*
X0377476Y0219395D01*
X0210179Y0080287D02*
X0208428Y0078535D01*
X0210763Y0078535D01*
X0210179Y0076784D02*
X0210179Y0080287D01*
X0207172Y0079703D02*
X0207172Y0078535D01*
X0206588Y0077951D01*
X0204837Y0077951D01*
X0204837Y0076784D02*
X0204837Y0080287D01*
X0206588Y0080287D01*
X0207172Y0079703D01*
X0206004Y0077951D02*
X0207172Y0076784D01*
X0320283Y0076553D02*
X0320283Y0073483D01*
X0321050Y0072716D01*
X0322585Y0072716D01*
X0323352Y0073483D01*
X0323352Y0075018D01*
X0321818Y0075018D01*
X0323352Y0076553D02*
X0322585Y0077320D01*
X0321050Y0077320D01*
X0320283Y0076553D01*
X0324887Y0077320D02*
X0324887Y0072716D01*
X0327956Y0072716D01*
X0329491Y0072716D02*
X0329491Y0077320D01*
X0332560Y0072716D01*
X0332560Y0077320D01*
X0334095Y0076553D02*
X0334862Y0077320D01*
X0336397Y0077320D01*
X0337164Y0076553D01*
X0337164Y0075785D01*
X0336397Y0075018D01*
X0337164Y0074251D01*
X0337164Y0073483D01*
X0336397Y0072716D01*
X0334862Y0072716D01*
X0334095Y0073483D01*
X0335629Y0075018D02*
X0336397Y0075018D01*
X0338699Y0073483D02*
X0339466Y0073483D01*
X0339466Y0072716D01*
X0338699Y0072716D01*
X0338699Y0073483D01*
X0341001Y0073483D02*
X0341768Y0072716D01*
X0343303Y0072716D01*
X0344070Y0073483D01*
X0344070Y0074251D01*
X0343303Y0075018D01*
X0342535Y0075018D01*
X0343303Y0075018D02*
X0344070Y0075785D01*
X0344070Y0076553D01*
X0343303Y0077320D01*
X0341768Y0077320D01*
X0341001Y0076553D01*
X0345605Y0077320D02*
X0345605Y0074251D01*
X0347139Y0072716D01*
X0348674Y0074251D01*
X0348674Y0077320D01*
X0364304Y0076416D02*
X0364304Y0073347D01*
X0365071Y0072579D01*
X0366606Y0072579D01*
X0367373Y0073347D01*
X0367373Y0074881D01*
X0365839Y0074881D01*
X0367373Y0076416D02*
X0366606Y0077183D01*
X0365071Y0077183D01*
X0364304Y0076416D01*
X0368908Y0077183D02*
X0371977Y0072579D01*
X0371977Y0077183D01*
X0373512Y0077183D02*
X0375814Y0077183D01*
X0376581Y0076416D01*
X0376581Y0073347D01*
X0375814Y0072579D01*
X0373512Y0072579D01*
X0373512Y0077183D01*
X0368908Y0077183D02*
X0368908Y0072579D01*
X0373737Y0058586D02*
X0373737Y0055517D01*
X0375272Y0053983D01*
X0376806Y0055517D01*
X0376806Y0058586D01*
X0378341Y0057819D02*
X0378341Y0054750D01*
X0379108Y0053983D01*
X0380643Y0053983D01*
X0381410Y0054750D01*
X0382945Y0054750D02*
X0383712Y0053983D01*
X0385247Y0053983D01*
X0386014Y0054750D01*
X0387549Y0054750D02*
X0388316Y0053983D01*
X0389851Y0053983D01*
X0390618Y0054750D01*
X0390618Y0057819D01*
X0389851Y0058586D01*
X0388316Y0058586D01*
X0387549Y0057819D01*
X0387549Y0054750D01*
X0386014Y0057819D02*
X0385247Y0058586D01*
X0383712Y0058586D01*
X0382945Y0057819D01*
X0382945Y0054750D01*
X0381410Y0057819D02*
X0380643Y0058586D01*
X0379108Y0058586D01*
X0378341Y0057819D01*
X0377538Y0037802D02*
X0378305Y0037034D01*
X0378305Y0036267D01*
X0377538Y0035500D01*
X0378305Y0034732D01*
X0378305Y0033965D01*
X0377538Y0033198D01*
X0376003Y0033198D01*
X0375236Y0033965D01*
X0373701Y0033965D02*
X0373701Y0033198D01*
X0372934Y0033198D01*
X0372934Y0033965D01*
X0373701Y0033965D01*
X0371399Y0033965D02*
X0370632Y0033198D01*
X0369097Y0033198D01*
X0368330Y0033965D01*
X0366795Y0033198D02*
X0365261Y0033198D01*
X0365261Y0037802D01*
X0366795Y0037802D01*
X0368330Y0037034D02*
X0369097Y0037802D01*
X0370632Y0037802D01*
X0371399Y0037034D01*
X0371399Y0036267D01*
X0370632Y0035500D01*
X0371399Y0034732D01*
X0371399Y0033965D01*
X0370632Y0035500D02*
X0369865Y0035500D01*
X0375236Y0037034D02*
X0376003Y0037802D01*
X0377538Y0037802D01*
X0379840Y0037802D02*
X0379840Y0034732D01*
X0381375Y0033198D01*
X0382909Y0034732D01*
X0382909Y0037802D01*
X0384444Y0037802D02*
X0385978Y0037802D01*
X0385978Y0033198D01*
X0384444Y0033198D01*
X0377538Y0035500D02*
X0376771Y0035500D01*
X0337848Y0033471D02*
X0337848Y0038075D01*
X0336313Y0036540D01*
X0334778Y0038075D01*
X0334778Y0033471D01*
X0333244Y0034238D02*
X0333244Y0037308D01*
X0332476Y0038075D01*
X0330942Y0038075D01*
X0330174Y0037308D01*
X0330174Y0034238D01*
X0330942Y0033471D01*
X0332476Y0033471D01*
X0333244Y0034238D01*
X0328640Y0034238D02*
X0327872Y0033471D01*
X0326338Y0033471D01*
X0325570Y0034238D01*
X0325570Y0037308D01*
X0326338Y0038075D01*
X0327872Y0038075D01*
X0328640Y0037308D01*
X0324036Y0038075D02*
X0324036Y0035006D01*
X0322501Y0033471D01*
X0320967Y0035006D01*
X0320967Y0038075D01*
X0324887Y0075018D02*
X0326422Y0075018D01*
X0327956Y0077320D02*
X0324887Y0077320D01*
X0190593Y0248977D02*
X0189058Y0248977D01*
X0102004Y0261785D02*
X0100469Y0261785D01*
X0066257Y0128807D02*
X0066257Y0125304D01*
X0065090Y0125304D02*
X0067425Y0125304D01*
X0065090Y0127639D02*
X0066257Y0128807D01*
X0063834Y0128223D02*
X0063834Y0127055D01*
X0063250Y0126471D01*
X0061499Y0126471D01*
X0061499Y0125304D02*
X0061499Y0128807D01*
X0063250Y0128807D01*
X0063834Y0128223D01*
X0062666Y0126471D02*
X0063834Y0125304D01*
X0063250Y0108807D02*
X0063834Y0108223D01*
X0063834Y0107055D01*
X0063250Y0106471D01*
X0061499Y0106471D01*
X0061499Y0105304D02*
X0061499Y0108807D01*
X0063250Y0108807D01*
X0065090Y0108223D02*
X0065674Y0108807D01*
X0066841Y0108807D01*
X0067425Y0108223D01*
X0067425Y0107639D01*
X0065090Y0105304D01*
X0067425Y0105304D01*
X0063834Y0105304D02*
X0062666Y0106471D01*
X0063250Y0088807D02*
X0063834Y0088223D01*
X0063834Y0087055D01*
X0063250Y0086471D01*
X0061499Y0086471D01*
X0061499Y0085304D02*
X0061499Y0088807D01*
X0063250Y0088807D01*
X0065090Y0088223D02*
X0065674Y0088807D01*
X0066841Y0088807D01*
X0067425Y0088223D01*
X0067425Y0087639D01*
X0066841Y0087055D01*
X0067425Y0086471D01*
X0067425Y0085887D01*
X0066841Y0085304D01*
X0065674Y0085304D01*
X0065090Y0085887D01*
X0063834Y0085304D02*
X0062666Y0086471D01*
X0066257Y0087055D02*
X0066841Y0087055D01*
D13*
X0066854Y0051370D02*
X0067822Y0050402D01*
X0067822Y0049435D01*
X0066854Y0048467D01*
X0063952Y0048467D01*
X0061744Y0049435D02*
X0061744Y0050402D01*
X0060777Y0051370D01*
X0058842Y0051370D01*
X0057874Y0050402D01*
X0055667Y0048467D02*
X0055667Y0045565D01*
X0057874Y0045565D02*
X0061744Y0049435D01*
X0063952Y0051370D02*
X0063952Y0045565D01*
X0066854Y0045565D01*
X0067822Y0046532D01*
X0067822Y0047500D01*
X0066854Y0048467D01*
X0066854Y0051370D02*
X0063952Y0051370D01*
X0070029Y0048467D02*
X0070029Y0046532D01*
X0070996Y0045565D01*
X0072931Y0045565D01*
X0073899Y0046532D01*
X0073899Y0048467D01*
X0072931Y0049435D01*
X0070996Y0049435D01*
X0070029Y0048467D01*
X0076106Y0049435D02*
X0076106Y0045565D01*
X0076106Y0049435D02*
X0079009Y0049435D01*
X0079976Y0048467D01*
X0079976Y0045565D01*
X0082183Y0046532D02*
X0082183Y0048467D01*
X0083151Y0049435D01*
X0085086Y0049435D01*
X0086053Y0048467D01*
X0086053Y0047500D01*
X0082183Y0047500D01*
X0082183Y0046532D02*
X0083151Y0045565D01*
X0085086Y0045565D01*
X0081080Y0041470D02*
X0083015Y0039535D01*
X0083015Y0035665D01*
X0083015Y0038567D02*
X0079145Y0038567D01*
X0079145Y0039535D02*
X0081080Y0041470D01*
X0079145Y0039535D02*
X0079145Y0035665D01*
X0076937Y0036632D02*
X0075970Y0035665D01*
X0074035Y0035665D01*
X0073067Y0036632D01*
X0074035Y0038567D02*
X0075970Y0038567D01*
X0076937Y0037600D01*
X0076937Y0036632D01*
X0074035Y0038567D02*
X0073067Y0039535D01*
X0073067Y0040502D01*
X0074035Y0041470D01*
X0075970Y0041470D01*
X0076937Y0040502D01*
X0070860Y0038567D02*
X0066990Y0038567D01*
X0064783Y0036632D02*
X0063816Y0035665D01*
X0061881Y0035665D01*
X0060913Y0036632D01*
X0060913Y0040502D01*
X0061881Y0041470D01*
X0063816Y0041470D01*
X0064783Y0040502D01*
X0061744Y0045565D02*
X0057874Y0045565D01*
X0055667Y0048467D02*
X0054700Y0049435D01*
X0051797Y0049435D01*
X0051797Y0045565D01*
X0049590Y0045565D02*
X0049590Y0048467D01*
X0048623Y0049435D01*
X0046688Y0049435D01*
X0046688Y0047500D02*
X0049590Y0047500D01*
X0049590Y0045565D02*
X0046688Y0045565D01*
X0045720Y0046532D01*
X0046688Y0047500D01*
X0043604Y0049435D02*
X0041669Y0049435D01*
X0042636Y0050402D02*
X0042636Y0046532D01*
X0043604Y0045565D01*
X0042682Y0041470D02*
X0042682Y0040502D01*
X0044617Y0038567D01*
X0044617Y0035665D01*
X0044617Y0038567D02*
X0046552Y0040502D01*
X0046552Y0041470D01*
X0048759Y0038567D02*
X0052629Y0038567D01*
X0054836Y0035665D02*
X0054836Y0041470D01*
X0058706Y0035665D01*
X0058706Y0041470D01*
X0040474Y0040502D02*
X0040474Y0039535D01*
X0039507Y0038567D01*
X0036604Y0038567D01*
X0036604Y0035665D02*
X0039507Y0035665D01*
X0040474Y0036632D01*
X0040474Y0037600D01*
X0039507Y0038567D01*
X0040474Y0040502D02*
X0039507Y0041470D01*
X0036604Y0041470D01*
X0036604Y0035665D01*
X0028320Y0036632D02*
X0027352Y0035665D01*
X0025417Y0035665D01*
X0024450Y0036632D01*
X0024450Y0040502D01*
X0025417Y0041470D01*
X0027352Y0041470D01*
X0028320Y0040502D01*
X0024450Y0043630D02*
X0024450Y0049435D01*
X0027352Y0049435D01*
X0028320Y0048467D01*
X0028320Y0046532D01*
X0027352Y0045565D01*
X0024450Y0045565D01*
X0022243Y0046532D02*
X0021275Y0045565D01*
X0019340Y0045565D01*
X0018373Y0046532D01*
X0019340Y0048467D02*
X0021275Y0048467D01*
X0022243Y0047500D01*
X0022243Y0046532D01*
X0019340Y0048467D02*
X0018373Y0049435D01*
X0018373Y0050402D01*
X0019340Y0051370D01*
X0021275Y0051370D01*
X0022243Y0050402D01*
X0021275Y0041470D02*
X0019340Y0041470D01*
X0018373Y0040502D01*
X0018373Y0036632D01*
X0019340Y0035665D01*
X0021275Y0035665D01*
X0022243Y0036632D01*
X0022243Y0040502D02*
X0021275Y0041470D01*
X0030527Y0046532D02*
X0031495Y0047500D01*
X0034397Y0047500D01*
X0034397Y0048467D02*
X0034397Y0045565D01*
X0031495Y0045565D01*
X0030527Y0046532D01*
X0031495Y0049435D02*
X0033430Y0049435D01*
X0034397Y0048467D01*
X0036604Y0047500D02*
X0038539Y0049435D01*
X0039507Y0049435D01*
X0036604Y0049435D02*
X0036604Y0045565D01*
X0094338Y0045565D02*
X0098208Y0045565D01*
X0096273Y0045565D02*
X0096273Y0051370D01*
X0094338Y0049435D01*
X0100415Y0046532D02*
X0101382Y0046532D01*
X0101382Y0045565D01*
X0100415Y0045565D01*
X0100415Y0046532D01*
X0103453Y0046532D02*
X0103453Y0050402D01*
X0104421Y0051370D01*
X0106356Y0051370D01*
X0107323Y0050402D01*
X0103453Y0046532D01*
X0104421Y0045565D01*
X0106356Y0045565D01*
X0107323Y0046532D01*
X0107323Y0050402D01*
D14*
X0120797Y0053164D02*
X0133797Y0053164D01*
X0133884Y0053166D01*
X0133971Y0053172D01*
X0134058Y0053181D01*
X0134144Y0053194D01*
X0134230Y0053211D01*
X0134315Y0053232D01*
X0134398Y0053257D01*
X0134481Y0053285D01*
X0134562Y0053316D01*
X0134642Y0053351D01*
X0134720Y0053390D01*
X0134797Y0053432D01*
X0134872Y0053477D01*
X0134944Y0053526D01*
X0135015Y0053577D01*
X0135083Y0053632D01*
X0135148Y0053689D01*
X0135211Y0053750D01*
X0135272Y0053813D01*
X0135329Y0053878D01*
X0135384Y0053946D01*
X0135435Y0054017D01*
X0135484Y0054089D01*
X0135529Y0054164D01*
X0135571Y0054241D01*
X0135610Y0054319D01*
X0135645Y0054399D01*
X0135676Y0054480D01*
X0135704Y0054563D01*
X0135729Y0054646D01*
X0135750Y0054731D01*
X0135767Y0054817D01*
X0135780Y0054903D01*
X0135789Y0054990D01*
X0135795Y0055077D01*
X0135797Y0055164D01*
X0132297Y0057664D02*
X0128497Y0057664D01*
X0125997Y0057664D02*
X0122297Y0057664D01*
X0118797Y0060164D02*
X0118799Y0060251D01*
X0118805Y0060338D01*
X0118814Y0060425D01*
X0118827Y0060511D01*
X0118844Y0060597D01*
X0118865Y0060682D01*
X0118890Y0060765D01*
X0118918Y0060848D01*
X0118949Y0060929D01*
X0118984Y0061009D01*
X0119023Y0061087D01*
X0119065Y0061164D01*
X0119110Y0061239D01*
X0119159Y0061311D01*
X0119210Y0061382D01*
X0119265Y0061450D01*
X0119322Y0061515D01*
X0119383Y0061578D01*
X0119446Y0061639D01*
X0119511Y0061696D01*
X0119579Y0061751D01*
X0119650Y0061802D01*
X0119722Y0061851D01*
X0119797Y0061896D01*
X0119874Y0061938D01*
X0119952Y0061977D01*
X0120032Y0062012D01*
X0120113Y0062043D01*
X0120196Y0062071D01*
X0120279Y0062096D01*
X0120364Y0062117D01*
X0120450Y0062134D01*
X0120536Y0062147D01*
X0120623Y0062156D01*
X0120710Y0062162D01*
X0120797Y0062164D01*
X0133797Y0062164D01*
X0133884Y0062162D01*
X0133971Y0062156D01*
X0134058Y0062147D01*
X0134144Y0062134D01*
X0134230Y0062117D01*
X0134315Y0062096D01*
X0134398Y0062071D01*
X0134481Y0062043D01*
X0134562Y0062012D01*
X0134642Y0061977D01*
X0134720Y0061938D01*
X0134797Y0061896D01*
X0134872Y0061851D01*
X0134944Y0061802D01*
X0135015Y0061751D01*
X0135083Y0061696D01*
X0135148Y0061639D01*
X0135211Y0061578D01*
X0135272Y0061515D01*
X0135329Y0061450D01*
X0135384Y0061382D01*
X0135435Y0061311D01*
X0135484Y0061239D01*
X0135529Y0061164D01*
X0135571Y0061087D01*
X0135610Y0061009D01*
X0135645Y0060929D01*
X0135676Y0060848D01*
X0135704Y0060765D01*
X0135729Y0060682D01*
X0135750Y0060597D01*
X0135767Y0060511D01*
X0135780Y0060425D01*
X0135789Y0060338D01*
X0135795Y0060251D01*
X0135797Y0060164D01*
X0120797Y0053164D02*
X0120710Y0053166D01*
X0120623Y0053172D01*
X0120536Y0053181D01*
X0120450Y0053194D01*
X0120364Y0053211D01*
X0120279Y0053232D01*
X0120196Y0053257D01*
X0120113Y0053285D01*
X0120032Y0053316D01*
X0119952Y0053351D01*
X0119874Y0053390D01*
X0119797Y0053432D01*
X0119722Y0053477D01*
X0119650Y0053526D01*
X0119579Y0053577D01*
X0119511Y0053632D01*
X0119446Y0053689D01*
X0119383Y0053750D01*
X0119322Y0053813D01*
X0119265Y0053878D01*
X0119210Y0053946D01*
X0119159Y0054017D01*
X0119110Y0054089D01*
X0119065Y0054164D01*
X0119023Y0054241D01*
X0118984Y0054319D01*
X0118949Y0054399D01*
X0118918Y0054480D01*
X0118890Y0054563D01*
X0118865Y0054646D01*
X0118844Y0054731D01*
X0118827Y0054817D01*
X0118814Y0054903D01*
X0118805Y0054990D01*
X0118799Y0055077D01*
X0118797Y0055164D01*
X0121010Y0034940D02*
X0134010Y0034940D01*
X0134097Y0034938D01*
X0134184Y0034932D01*
X0134271Y0034923D01*
X0134357Y0034910D01*
X0134443Y0034893D01*
X0134528Y0034872D01*
X0134611Y0034847D01*
X0134694Y0034819D01*
X0134775Y0034788D01*
X0134855Y0034753D01*
X0134933Y0034714D01*
X0135010Y0034672D01*
X0135085Y0034627D01*
X0135157Y0034578D01*
X0135228Y0034527D01*
X0135296Y0034472D01*
X0135361Y0034415D01*
X0135424Y0034354D01*
X0135485Y0034291D01*
X0135542Y0034226D01*
X0135597Y0034158D01*
X0135648Y0034087D01*
X0135697Y0034015D01*
X0135742Y0033940D01*
X0135784Y0033863D01*
X0135823Y0033785D01*
X0135858Y0033705D01*
X0135889Y0033624D01*
X0135917Y0033541D01*
X0135942Y0033458D01*
X0135963Y0033373D01*
X0135980Y0033287D01*
X0135993Y0033201D01*
X0136002Y0033114D01*
X0136008Y0033027D01*
X0136010Y0032940D01*
X0132510Y0030440D02*
X0128710Y0030440D01*
X0126210Y0030440D02*
X0122510Y0030440D01*
X0119010Y0032940D02*
X0119012Y0033027D01*
X0119018Y0033114D01*
X0119027Y0033201D01*
X0119040Y0033287D01*
X0119057Y0033373D01*
X0119078Y0033458D01*
X0119103Y0033541D01*
X0119131Y0033624D01*
X0119162Y0033705D01*
X0119197Y0033785D01*
X0119236Y0033863D01*
X0119278Y0033940D01*
X0119323Y0034015D01*
X0119372Y0034087D01*
X0119423Y0034158D01*
X0119478Y0034226D01*
X0119535Y0034291D01*
X0119596Y0034354D01*
X0119659Y0034415D01*
X0119724Y0034472D01*
X0119792Y0034527D01*
X0119863Y0034578D01*
X0119935Y0034627D01*
X0120010Y0034672D01*
X0120087Y0034714D01*
X0120165Y0034753D01*
X0120245Y0034788D01*
X0120326Y0034819D01*
X0120409Y0034847D01*
X0120492Y0034872D01*
X0120577Y0034893D01*
X0120663Y0034910D01*
X0120749Y0034923D01*
X0120836Y0034932D01*
X0120923Y0034938D01*
X0121010Y0034940D01*
X0119010Y0027940D02*
X0119012Y0027853D01*
X0119018Y0027766D01*
X0119027Y0027679D01*
X0119040Y0027593D01*
X0119057Y0027507D01*
X0119078Y0027422D01*
X0119103Y0027339D01*
X0119131Y0027256D01*
X0119162Y0027175D01*
X0119197Y0027095D01*
X0119236Y0027017D01*
X0119278Y0026940D01*
X0119323Y0026865D01*
X0119372Y0026793D01*
X0119423Y0026722D01*
X0119478Y0026654D01*
X0119535Y0026589D01*
X0119596Y0026526D01*
X0119659Y0026465D01*
X0119724Y0026408D01*
X0119792Y0026353D01*
X0119863Y0026302D01*
X0119935Y0026253D01*
X0120010Y0026208D01*
X0120087Y0026166D01*
X0120165Y0026127D01*
X0120245Y0026092D01*
X0120326Y0026061D01*
X0120409Y0026033D01*
X0120492Y0026008D01*
X0120577Y0025987D01*
X0120663Y0025970D01*
X0120749Y0025957D01*
X0120836Y0025948D01*
X0120923Y0025942D01*
X0121010Y0025940D01*
X0134010Y0025940D01*
X0134097Y0025942D01*
X0134184Y0025948D01*
X0134271Y0025957D01*
X0134357Y0025970D01*
X0134443Y0025987D01*
X0134528Y0026008D01*
X0134611Y0026033D01*
X0134694Y0026061D01*
X0134775Y0026092D01*
X0134855Y0026127D01*
X0134933Y0026166D01*
X0135010Y0026208D01*
X0135085Y0026253D01*
X0135157Y0026302D01*
X0135228Y0026353D01*
X0135296Y0026408D01*
X0135361Y0026465D01*
X0135424Y0026526D01*
X0135485Y0026589D01*
X0135542Y0026654D01*
X0135597Y0026722D01*
X0135648Y0026793D01*
X0135697Y0026865D01*
X0135742Y0026940D01*
X0135784Y0027017D01*
X0135823Y0027095D01*
X0135858Y0027175D01*
X0135889Y0027256D01*
X0135917Y0027339D01*
X0135942Y0027422D01*
X0135963Y0027507D01*
X0135980Y0027593D01*
X0135993Y0027679D01*
X0136002Y0027766D01*
X0136008Y0027853D01*
X0136010Y0027940D01*
X0160891Y0030636D02*
X0160894Y0030881D01*
X0160903Y0031127D01*
X0160918Y0031372D01*
X0160939Y0031616D01*
X0160966Y0031860D01*
X0160999Y0032103D01*
X0161038Y0032346D01*
X0161083Y0032587D01*
X0161134Y0032827D01*
X0161191Y0033066D01*
X0161253Y0033303D01*
X0161322Y0033539D01*
X0161396Y0033773D01*
X0161476Y0034005D01*
X0161561Y0034235D01*
X0161652Y0034463D01*
X0161749Y0034688D01*
X0161851Y0034912D01*
X0161959Y0035132D01*
X0162072Y0035350D01*
X0162190Y0035565D01*
X0162314Y0035777D01*
X0162442Y0035986D01*
X0162576Y0036192D01*
X0162715Y0036394D01*
X0162859Y0036593D01*
X0163008Y0036788D01*
X0163161Y0036980D01*
X0163319Y0037168D01*
X0163481Y0037352D01*
X0163649Y0037531D01*
X0163820Y0037707D01*
X0163996Y0037878D01*
X0164175Y0038046D01*
X0164359Y0038208D01*
X0164547Y0038366D01*
X0164739Y0038519D01*
X0164934Y0038668D01*
X0165133Y0038812D01*
X0165335Y0038951D01*
X0165541Y0039085D01*
X0165750Y0039213D01*
X0165962Y0039337D01*
X0166177Y0039455D01*
X0166395Y0039568D01*
X0166615Y0039676D01*
X0166839Y0039778D01*
X0167064Y0039875D01*
X0167292Y0039966D01*
X0167522Y0040051D01*
X0167754Y0040131D01*
X0167988Y0040205D01*
X0168224Y0040274D01*
X0168461Y0040336D01*
X0168700Y0040393D01*
X0168940Y0040444D01*
X0169181Y0040489D01*
X0169424Y0040528D01*
X0169667Y0040561D01*
X0169911Y0040588D01*
X0170155Y0040609D01*
X0170400Y0040624D01*
X0170646Y0040633D01*
X0170891Y0040636D01*
X0171136Y0040633D01*
X0171382Y0040624D01*
X0171627Y0040609D01*
X0171871Y0040588D01*
X0172115Y0040561D01*
X0172358Y0040528D01*
X0172601Y0040489D01*
X0172842Y0040444D01*
X0173082Y0040393D01*
X0173321Y0040336D01*
X0173558Y0040274D01*
X0173794Y0040205D01*
X0174028Y0040131D01*
X0174260Y0040051D01*
X0174490Y0039966D01*
X0174718Y0039875D01*
X0174943Y0039778D01*
X0175167Y0039676D01*
X0175387Y0039568D01*
X0175605Y0039455D01*
X0175820Y0039337D01*
X0176032Y0039213D01*
X0176241Y0039085D01*
X0176447Y0038951D01*
X0176649Y0038812D01*
X0176848Y0038668D01*
X0177043Y0038519D01*
X0177235Y0038366D01*
X0177423Y0038208D01*
X0177607Y0038046D01*
X0177786Y0037878D01*
X0177962Y0037707D01*
X0178133Y0037531D01*
X0178301Y0037352D01*
X0178463Y0037168D01*
X0178621Y0036980D01*
X0178774Y0036788D01*
X0178923Y0036593D01*
X0179067Y0036394D01*
X0179206Y0036192D01*
X0179340Y0035986D01*
X0179468Y0035777D01*
X0179592Y0035565D01*
X0179710Y0035350D01*
X0179823Y0035132D01*
X0179931Y0034912D01*
X0180033Y0034688D01*
X0180130Y0034463D01*
X0180221Y0034235D01*
X0180306Y0034005D01*
X0180386Y0033773D01*
X0180460Y0033539D01*
X0180529Y0033303D01*
X0180591Y0033066D01*
X0180648Y0032827D01*
X0180699Y0032587D01*
X0180744Y0032346D01*
X0180783Y0032103D01*
X0180816Y0031860D01*
X0180843Y0031616D01*
X0180864Y0031372D01*
X0180879Y0031127D01*
X0180888Y0030881D01*
X0180891Y0030636D01*
X0180888Y0030391D01*
X0180879Y0030145D01*
X0180864Y0029900D01*
X0180843Y0029656D01*
X0180816Y0029412D01*
X0180783Y0029169D01*
X0180744Y0028926D01*
X0180699Y0028685D01*
X0180648Y0028445D01*
X0180591Y0028206D01*
X0180529Y0027969D01*
X0180460Y0027733D01*
X0180386Y0027499D01*
X0180306Y0027267D01*
X0180221Y0027037D01*
X0180130Y0026809D01*
X0180033Y0026584D01*
X0179931Y0026360D01*
X0179823Y0026140D01*
X0179710Y0025922D01*
X0179592Y0025707D01*
X0179468Y0025495D01*
X0179340Y0025286D01*
X0179206Y0025080D01*
X0179067Y0024878D01*
X0178923Y0024679D01*
X0178774Y0024484D01*
X0178621Y0024292D01*
X0178463Y0024104D01*
X0178301Y0023920D01*
X0178133Y0023741D01*
X0177962Y0023565D01*
X0177786Y0023394D01*
X0177607Y0023226D01*
X0177423Y0023064D01*
X0177235Y0022906D01*
X0177043Y0022753D01*
X0176848Y0022604D01*
X0176649Y0022460D01*
X0176447Y0022321D01*
X0176241Y0022187D01*
X0176032Y0022059D01*
X0175820Y0021935D01*
X0175605Y0021817D01*
X0175387Y0021704D01*
X0175167Y0021596D01*
X0174943Y0021494D01*
X0174718Y0021397D01*
X0174490Y0021306D01*
X0174260Y0021221D01*
X0174028Y0021141D01*
X0173794Y0021067D01*
X0173558Y0020998D01*
X0173321Y0020936D01*
X0173082Y0020879D01*
X0172842Y0020828D01*
X0172601Y0020783D01*
X0172358Y0020744D01*
X0172115Y0020711D01*
X0171871Y0020684D01*
X0171627Y0020663D01*
X0171382Y0020648D01*
X0171136Y0020639D01*
X0170891Y0020636D01*
X0170646Y0020639D01*
X0170400Y0020648D01*
X0170155Y0020663D01*
X0169911Y0020684D01*
X0169667Y0020711D01*
X0169424Y0020744D01*
X0169181Y0020783D01*
X0168940Y0020828D01*
X0168700Y0020879D01*
X0168461Y0020936D01*
X0168224Y0020998D01*
X0167988Y0021067D01*
X0167754Y0021141D01*
X0167522Y0021221D01*
X0167292Y0021306D01*
X0167064Y0021397D01*
X0166839Y0021494D01*
X0166615Y0021596D01*
X0166395Y0021704D01*
X0166177Y0021817D01*
X0165962Y0021935D01*
X0165750Y0022059D01*
X0165541Y0022187D01*
X0165335Y0022321D01*
X0165133Y0022460D01*
X0164934Y0022604D01*
X0164739Y0022753D01*
X0164547Y0022906D01*
X0164359Y0023064D01*
X0164175Y0023226D01*
X0163996Y0023394D01*
X0163820Y0023565D01*
X0163649Y0023741D01*
X0163481Y0023920D01*
X0163319Y0024104D01*
X0163161Y0024292D01*
X0163008Y0024484D01*
X0162859Y0024679D01*
X0162715Y0024878D01*
X0162576Y0025080D01*
X0162442Y0025286D01*
X0162314Y0025495D01*
X0162190Y0025707D01*
X0162072Y0025922D01*
X0161959Y0026140D01*
X0161851Y0026360D01*
X0161749Y0026584D01*
X0161652Y0026809D01*
X0161561Y0027037D01*
X0161476Y0027267D01*
X0161396Y0027499D01*
X0161322Y0027733D01*
X0161253Y0027969D01*
X0161191Y0028206D01*
X0161134Y0028445D01*
X0161083Y0028685D01*
X0161038Y0028926D01*
X0160999Y0029169D01*
X0160966Y0029412D01*
X0160939Y0029656D01*
X0160918Y0029900D01*
X0160903Y0030145D01*
X0160894Y0030391D01*
X0160891Y0030636D01*
X0175391Y0025636D02*
X0176391Y0025636D01*
X0176391Y0024636D01*
X0176391Y0025636D02*
X0176391Y0026636D01*
X0176391Y0025636D02*
X0177391Y0025636D01*
X0176257Y0051994D02*
X0176257Y0052994D01*
X0175257Y0052994D01*
X0176257Y0052994D02*
X0176257Y0053994D01*
X0176257Y0052994D02*
X0177257Y0052994D01*
X0160757Y0057994D02*
X0160760Y0058239D01*
X0160769Y0058485D01*
X0160784Y0058730D01*
X0160805Y0058974D01*
X0160832Y0059218D01*
X0160865Y0059461D01*
X0160904Y0059704D01*
X0160949Y0059945D01*
X0161000Y0060185D01*
X0161057Y0060424D01*
X0161119Y0060661D01*
X0161188Y0060897D01*
X0161262Y0061131D01*
X0161342Y0061363D01*
X0161427Y0061593D01*
X0161518Y0061821D01*
X0161615Y0062046D01*
X0161717Y0062270D01*
X0161825Y0062490D01*
X0161938Y0062708D01*
X0162056Y0062923D01*
X0162180Y0063135D01*
X0162308Y0063344D01*
X0162442Y0063550D01*
X0162581Y0063752D01*
X0162725Y0063951D01*
X0162874Y0064146D01*
X0163027Y0064338D01*
X0163185Y0064526D01*
X0163347Y0064710D01*
X0163515Y0064889D01*
X0163686Y0065065D01*
X0163862Y0065236D01*
X0164041Y0065404D01*
X0164225Y0065566D01*
X0164413Y0065724D01*
X0164605Y0065877D01*
X0164800Y0066026D01*
X0164999Y0066170D01*
X0165201Y0066309D01*
X0165407Y0066443D01*
X0165616Y0066571D01*
X0165828Y0066695D01*
X0166043Y0066813D01*
X0166261Y0066926D01*
X0166481Y0067034D01*
X0166705Y0067136D01*
X0166930Y0067233D01*
X0167158Y0067324D01*
X0167388Y0067409D01*
X0167620Y0067489D01*
X0167854Y0067563D01*
X0168090Y0067632D01*
X0168327Y0067694D01*
X0168566Y0067751D01*
X0168806Y0067802D01*
X0169047Y0067847D01*
X0169290Y0067886D01*
X0169533Y0067919D01*
X0169777Y0067946D01*
X0170021Y0067967D01*
X0170266Y0067982D01*
X0170512Y0067991D01*
X0170757Y0067994D01*
X0171002Y0067991D01*
X0171248Y0067982D01*
X0171493Y0067967D01*
X0171737Y0067946D01*
X0171981Y0067919D01*
X0172224Y0067886D01*
X0172467Y0067847D01*
X0172708Y0067802D01*
X0172948Y0067751D01*
X0173187Y0067694D01*
X0173424Y0067632D01*
X0173660Y0067563D01*
X0173894Y0067489D01*
X0174126Y0067409D01*
X0174356Y0067324D01*
X0174584Y0067233D01*
X0174809Y0067136D01*
X0175033Y0067034D01*
X0175253Y0066926D01*
X0175471Y0066813D01*
X0175686Y0066695D01*
X0175898Y0066571D01*
X0176107Y0066443D01*
X0176313Y0066309D01*
X0176515Y0066170D01*
X0176714Y0066026D01*
X0176909Y0065877D01*
X0177101Y0065724D01*
X0177289Y0065566D01*
X0177473Y0065404D01*
X0177652Y0065236D01*
X0177828Y0065065D01*
X0177999Y0064889D01*
X0178167Y0064710D01*
X0178329Y0064526D01*
X0178487Y0064338D01*
X0178640Y0064146D01*
X0178789Y0063951D01*
X0178933Y0063752D01*
X0179072Y0063550D01*
X0179206Y0063344D01*
X0179334Y0063135D01*
X0179458Y0062923D01*
X0179576Y0062708D01*
X0179689Y0062490D01*
X0179797Y0062270D01*
X0179899Y0062046D01*
X0179996Y0061821D01*
X0180087Y0061593D01*
X0180172Y0061363D01*
X0180252Y0061131D01*
X0180326Y0060897D01*
X0180395Y0060661D01*
X0180457Y0060424D01*
X0180514Y0060185D01*
X0180565Y0059945D01*
X0180610Y0059704D01*
X0180649Y0059461D01*
X0180682Y0059218D01*
X0180709Y0058974D01*
X0180730Y0058730D01*
X0180745Y0058485D01*
X0180754Y0058239D01*
X0180757Y0057994D01*
X0180754Y0057749D01*
X0180745Y0057503D01*
X0180730Y0057258D01*
X0180709Y0057014D01*
X0180682Y0056770D01*
X0180649Y0056527D01*
X0180610Y0056284D01*
X0180565Y0056043D01*
X0180514Y0055803D01*
X0180457Y0055564D01*
X0180395Y0055327D01*
X0180326Y0055091D01*
X0180252Y0054857D01*
X0180172Y0054625D01*
X0180087Y0054395D01*
X0179996Y0054167D01*
X0179899Y0053942D01*
X0179797Y0053718D01*
X0179689Y0053498D01*
X0179576Y0053280D01*
X0179458Y0053065D01*
X0179334Y0052853D01*
X0179206Y0052644D01*
X0179072Y0052438D01*
X0178933Y0052236D01*
X0178789Y0052037D01*
X0178640Y0051842D01*
X0178487Y0051650D01*
X0178329Y0051462D01*
X0178167Y0051278D01*
X0177999Y0051099D01*
X0177828Y0050923D01*
X0177652Y0050752D01*
X0177473Y0050584D01*
X0177289Y0050422D01*
X0177101Y0050264D01*
X0176909Y0050111D01*
X0176714Y0049962D01*
X0176515Y0049818D01*
X0176313Y0049679D01*
X0176107Y0049545D01*
X0175898Y0049417D01*
X0175686Y0049293D01*
X0175471Y0049175D01*
X0175253Y0049062D01*
X0175033Y0048954D01*
X0174809Y0048852D01*
X0174584Y0048755D01*
X0174356Y0048664D01*
X0174126Y0048579D01*
X0173894Y0048499D01*
X0173660Y0048425D01*
X0173424Y0048356D01*
X0173187Y0048294D01*
X0172948Y0048237D01*
X0172708Y0048186D01*
X0172467Y0048141D01*
X0172224Y0048102D01*
X0171981Y0048069D01*
X0171737Y0048042D01*
X0171493Y0048021D01*
X0171248Y0048006D01*
X0171002Y0047997D01*
X0170757Y0047994D01*
X0170512Y0047997D01*
X0170266Y0048006D01*
X0170021Y0048021D01*
X0169777Y0048042D01*
X0169533Y0048069D01*
X0169290Y0048102D01*
X0169047Y0048141D01*
X0168806Y0048186D01*
X0168566Y0048237D01*
X0168327Y0048294D01*
X0168090Y0048356D01*
X0167854Y0048425D01*
X0167620Y0048499D01*
X0167388Y0048579D01*
X0167158Y0048664D01*
X0166930Y0048755D01*
X0166705Y0048852D01*
X0166481Y0048954D01*
X0166261Y0049062D01*
X0166043Y0049175D01*
X0165828Y0049293D01*
X0165616Y0049417D01*
X0165407Y0049545D01*
X0165201Y0049679D01*
X0164999Y0049818D01*
X0164800Y0049962D01*
X0164605Y0050111D01*
X0164413Y0050264D01*
X0164225Y0050422D01*
X0164041Y0050584D01*
X0163862Y0050752D01*
X0163686Y0050923D01*
X0163515Y0051099D01*
X0163347Y0051278D01*
X0163185Y0051462D01*
X0163027Y0051650D01*
X0162874Y0051842D01*
X0162725Y0052037D01*
X0162581Y0052236D01*
X0162442Y0052438D01*
X0162308Y0052644D01*
X0162180Y0052853D01*
X0162056Y0053065D01*
X0161938Y0053280D01*
X0161825Y0053498D01*
X0161717Y0053718D01*
X0161615Y0053942D01*
X0161518Y0054167D01*
X0161427Y0054395D01*
X0161342Y0054625D01*
X0161262Y0054857D01*
X0161188Y0055091D01*
X0161119Y0055327D01*
X0161057Y0055564D01*
X0161000Y0055803D01*
X0160949Y0056043D01*
X0160904Y0056284D01*
X0160865Y0056527D01*
X0160832Y0056770D01*
X0160805Y0057014D01*
X0160784Y0057258D01*
X0160769Y0057503D01*
X0160760Y0057749D01*
X0160757Y0057994D01*
X0162261Y0092623D02*
X0175261Y0092623D01*
X0175348Y0092625D01*
X0175435Y0092631D01*
X0175522Y0092640D01*
X0175608Y0092653D01*
X0175694Y0092670D01*
X0175779Y0092691D01*
X0175862Y0092716D01*
X0175945Y0092744D01*
X0176026Y0092775D01*
X0176106Y0092810D01*
X0176184Y0092849D01*
X0176261Y0092891D01*
X0176336Y0092936D01*
X0176408Y0092985D01*
X0176479Y0093036D01*
X0176547Y0093091D01*
X0176612Y0093148D01*
X0176675Y0093209D01*
X0176736Y0093272D01*
X0176793Y0093337D01*
X0176848Y0093405D01*
X0176899Y0093476D01*
X0176948Y0093548D01*
X0176993Y0093623D01*
X0177035Y0093700D01*
X0177074Y0093778D01*
X0177109Y0093858D01*
X0177140Y0093939D01*
X0177168Y0094022D01*
X0177193Y0094105D01*
X0177214Y0094190D01*
X0177231Y0094276D01*
X0177244Y0094362D01*
X0177253Y0094449D01*
X0177259Y0094536D01*
X0177261Y0094623D01*
X0173761Y0097123D02*
X0170061Y0097123D01*
X0167561Y0097123D02*
X0163761Y0097123D01*
X0160261Y0099623D02*
X0160263Y0099710D01*
X0160269Y0099797D01*
X0160278Y0099884D01*
X0160291Y0099970D01*
X0160308Y0100056D01*
X0160329Y0100141D01*
X0160354Y0100224D01*
X0160382Y0100307D01*
X0160413Y0100388D01*
X0160448Y0100468D01*
X0160487Y0100546D01*
X0160529Y0100623D01*
X0160574Y0100698D01*
X0160623Y0100770D01*
X0160674Y0100841D01*
X0160729Y0100909D01*
X0160786Y0100974D01*
X0160847Y0101037D01*
X0160910Y0101098D01*
X0160975Y0101155D01*
X0161043Y0101210D01*
X0161114Y0101261D01*
X0161186Y0101310D01*
X0161261Y0101355D01*
X0161338Y0101397D01*
X0161416Y0101436D01*
X0161496Y0101471D01*
X0161577Y0101502D01*
X0161660Y0101530D01*
X0161743Y0101555D01*
X0161828Y0101576D01*
X0161914Y0101593D01*
X0162000Y0101606D01*
X0162087Y0101615D01*
X0162174Y0101621D01*
X0162261Y0101623D01*
X0175261Y0101623D01*
X0175348Y0101621D01*
X0175435Y0101615D01*
X0175522Y0101606D01*
X0175608Y0101593D01*
X0175694Y0101576D01*
X0175779Y0101555D01*
X0175862Y0101530D01*
X0175945Y0101502D01*
X0176026Y0101471D01*
X0176106Y0101436D01*
X0176184Y0101397D01*
X0176261Y0101355D01*
X0176336Y0101310D01*
X0176408Y0101261D01*
X0176479Y0101210D01*
X0176547Y0101155D01*
X0176612Y0101098D01*
X0176675Y0101037D01*
X0176736Y0100974D01*
X0176793Y0100909D01*
X0176848Y0100841D01*
X0176899Y0100770D01*
X0176948Y0100698D01*
X0176993Y0100623D01*
X0177035Y0100546D01*
X0177074Y0100468D01*
X0177109Y0100388D01*
X0177140Y0100307D01*
X0177168Y0100224D01*
X0177193Y0100141D01*
X0177214Y0100056D01*
X0177231Y0099970D01*
X0177244Y0099884D01*
X0177253Y0099797D01*
X0177259Y0099710D01*
X0177261Y0099623D01*
X0162261Y0092623D02*
X0162174Y0092625D01*
X0162087Y0092631D01*
X0162000Y0092640D01*
X0161914Y0092653D01*
X0161828Y0092670D01*
X0161743Y0092691D01*
X0161660Y0092716D01*
X0161577Y0092744D01*
X0161496Y0092775D01*
X0161416Y0092810D01*
X0161338Y0092849D01*
X0161261Y0092891D01*
X0161186Y0092936D01*
X0161114Y0092985D01*
X0161043Y0093036D01*
X0160975Y0093091D01*
X0160910Y0093148D01*
X0160847Y0093209D01*
X0160786Y0093272D01*
X0160729Y0093337D01*
X0160674Y0093405D01*
X0160623Y0093476D01*
X0160574Y0093548D01*
X0160529Y0093623D01*
X0160487Y0093700D01*
X0160448Y0093778D01*
X0160413Y0093858D01*
X0160382Y0093939D01*
X0160354Y0094022D01*
X0160329Y0094105D01*
X0160308Y0094190D01*
X0160291Y0094276D01*
X0160278Y0094362D01*
X0160269Y0094449D01*
X0160263Y0094536D01*
X0160261Y0094623D01*
X0194162Y0094564D02*
X0194164Y0094477D01*
X0194170Y0094390D01*
X0194179Y0094303D01*
X0194192Y0094217D01*
X0194209Y0094131D01*
X0194230Y0094046D01*
X0194255Y0093963D01*
X0194283Y0093880D01*
X0194314Y0093799D01*
X0194349Y0093719D01*
X0194388Y0093641D01*
X0194430Y0093564D01*
X0194475Y0093489D01*
X0194524Y0093417D01*
X0194575Y0093346D01*
X0194630Y0093278D01*
X0194687Y0093213D01*
X0194748Y0093150D01*
X0194811Y0093089D01*
X0194876Y0093032D01*
X0194944Y0092977D01*
X0195015Y0092926D01*
X0195087Y0092877D01*
X0195162Y0092832D01*
X0195239Y0092790D01*
X0195317Y0092751D01*
X0195397Y0092716D01*
X0195478Y0092685D01*
X0195561Y0092657D01*
X0195644Y0092632D01*
X0195729Y0092611D01*
X0195815Y0092594D01*
X0195901Y0092581D01*
X0195988Y0092572D01*
X0196075Y0092566D01*
X0196162Y0092564D01*
X0209162Y0092564D01*
X0209249Y0092566D01*
X0209336Y0092572D01*
X0209423Y0092581D01*
X0209509Y0092594D01*
X0209595Y0092611D01*
X0209680Y0092632D01*
X0209763Y0092657D01*
X0209846Y0092685D01*
X0209927Y0092716D01*
X0210007Y0092751D01*
X0210085Y0092790D01*
X0210162Y0092832D01*
X0210237Y0092877D01*
X0210309Y0092926D01*
X0210380Y0092977D01*
X0210448Y0093032D01*
X0210513Y0093089D01*
X0210576Y0093150D01*
X0210637Y0093213D01*
X0210694Y0093278D01*
X0210749Y0093346D01*
X0210800Y0093417D01*
X0210849Y0093489D01*
X0210894Y0093564D01*
X0210936Y0093641D01*
X0210975Y0093719D01*
X0211010Y0093799D01*
X0211041Y0093880D01*
X0211069Y0093963D01*
X0211094Y0094046D01*
X0211115Y0094131D01*
X0211132Y0094217D01*
X0211145Y0094303D01*
X0211154Y0094390D01*
X0211160Y0094477D01*
X0211162Y0094564D01*
X0207662Y0097064D02*
X0203862Y0097064D01*
X0201362Y0097064D02*
X0197662Y0097064D01*
X0194162Y0099564D02*
X0194164Y0099651D01*
X0194170Y0099738D01*
X0194179Y0099825D01*
X0194192Y0099911D01*
X0194209Y0099997D01*
X0194230Y0100082D01*
X0194255Y0100165D01*
X0194283Y0100248D01*
X0194314Y0100329D01*
X0194349Y0100409D01*
X0194388Y0100487D01*
X0194430Y0100564D01*
X0194475Y0100639D01*
X0194524Y0100711D01*
X0194575Y0100782D01*
X0194630Y0100850D01*
X0194687Y0100915D01*
X0194748Y0100978D01*
X0194811Y0101039D01*
X0194876Y0101096D01*
X0194944Y0101151D01*
X0195015Y0101202D01*
X0195087Y0101251D01*
X0195162Y0101296D01*
X0195239Y0101338D01*
X0195317Y0101377D01*
X0195397Y0101412D01*
X0195478Y0101443D01*
X0195561Y0101471D01*
X0195644Y0101496D01*
X0195729Y0101517D01*
X0195815Y0101534D01*
X0195901Y0101547D01*
X0195988Y0101556D01*
X0196075Y0101562D01*
X0196162Y0101564D01*
X0209162Y0101564D01*
X0209249Y0101562D01*
X0209336Y0101556D01*
X0209423Y0101547D01*
X0209509Y0101534D01*
X0209595Y0101517D01*
X0209680Y0101496D01*
X0209763Y0101471D01*
X0209846Y0101443D01*
X0209927Y0101412D01*
X0210007Y0101377D01*
X0210085Y0101338D01*
X0210162Y0101296D01*
X0210237Y0101251D01*
X0210309Y0101202D01*
X0210380Y0101151D01*
X0210448Y0101096D01*
X0210513Y0101039D01*
X0210576Y0100978D01*
X0210637Y0100915D01*
X0210694Y0100850D01*
X0210749Y0100782D01*
X0210800Y0100711D01*
X0210849Y0100639D01*
X0210894Y0100564D01*
X0210936Y0100487D01*
X0210975Y0100409D01*
X0211010Y0100329D01*
X0211041Y0100248D01*
X0211069Y0100165D01*
X0211094Y0100082D01*
X0211115Y0099997D01*
X0211132Y0099911D01*
X0211145Y0099825D01*
X0211154Y0099738D01*
X0211160Y0099651D01*
X0211162Y0099564D01*
X0207944Y0089086D02*
X0208444Y0088586D01*
X0217444Y0088586D01*
X0217944Y0089086D01*
X0218944Y0089086D01*
X0219004Y0089084D01*
X0219065Y0089079D01*
X0219124Y0089070D01*
X0219183Y0089057D01*
X0219242Y0089041D01*
X0219299Y0089021D01*
X0219354Y0088998D01*
X0219409Y0088971D01*
X0219461Y0088942D01*
X0219512Y0088909D01*
X0219561Y0088873D01*
X0219607Y0088835D01*
X0219651Y0088793D01*
X0219693Y0088749D01*
X0219731Y0088703D01*
X0219767Y0088654D01*
X0219800Y0088603D01*
X0219829Y0088551D01*
X0219856Y0088496D01*
X0219879Y0088441D01*
X0219899Y0088384D01*
X0219915Y0088325D01*
X0219928Y0088266D01*
X0219937Y0088207D01*
X0219942Y0088146D01*
X0219944Y0088086D01*
X0219944Y0083086D02*
X0219942Y0083026D01*
X0219937Y0082965D01*
X0219928Y0082906D01*
X0219915Y0082847D01*
X0219899Y0082788D01*
X0219879Y0082731D01*
X0219856Y0082676D01*
X0219829Y0082621D01*
X0219800Y0082569D01*
X0219767Y0082518D01*
X0219731Y0082469D01*
X0219693Y0082423D01*
X0219651Y0082379D01*
X0219607Y0082337D01*
X0219561Y0082299D01*
X0219512Y0082263D01*
X0219461Y0082230D01*
X0219409Y0082201D01*
X0219354Y0082174D01*
X0219299Y0082151D01*
X0219242Y0082131D01*
X0219183Y0082115D01*
X0219124Y0082102D01*
X0219065Y0082093D01*
X0219004Y0082088D01*
X0218944Y0082086D01*
X0217944Y0082086D01*
X0217444Y0082586D01*
X0208444Y0082586D01*
X0207944Y0082086D01*
X0206944Y0082086D01*
X0206884Y0082088D01*
X0206823Y0082093D01*
X0206764Y0082102D01*
X0206705Y0082115D01*
X0206646Y0082131D01*
X0206589Y0082151D01*
X0206534Y0082174D01*
X0206479Y0082201D01*
X0206427Y0082230D01*
X0206376Y0082263D01*
X0206327Y0082299D01*
X0206281Y0082337D01*
X0206237Y0082379D01*
X0206195Y0082423D01*
X0206157Y0082469D01*
X0206121Y0082518D01*
X0206088Y0082569D01*
X0206059Y0082621D01*
X0206032Y0082676D01*
X0206009Y0082731D01*
X0205989Y0082788D01*
X0205973Y0082847D01*
X0205960Y0082906D01*
X0205951Y0082965D01*
X0205946Y0083026D01*
X0205944Y0083086D01*
X0205944Y0088086D02*
X0205946Y0088146D01*
X0205951Y0088207D01*
X0205960Y0088266D01*
X0205973Y0088325D01*
X0205989Y0088384D01*
X0206009Y0088441D01*
X0206032Y0088496D01*
X0206059Y0088551D01*
X0206088Y0088603D01*
X0206121Y0088654D01*
X0206157Y0088703D01*
X0206195Y0088749D01*
X0206237Y0088793D01*
X0206281Y0088835D01*
X0206327Y0088873D01*
X0206376Y0088909D01*
X0206427Y0088942D01*
X0206479Y0088971D01*
X0206534Y0088998D01*
X0206589Y0089021D01*
X0206646Y0089041D01*
X0206705Y0089057D01*
X0206764Y0089070D01*
X0206823Y0089079D01*
X0206884Y0089084D01*
X0206944Y0089086D01*
X0207944Y0089086D01*
X0223671Y0137501D02*
X0226171Y0137501D01*
X0226171Y0140001D01*
X0273611Y0157377D02*
X0286611Y0157377D01*
X0286698Y0157379D01*
X0286785Y0157385D01*
X0286872Y0157394D01*
X0286958Y0157407D01*
X0287044Y0157424D01*
X0287129Y0157445D01*
X0287212Y0157470D01*
X0287295Y0157498D01*
X0287376Y0157529D01*
X0287456Y0157564D01*
X0287534Y0157603D01*
X0287611Y0157645D01*
X0287686Y0157690D01*
X0287758Y0157739D01*
X0287829Y0157790D01*
X0287897Y0157845D01*
X0287962Y0157902D01*
X0288025Y0157963D01*
X0288086Y0158026D01*
X0288143Y0158091D01*
X0288198Y0158159D01*
X0288249Y0158230D01*
X0288298Y0158302D01*
X0288343Y0158377D01*
X0288385Y0158454D01*
X0288424Y0158532D01*
X0288459Y0158612D01*
X0288490Y0158693D01*
X0288518Y0158776D01*
X0288543Y0158859D01*
X0288564Y0158944D01*
X0288581Y0159030D01*
X0288594Y0159116D01*
X0288603Y0159203D01*
X0288609Y0159290D01*
X0288611Y0159377D01*
X0285111Y0161877D02*
X0281411Y0161877D01*
X0278911Y0161877D02*
X0275111Y0161877D01*
X0271611Y0164377D02*
X0271613Y0164464D01*
X0271619Y0164551D01*
X0271628Y0164638D01*
X0271641Y0164724D01*
X0271658Y0164810D01*
X0271679Y0164895D01*
X0271704Y0164978D01*
X0271732Y0165061D01*
X0271763Y0165142D01*
X0271798Y0165222D01*
X0271837Y0165300D01*
X0271879Y0165377D01*
X0271924Y0165452D01*
X0271973Y0165524D01*
X0272024Y0165595D01*
X0272079Y0165663D01*
X0272136Y0165728D01*
X0272197Y0165791D01*
X0272260Y0165852D01*
X0272325Y0165909D01*
X0272393Y0165964D01*
X0272464Y0166015D01*
X0272536Y0166064D01*
X0272611Y0166109D01*
X0272688Y0166151D01*
X0272766Y0166190D01*
X0272846Y0166225D01*
X0272927Y0166256D01*
X0273010Y0166284D01*
X0273093Y0166309D01*
X0273178Y0166330D01*
X0273264Y0166347D01*
X0273350Y0166360D01*
X0273437Y0166369D01*
X0273524Y0166375D01*
X0273611Y0166377D01*
X0286611Y0166377D01*
X0286698Y0166375D01*
X0286785Y0166369D01*
X0286872Y0166360D01*
X0286958Y0166347D01*
X0287044Y0166330D01*
X0287129Y0166309D01*
X0287212Y0166284D01*
X0287295Y0166256D01*
X0287376Y0166225D01*
X0287456Y0166190D01*
X0287534Y0166151D01*
X0287611Y0166109D01*
X0287686Y0166064D01*
X0287758Y0166015D01*
X0287829Y0165964D01*
X0287897Y0165909D01*
X0287962Y0165852D01*
X0288025Y0165791D01*
X0288086Y0165728D01*
X0288143Y0165663D01*
X0288198Y0165595D01*
X0288249Y0165524D01*
X0288298Y0165452D01*
X0288343Y0165377D01*
X0288385Y0165300D01*
X0288424Y0165222D01*
X0288459Y0165142D01*
X0288490Y0165061D01*
X0288518Y0164978D01*
X0288543Y0164895D01*
X0288564Y0164810D01*
X0288581Y0164724D01*
X0288594Y0164638D01*
X0288603Y0164551D01*
X0288609Y0164464D01*
X0288611Y0164377D01*
X0273611Y0157377D02*
X0273524Y0157379D01*
X0273437Y0157385D01*
X0273350Y0157394D01*
X0273264Y0157407D01*
X0273178Y0157424D01*
X0273093Y0157445D01*
X0273010Y0157470D01*
X0272927Y0157498D01*
X0272846Y0157529D01*
X0272766Y0157564D01*
X0272688Y0157603D01*
X0272611Y0157645D01*
X0272536Y0157690D01*
X0272464Y0157739D01*
X0272393Y0157790D01*
X0272325Y0157845D01*
X0272260Y0157902D01*
X0272197Y0157963D01*
X0272136Y0158026D01*
X0272079Y0158091D01*
X0272024Y0158159D01*
X0271973Y0158230D01*
X0271924Y0158302D01*
X0271879Y0158377D01*
X0271837Y0158454D01*
X0271798Y0158532D01*
X0271763Y0158612D01*
X0271732Y0158693D01*
X0271704Y0158776D01*
X0271679Y0158859D01*
X0271658Y0158944D01*
X0271641Y0159030D01*
X0271628Y0159116D01*
X0271619Y0159203D01*
X0271613Y0159290D01*
X0271611Y0159377D01*
X0273641Y0179461D02*
X0286641Y0179461D01*
X0286728Y0179463D01*
X0286815Y0179469D01*
X0286902Y0179478D01*
X0286988Y0179491D01*
X0287074Y0179508D01*
X0287159Y0179529D01*
X0287242Y0179554D01*
X0287325Y0179582D01*
X0287406Y0179613D01*
X0287486Y0179648D01*
X0287564Y0179687D01*
X0287641Y0179729D01*
X0287716Y0179774D01*
X0287788Y0179823D01*
X0287859Y0179874D01*
X0287927Y0179929D01*
X0287992Y0179986D01*
X0288055Y0180047D01*
X0288116Y0180110D01*
X0288173Y0180175D01*
X0288228Y0180243D01*
X0288279Y0180314D01*
X0288328Y0180386D01*
X0288373Y0180461D01*
X0288415Y0180538D01*
X0288454Y0180616D01*
X0288489Y0180696D01*
X0288520Y0180777D01*
X0288548Y0180860D01*
X0288573Y0180943D01*
X0288594Y0181028D01*
X0288611Y0181114D01*
X0288624Y0181200D01*
X0288633Y0181287D01*
X0288639Y0181374D01*
X0288641Y0181461D01*
X0285141Y0183961D02*
X0281441Y0183961D01*
X0278941Y0183961D02*
X0275141Y0183961D01*
X0271641Y0181461D02*
X0271643Y0181374D01*
X0271649Y0181287D01*
X0271658Y0181200D01*
X0271671Y0181114D01*
X0271688Y0181028D01*
X0271709Y0180943D01*
X0271734Y0180860D01*
X0271762Y0180777D01*
X0271793Y0180696D01*
X0271828Y0180616D01*
X0271867Y0180538D01*
X0271909Y0180461D01*
X0271954Y0180386D01*
X0272003Y0180314D01*
X0272054Y0180243D01*
X0272109Y0180175D01*
X0272166Y0180110D01*
X0272227Y0180047D01*
X0272290Y0179986D01*
X0272355Y0179929D01*
X0272423Y0179874D01*
X0272494Y0179823D01*
X0272566Y0179774D01*
X0272641Y0179729D01*
X0272718Y0179687D01*
X0272796Y0179648D01*
X0272876Y0179613D01*
X0272957Y0179582D01*
X0273040Y0179554D01*
X0273123Y0179529D01*
X0273208Y0179508D01*
X0273294Y0179491D01*
X0273380Y0179478D01*
X0273467Y0179469D01*
X0273554Y0179463D01*
X0273641Y0179461D01*
X0271641Y0186461D02*
X0271643Y0186548D01*
X0271649Y0186635D01*
X0271658Y0186722D01*
X0271671Y0186808D01*
X0271688Y0186894D01*
X0271709Y0186979D01*
X0271734Y0187062D01*
X0271762Y0187145D01*
X0271793Y0187226D01*
X0271828Y0187306D01*
X0271867Y0187384D01*
X0271909Y0187461D01*
X0271954Y0187536D01*
X0272003Y0187608D01*
X0272054Y0187679D01*
X0272109Y0187747D01*
X0272166Y0187812D01*
X0272227Y0187875D01*
X0272290Y0187936D01*
X0272355Y0187993D01*
X0272423Y0188048D01*
X0272494Y0188099D01*
X0272566Y0188148D01*
X0272641Y0188193D01*
X0272718Y0188235D01*
X0272796Y0188274D01*
X0272876Y0188309D01*
X0272957Y0188340D01*
X0273040Y0188368D01*
X0273123Y0188393D01*
X0273208Y0188414D01*
X0273294Y0188431D01*
X0273380Y0188444D01*
X0273467Y0188453D01*
X0273554Y0188459D01*
X0273641Y0188461D01*
X0286641Y0188461D01*
X0286728Y0188459D01*
X0286815Y0188453D01*
X0286902Y0188444D01*
X0286988Y0188431D01*
X0287074Y0188414D01*
X0287159Y0188393D01*
X0287242Y0188368D01*
X0287325Y0188340D01*
X0287406Y0188309D01*
X0287486Y0188274D01*
X0287564Y0188235D01*
X0287641Y0188193D01*
X0287716Y0188148D01*
X0287788Y0188099D01*
X0287859Y0188048D01*
X0287927Y0187993D01*
X0287992Y0187936D01*
X0288055Y0187875D01*
X0288116Y0187812D01*
X0288173Y0187747D01*
X0288228Y0187679D01*
X0288279Y0187608D01*
X0288328Y0187536D01*
X0288373Y0187461D01*
X0288415Y0187384D01*
X0288454Y0187306D01*
X0288489Y0187226D01*
X0288520Y0187145D01*
X0288548Y0187062D01*
X0288573Y0186979D01*
X0288594Y0186894D01*
X0288611Y0186808D01*
X0288624Y0186722D01*
X0288633Y0186635D01*
X0288639Y0186548D01*
X0288641Y0186461D01*
X0247382Y0213530D02*
X0234382Y0213530D01*
X0234295Y0213532D01*
X0234208Y0213538D01*
X0234121Y0213547D01*
X0234035Y0213560D01*
X0233949Y0213577D01*
X0233864Y0213598D01*
X0233781Y0213623D01*
X0233698Y0213651D01*
X0233617Y0213682D01*
X0233537Y0213717D01*
X0233459Y0213756D01*
X0233382Y0213798D01*
X0233307Y0213843D01*
X0233235Y0213892D01*
X0233164Y0213943D01*
X0233096Y0213998D01*
X0233031Y0214055D01*
X0232968Y0214116D01*
X0232907Y0214179D01*
X0232850Y0214244D01*
X0232795Y0214312D01*
X0232744Y0214383D01*
X0232695Y0214455D01*
X0232650Y0214530D01*
X0232608Y0214607D01*
X0232569Y0214685D01*
X0232534Y0214765D01*
X0232503Y0214846D01*
X0232475Y0214929D01*
X0232450Y0215012D01*
X0232429Y0215097D01*
X0232412Y0215183D01*
X0232399Y0215269D01*
X0232390Y0215356D01*
X0232384Y0215443D01*
X0232382Y0215530D01*
X0235882Y0218030D02*
X0239682Y0218030D01*
X0242182Y0218030D02*
X0245882Y0218030D01*
X0249382Y0215530D02*
X0249380Y0215443D01*
X0249374Y0215356D01*
X0249365Y0215269D01*
X0249352Y0215183D01*
X0249335Y0215097D01*
X0249314Y0215012D01*
X0249289Y0214929D01*
X0249261Y0214846D01*
X0249230Y0214765D01*
X0249195Y0214685D01*
X0249156Y0214607D01*
X0249114Y0214530D01*
X0249069Y0214455D01*
X0249020Y0214383D01*
X0248969Y0214312D01*
X0248914Y0214244D01*
X0248857Y0214179D01*
X0248796Y0214116D01*
X0248733Y0214055D01*
X0248668Y0213998D01*
X0248600Y0213943D01*
X0248529Y0213892D01*
X0248457Y0213843D01*
X0248382Y0213798D01*
X0248305Y0213756D01*
X0248227Y0213717D01*
X0248147Y0213682D01*
X0248066Y0213651D01*
X0247983Y0213623D01*
X0247900Y0213598D01*
X0247815Y0213577D01*
X0247729Y0213560D01*
X0247643Y0213547D01*
X0247556Y0213538D01*
X0247469Y0213532D01*
X0247382Y0213530D01*
X0249382Y0220530D02*
X0249380Y0220617D01*
X0249374Y0220704D01*
X0249365Y0220791D01*
X0249352Y0220877D01*
X0249335Y0220963D01*
X0249314Y0221048D01*
X0249289Y0221131D01*
X0249261Y0221214D01*
X0249230Y0221295D01*
X0249195Y0221375D01*
X0249156Y0221453D01*
X0249114Y0221530D01*
X0249069Y0221605D01*
X0249020Y0221677D01*
X0248969Y0221748D01*
X0248914Y0221816D01*
X0248857Y0221881D01*
X0248796Y0221944D01*
X0248733Y0222005D01*
X0248668Y0222062D01*
X0248600Y0222117D01*
X0248529Y0222168D01*
X0248457Y0222217D01*
X0248382Y0222262D01*
X0248305Y0222304D01*
X0248227Y0222343D01*
X0248147Y0222378D01*
X0248066Y0222409D01*
X0247983Y0222437D01*
X0247900Y0222462D01*
X0247815Y0222483D01*
X0247729Y0222500D01*
X0247643Y0222513D01*
X0247556Y0222522D01*
X0247469Y0222528D01*
X0247382Y0222530D01*
X0234382Y0222530D01*
X0234295Y0222528D01*
X0234208Y0222522D01*
X0234121Y0222513D01*
X0234035Y0222500D01*
X0233949Y0222483D01*
X0233864Y0222462D01*
X0233781Y0222437D01*
X0233698Y0222409D01*
X0233617Y0222378D01*
X0233537Y0222343D01*
X0233459Y0222304D01*
X0233382Y0222262D01*
X0233307Y0222217D01*
X0233235Y0222168D01*
X0233164Y0222117D01*
X0233096Y0222062D01*
X0233031Y0222005D01*
X0232968Y0221944D01*
X0232907Y0221881D01*
X0232850Y0221816D01*
X0232795Y0221748D01*
X0232744Y0221677D01*
X0232695Y0221605D01*
X0232650Y0221530D01*
X0232608Y0221453D01*
X0232569Y0221375D01*
X0232534Y0221295D01*
X0232503Y0221214D01*
X0232475Y0221131D01*
X0232450Y0221048D01*
X0232429Y0220963D01*
X0232412Y0220877D01*
X0232399Y0220791D01*
X0232390Y0220704D01*
X0232384Y0220617D01*
X0232382Y0220530D01*
X0226171Y0193501D02*
X0223671Y0193501D01*
X0226171Y0193501D02*
X0226171Y0191001D01*
X0172671Y0193501D02*
X0170171Y0193501D01*
X0170171Y0191001D01*
X0170384Y0213535D02*
X0157384Y0213535D01*
X0157297Y0213537D01*
X0157210Y0213543D01*
X0157123Y0213552D01*
X0157037Y0213565D01*
X0156951Y0213582D01*
X0156866Y0213603D01*
X0156783Y0213628D01*
X0156700Y0213656D01*
X0156619Y0213687D01*
X0156539Y0213722D01*
X0156461Y0213761D01*
X0156384Y0213803D01*
X0156309Y0213848D01*
X0156237Y0213897D01*
X0156166Y0213948D01*
X0156098Y0214003D01*
X0156033Y0214060D01*
X0155970Y0214121D01*
X0155909Y0214184D01*
X0155852Y0214249D01*
X0155797Y0214317D01*
X0155746Y0214388D01*
X0155697Y0214460D01*
X0155652Y0214535D01*
X0155610Y0214612D01*
X0155571Y0214690D01*
X0155536Y0214770D01*
X0155505Y0214851D01*
X0155477Y0214934D01*
X0155452Y0215017D01*
X0155431Y0215102D01*
X0155414Y0215188D01*
X0155401Y0215274D01*
X0155392Y0215361D01*
X0155386Y0215448D01*
X0155384Y0215535D01*
X0158884Y0218035D02*
X0162584Y0218035D01*
X0165084Y0218035D02*
X0168884Y0218035D01*
X0172384Y0220535D02*
X0172382Y0220622D01*
X0172376Y0220709D01*
X0172367Y0220796D01*
X0172354Y0220882D01*
X0172337Y0220968D01*
X0172316Y0221053D01*
X0172291Y0221136D01*
X0172263Y0221219D01*
X0172232Y0221300D01*
X0172197Y0221380D01*
X0172158Y0221458D01*
X0172116Y0221535D01*
X0172071Y0221610D01*
X0172022Y0221682D01*
X0171971Y0221753D01*
X0171916Y0221821D01*
X0171859Y0221886D01*
X0171798Y0221949D01*
X0171735Y0222010D01*
X0171670Y0222067D01*
X0171602Y0222122D01*
X0171531Y0222173D01*
X0171459Y0222222D01*
X0171384Y0222267D01*
X0171307Y0222309D01*
X0171229Y0222348D01*
X0171149Y0222383D01*
X0171068Y0222414D01*
X0170985Y0222442D01*
X0170902Y0222467D01*
X0170817Y0222488D01*
X0170731Y0222505D01*
X0170645Y0222518D01*
X0170558Y0222527D01*
X0170471Y0222533D01*
X0170384Y0222535D01*
X0157384Y0222535D01*
X0157297Y0222533D01*
X0157210Y0222527D01*
X0157123Y0222518D01*
X0157037Y0222505D01*
X0156951Y0222488D01*
X0156866Y0222467D01*
X0156783Y0222442D01*
X0156700Y0222414D01*
X0156619Y0222383D01*
X0156539Y0222348D01*
X0156461Y0222309D01*
X0156384Y0222267D01*
X0156309Y0222222D01*
X0156237Y0222173D01*
X0156166Y0222122D01*
X0156098Y0222067D01*
X0156033Y0222010D01*
X0155970Y0221949D01*
X0155909Y0221886D01*
X0155852Y0221821D01*
X0155797Y0221753D01*
X0155746Y0221682D01*
X0155697Y0221610D01*
X0155652Y0221535D01*
X0155610Y0221458D01*
X0155571Y0221380D01*
X0155536Y0221300D01*
X0155505Y0221219D01*
X0155477Y0221136D01*
X0155452Y0221053D01*
X0155431Y0220968D01*
X0155414Y0220882D01*
X0155401Y0220796D01*
X0155392Y0220709D01*
X0155386Y0220622D01*
X0155384Y0220535D01*
X0170384Y0213535D02*
X0170471Y0213537D01*
X0170558Y0213543D01*
X0170645Y0213552D01*
X0170731Y0213565D01*
X0170817Y0213582D01*
X0170902Y0213603D01*
X0170985Y0213628D01*
X0171068Y0213656D01*
X0171149Y0213687D01*
X0171229Y0213722D01*
X0171307Y0213761D01*
X0171384Y0213803D01*
X0171459Y0213848D01*
X0171531Y0213897D01*
X0171602Y0213948D01*
X0171670Y0214003D01*
X0171735Y0214060D01*
X0171798Y0214121D01*
X0171859Y0214184D01*
X0171916Y0214249D01*
X0171971Y0214317D01*
X0172022Y0214388D01*
X0172071Y0214460D01*
X0172116Y0214535D01*
X0172158Y0214612D01*
X0172197Y0214690D01*
X0172232Y0214770D01*
X0172263Y0214851D01*
X0172291Y0214934D01*
X0172316Y0215017D01*
X0172337Y0215102D01*
X0172354Y0215188D01*
X0172367Y0215274D01*
X0172376Y0215361D01*
X0172382Y0215448D01*
X0172384Y0215535D01*
X0133085Y0190382D02*
X0133085Y0177382D01*
X0133083Y0177295D01*
X0133077Y0177208D01*
X0133068Y0177121D01*
X0133055Y0177035D01*
X0133038Y0176949D01*
X0133017Y0176864D01*
X0132992Y0176781D01*
X0132964Y0176698D01*
X0132933Y0176617D01*
X0132898Y0176537D01*
X0132859Y0176459D01*
X0132817Y0176382D01*
X0132772Y0176307D01*
X0132723Y0176235D01*
X0132672Y0176164D01*
X0132617Y0176096D01*
X0132560Y0176031D01*
X0132499Y0175968D01*
X0132436Y0175907D01*
X0132371Y0175850D01*
X0132303Y0175795D01*
X0132232Y0175744D01*
X0132160Y0175695D01*
X0132085Y0175650D01*
X0132008Y0175608D01*
X0131930Y0175569D01*
X0131850Y0175534D01*
X0131769Y0175503D01*
X0131686Y0175475D01*
X0131603Y0175450D01*
X0131518Y0175429D01*
X0131432Y0175412D01*
X0131346Y0175399D01*
X0131259Y0175390D01*
X0131172Y0175384D01*
X0131085Y0175382D01*
X0128585Y0178882D02*
X0128585Y0182582D01*
X0128585Y0185082D02*
X0128585Y0188882D01*
X0126085Y0192382D02*
X0125998Y0192380D01*
X0125911Y0192374D01*
X0125824Y0192365D01*
X0125738Y0192352D01*
X0125652Y0192335D01*
X0125567Y0192314D01*
X0125484Y0192289D01*
X0125401Y0192261D01*
X0125320Y0192230D01*
X0125240Y0192195D01*
X0125162Y0192156D01*
X0125085Y0192114D01*
X0125010Y0192069D01*
X0124938Y0192020D01*
X0124867Y0191969D01*
X0124799Y0191914D01*
X0124734Y0191857D01*
X0124671Y0191796D01*
X0124610Y0191733D01*
X0124553Y0191668D01*
X0124498Y0191600D01*
X0124447Y0191529D01*
X0124398Y0191457D01*
X0124353Y0191382D01*
X0124311Y0191305D01*
X0124272Y0191227D01*
X0124237Y0191147D01*
X0124206Y0191066D01*
X0124178Y0190983D01*
X0124153Y0190900D01*
X0124132Y0190815D01*
X0124115Y0190729D01*
X0124102Y0190643D01*
X0124093Y0190556D01*
X0124087Y0190469D01*
X0124085Y0190382D01*
X0124085Y0177382D01*
X0124087Y0177295D01*
X0124093Y0177208D01*
X0124102Y0177121D01*
X0124115Y0177035D01*
X0124132Y0176949D01*
X0124153Y0176864D01*
X0124178Y0176781D01*
X0124206Y0176698D01*
X0124237Y0176617D01*
X0124272Y0176537D01*
X0124311Y0176459D01*
X0124353Y0176382D01*
X0124398Y0176307D01*
X0124447Y0176235D01*
X0124498Y0176164D01*
X0124553Y0176096D01*
X0124610Y0176031D01*
X0124671Y0175968D01*
X0124734Y0175907D01*
X0124799Y0175850D01*
X0124867Y0175795D01*
X0124938Y0175744D01*
X0125010Y0175695D01*
X0125085Y0175650D01*
X0125162Y0175608D01*
X0125240Y0175569D01*
X0125320Y0175534D01*
X0125401Y0175503D01*
X0125484Y0175475D01*
X0125567Y0175450D01*
X0125652Y0175429D01*
X0125738Y0175412D01*
X0125824Y0175399D01*
X0125911Y0175390D01*
X0125998Y0175384D01*
X0126085Y0175382D01*
X0133085Y0190382D02*
X0133083Y0190469D01*
X0133077Y0190556D01*
X0133068Y0190643D01*
X0133055Y0190729D01*
X0133038Y0190815D01*
X0133017Y0190900D01*
X0132992Y0190983D01*
X0132964Y0191066D01*
X0132933Y0191147D01*
X0132898Y0191227D01*
X0132859Y0191305D01*
X0132817Y0191382D01*
X0132772Y0191457D01*
X0132723Y0191529D01*
X0132672Y0191600D01*
X0132617Y0191668D01*
X0132560Y0191733D01*
X0132499Y0191796D01*
X0132436Y0191857D01*
X0132371Y0191914D01*
X0132303Y0191969D01*
X0132232Y0192020D01*
X0132160Y0192069D01*
X0132085Y0192114D01*
X0132008Y0192156D01*
X0131930Y0192195D01*
X0131850Y0192230D01*
X0131769Y0192261D01*
X0131686Y0192289D01*
X0131603Y0192314D01*
X0131518Y0192335D01*
X0131432Y0192352D01*
X0131346Y0192365D01*
X0131259Y0192374D01*
X0131172Y0192380D01*
X0131085Y0192382D01*
X0131071Y0159108D02*
X0131158Y0159106D01*
X0131245Y0159100D01*
X0131332Y0159091D01*
X0131418Y0159078D01*
X0131504Y0159061D01*
X0131589Y0159040D01*
X0131672Y0159015D01*
X0131755Y0158987D01*
X0131836Y0158956D01*
X0131916Y0158921D01*
X0131994Y0158882D01*
X0132071Y0158840D01*
X0132146Y0158795D01*
X0132218Y0158746D01*
X0132289Y0158695D01*
X0132357Y0158640D01*
X0132422Y0158583D01*
X0132485Y0158522D01*
X0132546Y0158459D01*
X0132603Y0158394D01*
X0132658Y0158326D01*
X0132709Y0158255D01*
X0132758Y0158183D01*
X0132803Y0158108D01*
X0132845Y0158031D01*
X0132884Y0157953D01*
X0132919Y0157873D01*
X0132950Y0157792D01*
X0132978Y0157709D01*
X0133003Y0157626D01*
X0133024Y0157541D01*
X0133041Y0157455D01*
X0133054Y0157369D01*
X0133063Y0157282D01*
X0133069Y0157195D01*
X0133071Y0157108D01*
X0133071Y0144108D01*
X0133069Y0144021D01*
X0133063Y0143934D01*
X0133054Y0143847D01*
X0133041Y0143761D01*
X0133024Y0143675D01*
X0133003Y0143590D01*
X0132978Y0143507D01*
X0132950Y0143424D01*
X0132919Y0143343D01*
X0132884Y0143263D01*
X0132845Y0143185D01*
X0132803Y0143108D01*
X0132758Y0143033D01*
X0132709Y0142961D01*
X0132658Y0142890D01*
X0132603Y0142822D01*
X0132546Y0142757D01*
X0132485Y0142694D01*
X0132422Y0142633D01*
X0132357Y0142576D01*
X0132289Y0142521D01*
X0132218Y0142470D01*
X0132146Y0142421D01*
X0132071Y0142376D01*
X0131994Y0142334D01*
X0131916Y0142295D01*
X0131836Y0142260D01*
X0131755Y0142229D01*
X0131672Y0142201D01*
X0131589Y0142176D01*
X0131504Y0142155D01*
X0131418Y0142138D01*
X0131332Y0142125D01*
X0131245Y0142116D01*
X0131158Y0142110D01*
X0131071Y0142108D01*
X0128571Y0145608D02*
X0128571Y0149408D01*
X0128571Y0151908D02*
X0128571Y0155608D01*
X0126071Y0159108D02*
X0125984Y0159106D01*
X0125897Y0159100D01*
X0125810Y0159091D01*
X0125724Y0159078D01*
X0125638Y0159061D01*
X0125553Y0159040D01*
X0125470Y0159015D01*
X0125387Y0158987D01*
X0125306Y0158956D01*
X0125226Y0158921D01*
X0125148Y0158882D01*
X0125071Y0158840D01*
X0124996Y0158795D01*
X0124924Y0158746D01*
X0124853Y0158695D01*
X0124785Y0158640D01*
X0124720Y0158583D01*
X0124657Y0158522D01*
X0124596Y0158459D01*
X0124539Y0158394D01*
X0124484Y0158326D01*
X0124433Y0158255D01*
X0124384Y0158183D01*
X0124339Y0158108D01*
X0124297Y0158031D01*
X0124258Y0157953D01*
X0124223Y0157873D01*
X0124192Y0157792D01*
X0124164Y0157709D01*
X0124139Y0157626D01*
X0124118Y0157541D01*
X0124101Y0157455D01*
X0124088Y0157369D01*
X0124079Y0157282D01*
X0124073Y0157195D01*
X0124071Y0157108D01*
X0124071Y0144108D01*
X0124073Y0144021D01*
X0124079Y0143934D01*
X0124088Y0143847D01*
X0124101Y0143761D01*
X0124118Y0143675D01*
X0124139Y0143590D01*
X0124164Y0143507D01*
X0124192Y0143424D01*
X0124223Y0143343D01*
X0124258Y0143263D01*
X0124297Y0143185D01*
X0124339Y0143108D01*
X0124384Y0143033D01*
X0124433Y0142961D01*
X0124484Y0142890D01*
X0124539Y0142822D01*
X0124596Y0142757D01*
X0124657Y0142694D01*
X0124720Y0142633D01*
X0124785Y0142576D01*
X0124853Y0142521D01*
X0124924Y0142470D01*
X0124996Y0142421D01*
X0125071Y0142376D01*
X0125148Y0142334D01*
X0125226Y0142295D01*
X0125306Y0142260D01*
X0125387Y0142229D01*
X0125470Y0142201D01*
X0125553Y0142176D01*
X0125638Y0142155D01*
X0125724Y0142138D01*
X0125810Y0142125D01*
X0125897Y0142116D01*
X0125984Y0142110D01*
X0126071Y0142108D01*
X0170171Y0140001D02*
X0170171Y0137501D01*
X0172671Y0137501D01*
X0075199Y0124004D02*
X0074199Y0124004D01*
X0073699Y0123504D01*
X0064699Y0123504D01*
X0064199Y0124004D01*
X0063199Y0124004D01*
X0063139Y0124002D01*
X0063078Y0123997D01*
X0063019Y0123988D01*
X0062960Y0123975D01*
X0062901Y0123959D01*
X0062844Y0123939D01*
X0062789Y0123916D01*
X0062734Y0123889D01*
X0062682Y0123860D01*
X0062631Y0123827D01*
X0062582Y0123791D01*
X0062536Y0123753D01*
X0062492Y0123711D01*
X0062450Y0123667D01*
X0062412Y0123621D01*
X0062376Y0123572D01*
X0062343Y0123521D01*
X0062314Y0123469D01*
X0062287Y0123414D01*
X0062264Y0123359D01*
X0062244Y0123302D01*
X0062228Y0123243D01*
X0062215Y0123184D01*
X0062206Y0123125D01*
X0062201Y0123064D01*
X0062199Y0123004D01*
X0062199Y0118004D02*
X0062201Y0117944D01*
X0062206Y0117883D01*
X0062215Y0117824D01*
X0062228Y0117765D01*
X0062244Y0117706D01*
X0062264Y0117649D01*
X0062287Y0117594D01*
X0062314Y0117539D01*
X0062343Y0117487D01*
X0062376Y0117436D01*
X0062412Y0117387D01*
X0062450Y0117341D01*
X0062492Y0117297D01*
X0062536Y0117255D01*
X0062582Y0117217D01*
X0062631Y0117181D01*
X0062682Y0117148D01*
X0062734Y0117119D01*
X0062789Y0117092D01*
X0062844Y0117069D01*
X0062901Y0117049D01*
X0062960Y0117033D01*
X0063019Y0117020D01*
X0063078Y0117011D01*
X0063139Y0117006D01*
X0063199Y0117004D01*
X0064199Y0117004D01*
X0064699Y0117504D01*
X0073699Y0117504D01*
X0074199Y0117004D01*
X0075199Y0117004D01*
X0075259Y0117006D01*
X0075320Y0117011D01*
X0075379Y0117020D01*
X0075438Y0117033D01*
X0075497Y0117049D01*
X0075554Y0117069D01*
X0075609Y0117092D01*
X0075664Y0117119D01*
X0075716Y0117148D01*
X0075767Y0117181D01*
X0075816Y0117217D01*
X0075862Y0117255D01*
X0075906Y0117297D01*
X0075948Y0117341D01*
X0075986Y0117387D01*
X0076022Y0117436D01*
X0076055Y0117487D01*
X0076084Y0117539D01*
X0076111Y0117594D01*
X0076134Y0117649D01*
X0076154Y0117706D01*
X0076170Y0117765D01*
X0076183Y0117824D01*
X0076192Y0117883D01*
X0076197Y0117944D01*
X0076199Y0118004D01*
X0076199Y0123004D02*
X0076197Y0123064D01*
X0076192Y0123125D01*
X0076183Y0123184D01*
X0076170Y0123243D01*
X0076154Y0123302D01*
X0076134Y0123359D01*
X0076111Y0123414D01*
X0076084Y0123469D01*
X0076055Y0123521D01*
X0076022Y0123572D01*
X0075986Y0123621D01*
X0075948Y0123667D01*
X0075906Y0123711D01*
X0075862Y0123753D01*
X0075816Y0123791D01*
X0075767Y0123827D01*
X0075716Y0123860D01*
X0075664Y0123889D01*
X0075609Y0123916D01*
X0075554Y0123939D01*
X0075497Y0123959D01*
X0075438Y0123975D01*
X0075379Y0123988D01*
X0075320Y0123997D01*
X0075259Y0124002D01*
X0075199Y0124004D01*
X0075199Y0104004D02*
X0074199Y0104004D01*
X0073699Y0103504D01*
X0064699Y0103504D01*
X0064199Y0104004D01*
X0063199Y0104004D01*
X0063139Y0104002D01*
X0063078Y0103997D01*
X0063019Y0103988D01*
X0062960Y0103975D01*
X0062901Y0103959D01*
X0062844Y0103939D01*
X0062789Y0103916D01*
X0062734Y0103889D01*
X0062682Y0103860D01*
X0062631Y0103827D01*
X0062582Y0103791D01*
X0062536Y0103753D01*
X0062492Y0103711D01*
X0062450Y0103667D01*
X0062412Y0103621D01*
X0062376Y0103572D01*
X0062343Y0103521D01*
X0062314Y0103469D01*
X0062287Y0103414D01*
X0062264Y0103359D01*
X0062244Y0103302D01*
X0062228Y0103243D01*
X0062215Y0103184D01*
X0062206Y0103125D01*
X0062201Y0103064D01*
X0062199Y0103004D01*
X0062199Y0098004D02*
X0062201Y0097944D01*
X0062206Y0097883D01*
X0062215Y0097824D01*
X0062228Y0097765D01*
X0062244Y0097706D01*
X0062264Y0097649D01*
X0062287Y0097594D01*
X0062314Y0097539D01*
X0062343Y0097487D01*
X0062376Y0097436D01*
X0062412Y0097387D01*
X0062450Y0097341D01*
X0062492Y0097297D01*
X0062536Y0097255D01*
X0062582Y0097217D01*
X0062631Y0097181D01*
X0062682Y0097148D01*
X0062734Y0097119D01*
X0062789Y0097092D01*
X0062844Y0097069D01*
X0062901Y0097049D01*
X0062960Y0097033D01*
X0063019Y0097020D01*
X0063078Y0097011D01*
X0063139Y0097006D01*
X0063199Y0097004D01*
X0064199Y0097004D01*
X0064699Y0097504D01*
X0073699Y0097504D01*
X0074199Y0097004D01*
X0075199Y0097004D01*
X0075259Y0097006D01*
X0075320Y0097011D01*
X0075379Y0097020D01*
X0075438Y0097033D01*
X0075497Y0097049D01*
X0075554Y0097069D01*
X0075609Y0097092D01*
X0075664Y0097119D01*
X0075716Y0097148D01*
X0075767Y0097181D01*
X0075816Y0097217D01*
X0075862Y0097255D01*
X0075906Y0097297D01*
X0075948Y0097341D01*
X0075986Y0097387D01*
X0076022Y0097436D01*
X0076055Y0097487D01*
X0076084Y0097539D01*
X0076111Y0097594D01*
X0076134Y0097649D01*
X0076154Y0097706D01*
X0076170Y0097765D01*
X0076183Y0097824D01*
X0076192Y0097883D01*
X0076197Y0097944D01*
X0076199Y0098004D01*
X0076199Y0103004D02*
X0076197Y0103064D01*
X0076192Y0103125D01*
X0076183Y0103184D01*
X0076170Y0103243D01*
X0076154Y0103302D01*
X0076134Y0103359D01*
X0076111Y0103414D01*
X0076084Y0103469D01*
X0076055Y0103521D01*
X0076022Y0103572D01*
X0075986Y0103621D01*
X0075948Y0103667D01*
X0075906Y0103711D01*
X0075862Y0103753D01*
X0075816Y0103791D01*
X0075767Y0103827D01*
X0075716Y0103860D01*
X0075664Y0103889D01*
X0075609Y0103916D01*
X0075554Y0103939D01*
X0075497Y0103959D01*
X0075438Y0103975D01*
X0075379Y0103988D01*
X0075320Y0103997D01*
X0075259Y0104002D01*
X0075199Y0104004D01*
X0075199Y0084004D02*
X0074199Y0084004D01*
X0073699Y0083504D01*
X0064699Y0083504D01*
X0064199Y0084004D01*
X0063199Y0084004D01*
X0063139Y0084002D01*
X0063078Y0083997D01*
X0063019Y0083988D01*
X0062960Y0083975D01*
X0062901Y0083959D01*
X0062844Y0083939D01*
X0062789Y0083916D01*
X0062734Y0083889D01*
X0062682Y0083860D01*
X0062631Y0083827D01*
X0062582Y0083791D01*
X0062536Y0083753D01*
X0062492Y0083711D01*
X0062450Y0083667D01*
X0062412Y0083621D01*
X0062376Y0083572D01*
X0062343Y0083521D01*
X0062314Y0083469D01*
X0062287Y0083414D01*
X0062264Y0083359D01*
X0062244Y0083302D01*
X0062228Y0083243D01*
X0062215Y0083184D01*
X0062206Y0083125D01*
X0062201Y0083064D01*
X0062199Y0083004D01*
X0062199Y0078004D02*
X0062201Y0077944D01*
X0062206Y0077883D01*
X0062215Y0077824D01*
X0062228Y0077765D01*
X0062244Y0077706D01*
X0062264Y0077649D01*
X0062287Y0077594D01*
X0062314Y0077539D01*
X0062343Y0077487D01*
X0062376Y0077436D01*
X0062412Y0077387D01*
X0062450Y0077341D01*
X0062492Y0077297D01*
X0062536Y0077255D01*
X0062582Y0077217D01*
X0062631Y0077181D01*
X0062682Y0077148D01*
X0062734Y0077119D01*
X0062789Y0077092D01*
X0062844Y0077069D01*
X0062901Y0077049D01*
X0062960Y0077033D01*
X0063019Y0077020D01*
X0063078Y0077011D01*
X0063139Y0077006D01*
X0063199Y0077004D01*
X0064199Y0077004D01*
X0064699Y0077504D01*
X0073699Y0077504D01*
X0074199Y0077004D01*
X0075199Y0077004D01*
X0075259Y0077006D01*
X0075320Y0077011D01*
X0075379Y0077020D01*
X0075438Y0077033D01*
X0075497Y0077049D01*
X0075554Y0077069D01*
X0075609Y0077092D01*
X0075664Y0077119D01*
X0075716Y0077148D01*
X0075767Y0077181D01*
X0075816Y0077217D01*
X0075862Y0077255D01*
X0075906Y0077297D01*
X0075948Y0077341D01*
X0075986Y0077387D01*
X0076022Y0077436D01*
X0076055Y0077487D01*
X0076084Y0077539D01*
X0076111Y0077594D01*
X0076134Y0077649D01*
X0076154Y0077706D01*
X0076170Y0077765D01*
X0076183Y0077824D01*
X0076192Y0077883D01*
X0076197Y0077944D01*
X0076199Y0078004D01*
X0076199Y0083004D02*
X0076197Y0083064D01*
X0076192Y0083125D01*
X0076183Y0083184D01*
X0076170Y0083243D01*
X0076154Y0083302D01*
X0076134Y0083359D01*
X0076111Y0083414D01*
X0076084Y0083469D01*
X0076055Y0083521D01*
X0076022Y0083572D01*
X0075986Y0083621D01*
X0075948Y0083667D01*
X0075906Y0083711D01*
X0075862Y0083753D01*
X0075816Y0083791D01*
X0075767Y0083827D01*
X0075716Y0083860D01*
X0075664Y0083889D01*
X0075609Y0083916D01*
X0075554Y0083939D01*
X0075497Y0083959D01*
X0075438Y0083975D01*
X0075379Y0083988D01*
X0075320Y0083997D01*
X0075259Y0084002D01*
X0075199Y0084004D01*
X0050964Y0084560D02*
X0050964Y0076560D01*
X0049964Y0075560D01*
X0041964Y0075560D01*
X0040964Y0076560D01*
X0039964Y0075560D01*
X0031964Y0075560D01*
X0030964Y0076560D01*
X0030964Y0084560D01*
X0031964Y0085560D01*
X0039964Y0085560D01*
X0040964Y0084560D01*
X0041964Y0085560D01*
X0049964Y0085560D01*
X0050964Y0084560D01*
X0049964Y0095560D02*
X0041964Y0095560D01*
X0040964Y0096560D01*
X0039964Y0095560D01*
X0031964Y0095560D01*
X0030964Y0096560D01*
X0030964Y0104560D01*
X0031964Y0105560D01*
X0039964Y0105560D01*
X0040964Y0104560D01*
X0041964Y0105560D01*
X0049964Y0105560D01*
X0050964Y0104560D01*
X0050964Y0096560D01*
X0049964Y0095560D01*
X0049964Y0115560D02*
X0041964Y0115560D01*
X0040964Y0116560D01*
X0039964Y0115560D01*
X0031964Y0115560D01*
X0030964Y0116560D01*
X0030964Y0124560D01*
X0031964Y0125560D01*
X0039964Y0125560D01*
X0040964Y0124560D01*
X0041964Y0125560D01*
X0049964Y0125560D01*
X0050964Y0124560D01*
X0050964Y0116560D01*
X0049964Y0115560D01*
X0041072Y0264692D02*
X0206072Y0264692D01*
X0206170Y0264694D01*
X0206268Y0264700D01*
X0206366Y0264709D01*
X0206463Y0264723D01*
X0206560Y0264740D01*
X0206656Y0264761D01*
X0206751Y0264786D01*
X0206845Y0264814D01*
X0206937Y0264847D01*
X0207029Y0264882D01*
X0207119Y0264922D01*
X0207207Y0264964D01*
X0207294Y0265011D01*
X0207378Y0265060D01*
X0207461Y0265113D01*
X0207541Y0265169D01*
X0207620Y0265229D01*
X0207696Y0265291D01*
X0207769Y0265356D01*
X0207840Y0265424D01*
X0207908Y0265495D01*
X0207973Y0265568D01*
X0208035Y0265644D01*
X0208095Y0265723D01*
X0208151Y0265803D01*
X0208204Y0265886D01*
X0208253Y0265970D01*
X0208300Y0266057D01*
X0208342Y0266145D01*
X0208382Y0266235D01*
X0208417Y0266327D01*
X0208450Y0266419D01*
X0208478Y0266513D01*
X0208503Y0266608D01*
X0208524Y0266704D01*
X0208541Y0266801D01*
X0208555Y0266898D01*
X0208564Y0266996D01*
X0208570Y0267094D01*
X0208572Y0267192D01*
X0208572Y0286192D01*
X0208570Y0286290D01*
X0208564Y0286388D01*
X0208555Y0286486D01*
X0208541Y0286583D01*
X0208524Y0286680D01*
X0208503Y0286776D01*
X0208478Y0286871D01*
X0208450Y0286965D01*
X0208417Y0287057D01*
X0208382Y0287149D01*
X0208342Y0287239D01*
X0208300Y0287327D01*
X0208253Y0287414D01*
X0208204Y0287498D01*
X0208151Y0287581D01*
X0208095Y0287661D01*
X0208035Y0287740D01*
X0207973Y0287816D01*
X0207908Y0287889D01*
X0207840Y0287960D01*
X0207769Y0288028D01*
X0207696Y0288093D01*
X0207620Y0288155D01*
X0207541Y0288215D01*
X0207461Y0288271D01*
X0207378Y0288324D01*
X0207294Y0288373D01*
X0207207Y0288420D01*
X0207119Y0288462D01*
X0207029Y0288502D01*
X0206937Y0288537D01*
X0206845Y0288570D01*
X0206751Y0288598D01*
X0206656Y0288623D01*
X0206560Y0288644D01*
X0206463Y0288661D01*
X0206366Y0288675D01*
X0206268Y0288684D01*
X0206170Y0288690D01*
X0206072Y0288692D01*
X0041072Y0288692D01*
X0040974Y0288690D01*
X0040876Y0288684D01*
X0040778Y0288675D01*
X0040681Y0288661D01*
X0040584Y0288644D01*
X0040488Y0288623D01*
X0040393Y0288598D01*
X0040299Y0288570D01*
X0040207Y0288537D01*
X0040115Y0288502D01*
X0040025Y0288462D01*
X0039937Y0288420D01*
X0039850Y0288373D01*
X0039766Y0288324D01*
X0039683Y0288271D01*
X0039603Y0288215D01*
X0039524Y0288155D01*
X0039448Y0288093D01*
X0039375Y0288028D01*
X0039304Y0287960D01*
X0039236Y0287889D01*
X0039171Y0287816D01*
X0039109Y0287740D01*
X0039049Y0287661D01*
X0038993Y0287581D01*
X0038940Y0287498D01*
X0038891Y0287414D01*
X0038844Y0287327D01*
X0038802Y0287239D01*
X0038762Y0287149D01*
X0038727Y0287057D01*
X0038694Y0286965D01*
X0038666Y0286871D01*
X0038641Y0286776D01*
X0038620Y0286680D01*
X0038603Y0286583D01*
X0038589Y0286486D01*
X0038580Y0286388D01*
X0038574Y0286290D01*
X0038572Y0286192D01*
X0038572Y0267192D01*
X0038574Y0267094D01*
X0038580Y0266996D01*
X0038589Y0266898D01*
X0038603Y0266801D01*
X0038620Y0266704D01*
X0038641Y0266608D01*
X0038666Y0266513D01*
X0038694Y0266419D01*
X0038727Y0266327D01*
X0038762Y0266235D01*
X0038802Y0266145D01*
X0038844Y0266057D01*
X0038891Y0265970D01*
X0038940Y0265886D01*
X0038993Y0265803D01*
X0039049Y0265723D01*
X0039109Y0265644D01*
X0039171Y0265568D01*
X0039236Y0265495D01*
X0039304Y0265424D01*
X0039375Y0265356D01*
X0039448Y0265291D01*
X0039524Y0265229D01*
X0039603Y0265169D01*
X0039683Y0265113D01*
X0039766Y0265060D01*
X0039850Y0265011D01*
X0039937Y0264964D01*
X0040025Y0264922D01*
X0040115Y0264882D01*
X0040207Y0264847D01*
X0040299Y0264814D01*
X0040393Y0264786D01*
X0040488Y0264761D01*
X0040584Y0264740D01*
X0040681Y0264723D01*
X0040778Y0264709D01*
X0040876Y0264700D01*
X0040974Y0264694D01*
X0041072Y0264692D01*
X0221942Y0266963D02*
X0221942Y0285963D01*
X0221944Y0286061D01*
X0221950Y0286159D01*
X0221959Y0286257D01*
X0221973Y0286354D01*
X0221990Y0286451D01*
X0222011Y0286547D01*
X0222036Y0286642D01*
X0222064Y0286736D01*
X0222097Y0286828D01*
X0222132Y0286920D01*
X0222172Y0287010D01*
X0222214Y0287098D01*
X0222261Y0287185D01*
X0222310Y0287269D01*
X0222363Y0287352D01*
X0222419Y0287432D01*
X0222479Y0287511D01*
X0222541Y0287587D01*
X0222606Y0287660D01*
X0222674Y0287731D01*
X0222745Y0287799D01*
X0222818Y0287864D01*
X0222894Y0287926D01*
X0222973Y0287986D01*
X0223053Y0288042D01*
X0223136Y0288095D01*
X0223220Y0288144D01*
X0223307Y0288191D01*
X0223395Y0288233D01*
X0223485Y0288273D01*
X0223577Y0288308D01*
X0223669Y0288341D01*
X0223763Y0288369D01*
X0223858Y0288394D01*
X0223954Y0288415D01*
X0224051Y0288432D01*
X0224148Y0288446D01*
X0224246Y0288455D01*
X0224344Y0288461D01*
X0224442Y0288463D01*
X0349442Y0288463D01*
X0349540Y0288461D01*
X0349638Y0288455D01*
X0349736Y0288446D01*
X0349833Y0288432D01*
X0349930Y0288415D01*
X0350026Y0288394D01*
X0350121Y0288369D01*
X0350215Y0288341D01*
X0350307Y0288308D01*
X0350399Y0288273D01*
X0350489Y0288233D01*
X0350577Y0288191D01*
X0350664Y0288144D01*
X0350748Y0288095D01*
X0350831Y0288042D01*
X0350911Y0287986D01*
X0350990Y0287926D01*
X0351066Y0287864D01*
X0351139Y0287799D01*
X0351210Y0287731D01*
X0351278Y0287660D01*
X0351343Y0287587D01*
X0351405Y0287511D01*
X0351465Y0287432D01*
X0351521Y0287352D01*
X0351574Y0287269D01*
X0351623Y0287185D01*
X0351670Y0287098D01*
X0351712Y0287010D01*
X0351752Y0286920D01*
X0351787Y0286828D01*
X0351820Y0286736D01*
X0351848Y0286642D01*
X0351873Y0286547D01*
X0351894Y0286451D01*
X0351911Y0286354D01*
X0351925Y0286257D01*
X0351934Y0286159D01*
X0351940Y0286061D01*
X0351942Y0285963D01*
X0351942Y0266963D01*
X0351940Y0266865D01*
X0351934Y0266767D01*
X0351925Y0266669D01*
X0351911Y0266572D01*
X0351894Y0266475D01*
X0351873Y0266379D01*
X0351848Y0266284D01*
X0351820Y0266190D01*
X0351787Y0266098D01*
X0351752Y0266006D01*
X0351712Y0265916D01*
X0351670Y0265828D01*
X0351623Y0265741D01*
X0351574Y0265657D01*
X0351521Y0265574D01*
X0351465Y0265494D01*
X0351405Y0265415D01*
X0351343Y0265339D01*
X0351278Y0265266D01*
X0351210Y0265195D01*
X0351139Y0265127D01*
X0351066Y0265062D01*
X0350990Y0265000D01*
X0350911Y0264940D01*
X0350831Y0264884D01*
X0350748Y0264831D01*
X0350664Y0264782D01*
X0350577Y0264735D01*
X0350489Y0264693D01*
X0350399Y0264653D01*
X0350307Y0264618D01*
X0350215Y0264585D01*
X0350121Y0264557D01*
X0350026Y0264532D01*
X0349930Y0264511D01*
X0349833Y0264494D01*
X0349736Y0264480D01*
X0349638Y0264471D01*
X0349540Y0264465D01*
X0349442Y0264463D01*
X0224442Y0264463D01*
X0224344Y0264465D01*
X0224246Y0264471D01*
X0224148Y0264480D01*
X0224051Y0264494D01*
X0223954Y0264511D01*
X0223858Y0264532D01*
X0223763Y0264557D01*
X0223669Y0264585D01*
X0223577Y0264618D01*
X0223485Y0264653D01*
X0223395Y0264693D01*
X0223307Y0264735D01*
X0223220Y0264782D01*
X0223136Y0264831D01*
X0223053Y0264884D01*
X0222973Y0264940D01*
X0222894Y0265000D01*
X0222818Y0265062D01*
X0222745Y0265127D01*
X0222674Y0265195D01*
X0222606Y0265266D01*
X0222541Y0265339D01*
X0222479Y0265415D01*
X0222419Y0265494D01*
X0222363Y0265574D01*
X0222310Y0265657D01*
X0222261Y0265741D01*
X0222214Y0265828D01*
X0222172Y0265916D01*
X0222132Y0266006D01*
X0222097Y0266098D01*
X0222064Y0266190D01*
X0222036Y0266284D01*
X0222011Y0266379D01*
X0221990Y0266475D01*
X0221973Y0266572D01*
X0221959Y0266669D01*
X0221950Y0266767D01*
X0221944Y0266865D01*
X0221942Y0266963D01*
X0356440Y0230027D02*
X0356440Y0225027D01*
X0358940Y0222527D01*
X0356440Y0220027D01*
X0356440Y0215027D01*
X0358940Y0212527D01*
X0356440Y0210027D01*
X0356440Y0205027D01*
X0358940Y0202527D01*
X0356440Y0200027D01*
X0356440Y0195027D01*
X0358940Y0192527D01*
X0356440Y0190027D01*
X0356440Y0185027D01*
X0358940Y0182527D01*
X0356440Y0180027D01*
X0356440Y0175027D01*
X0358940Y0172527D01*
X0363940Y0172527D01*
X0366440Y0175027D01*
X0366440Y0180027D01*
X0363940Y0182527D01*
X0366440Y0185027D01*
X0366440Y0190027D01*
X0363940Y0192527D01*
X0366440Y0195027D01*
X0366440Y0200027D01*
X0363940Y0202527D01*
X0366440Y0205027D01*
X0366440Y0210027D01*
X0363940Y0212527D01*
X0366440Y0215027D01*
X0366440Y0220027D01*
X0363940Y0222527D01*
X0366440Y0225027D01*
X0366440Y0230027D01*
X0363940Y0232527D01*
X0358940Y0232527D01*
X0356440Y0230027D01*
X0311443Y0139213D02*
X0296243Y0139213D01*
X0296243Y0112213D02*
X0311443Y0112213D01*
X0282066Y0093196D02*
X0282066Y0080196D01*
X0282064Y0080109D01*
X0282058Y0080022D01*
X0282049Y0079935D01*
X0282036Y0079849D01*
X0282019Y0079763D01*
X0281998Y0079678D01*
X0281973Y0079595D01*
X0281945Y0079512D01*
X0281914Y0079431D01*
X0281879Y0079351D01*
X0281840Y0079273D01*
X0281798Y0079196D01*
X0281753Y0079121D01*
X0281704Y0079049D01*
X0281653Y0078978D01*
X0281598Y0078910D01*
X0281541Y0078845D01*
X0281480Y0078782D01*
X0281417Y0078721D01*
X0281352Y0078664D01*
X0281284Y0078609D01*
X0281213Y0078558D01*
X0281141Y0078509D01*
X0281066Y0078464D01*
X0280989Y0078422D01*
X0280911Y0078383D01*
X0280831Y0078348D01*
X0280750Y0078317D01*
X0280667Y0078289D01*
X0280584Y0078264D01*
X0280499Y0078243D01*
X0280413Y0078226D01*
X0280327Y0078213D01*
X0280240Y0078204D01*
X0280153Y0078198D01*
X0280066Y0078196D01*
X0277566Y0081696D02*
X0277566Y0085396D01*
X0277566Y0087896D02*
X0277566Y0091696D01*
X0280066Y0095196D02*
X0280153Y0095194D01*
X0280240Y0095188D01*
X0280327Y0095179D01*
X0280413Y0095166D01*
X0280499Y0095149D01*
X0280584Y0095128D01*
X0280667Y0095103D01*
X0280750Y0095075D01*
X0280831Y0095044D01*
X0280911Y0095009D01*
X0280989Y0094970D01*
X0281066Y0094928D01*
X0281141Y0094883D01*
X0281213Y0094834D01*
X0281284Y0094783D01*
X0281352Y0094728D01*
X0281417Y0094671D01*
X0281480Y0094610D01*
X0281541Y0094547D01*
X0281598Y0094482D01*
X0281653Y0094414D01*
X0281704Y0094343D01*
X0281753Y0094271D01*
X0281798Y0094196D01*
X0281840Y0094119D01*
X0281879Y0094041D01*
X0281914Y0093961D01*
X0281945Y0093880D01*
X0281973Y0093797D01*
X0281998Y0093714D01*
X0282019Y0093629D01*
X0282036Y0093543D01*
X0282049Y0093457D01*
X0282058Y0093370D01*
X0282064Y0093283D01*
X0282066Y0093196D01*
X0275066Y0095196D02*
X0274979Y0095194D01*
X0274892Y0095188D01*
X0274805Y0095179D01*
X0274719Y0095166D01*
X0274633Y0095149D01*
X0274548Y0095128D01*
X0274465Y0095103D01*
X0274382Y0095075D01*
X0274301Y0095044D01*
X0274221Y0095009D01*
X0274143Y0094970D01*
X0274066Y0094928D01*
X0273991Y0094883D01*
X0273919Y0094834D01*
X0273848Y0094783D01*
X0273780Y0094728D01*
X0273715Y0094671D01*
X0273652Y0094610D01*
X0273591Y0094547D01*
X0273534Y0094482D01*
X0273479Y0094414D01*
X0273428Y0094343D01*
X0273379Y0094271D01*
X0273334Y0094196D01*
X0273292Y0094119D01*
X0273253Y0094041D01*
X0273218Y0093961D01*
X0273187Y0093880D01*
X0273159Y0093797D01*
X0273134Y0093714D01*
X0273113Y0093629D01*
X0273096Y0093543D01*
X0273083Y0093457D01*
X0273074Y0093370D01*
X0273068Y0093283D01*
X0273066Y0093196D01*
X0273066Y0080196D01*
X0273068Y0080109D01*
X0273074Y0080022D01*
X0273083Y0079935D01*
X0273096Y0079849D01*
X0273113Y0079763D01*
X0273134Y0079678D01*
X0273159Y0079595D01*
X0273187Y0079512D01*
X0273218Y0079431D01*
X0273253Y0079351D01*
X0273292Y0079273D01*
X0273334Y0079196D01*
X0273379Y0079121D01*
X0273428Y0079049D01*
X0273479Y0078978D01*
X0273534Y0078910D01*
X0273591Y0078845D01*
X0273652Y0078782D01*
X0273715Y0078721D01*
X0273780Y0078664D01*
X0273848Y0078609D01*
X0273919Y0078558D01*
X0273991Y0078509D01*
X0274066Y0078464D01*
X0274143Y0078422D01*
X0274221Y0078383D01*
X0274301Y0078348D01*
X0274382Y0078317D01*
X0274465Y0078289D01*
X0274548Y0078264D01*
X0274633Y0078243D01*
X0274719Y0078226D01*
X0274805Y0078213D01*
X0274892Y0078204D01*
X0274979Y0078198D01*
X0275066Y0078196D01*
X0273758Y0062289D02*
X0273758Y0019889D01*
X0293358Y0019889D01*
X0293358Y0062289D01*
X0273758Y0062289D01*
X0318444Y0061437D02*
X0319444Y0060437D01*
X0318444Y0059437D01*
X0318444Y0051437D01*
X0319444Y0050437D01*
X0318444Y0049437D01*
X0318444Y0041437D01*
X0319444Y0040437D01*
X0327444Y0040437D01*
X0328444Y0041437D01*
X0328444Y0049437D01*
X0327444Y0050437D01*
X0328444Y0051437D01*
X0328444Y0059437D01*
X0327444Y0060437D01*
X0328444Y0061437D01*
X0328444Y0069437D01*
X0327444Y0070437D01*
X0319444Y0070437D01*
X0318444Y0069437D01*
X0318444Y0061437D01*
X0361393Y0061445D02*
X0362393Y0060445D01*
X0361393Y0059445D01*
X0361393Y0051445D01*
X0362393Y0050445D01*
X0361393Y0049445D01*
X0361393Y0041445D01*
X0362393Y0040445D01*
X0370393Y0040445D01*
X0371393Y0041445D01*
X0371393Y0049445D01*
X0370393Y0050445D01*
X0371393Y0051445D01*
X0371393Y0059445D01*
X0370393Y0060445D01*
X0371393Y0061445D01*
X0371393Y0069445D01*
X0370393Y0070445D01*
X0362393Y0070445D01*
X0361393Y0069445D01*
X0361393Y0061445D01*
X0285558Y0013689D02*
X0285502Y0013687D01*
X0285447Y0013681D01*
X0285392Y0013672D01*
X0285337Y0013658D01*
X0285284Y0013641D01*
X0285233Y0013620D01*
X0285182Y0013595D01*
X0285134Y0013567D01*
X0285088Y0013536D01*
X0285044Y0013502D01*
X0285002Y0013464D01*
X0284963Y0013424D01*
X0284928Y0013382D01*
X0284895Y0013336D01*
X0284865Y0013289D01*
X0284839Y0013240D01*
X0284816Y0013189D01*
X0284797Y0013136D01*
X0284782Y0013083D01*
X0284770Y0013028D01*
X0284762Y0012973D01*
X0284758Y0012917D01*
X0284758Y0012861D01*
X0284762Y0012805D01*
X0284770Y0012750D01*
X0284782Y0012695D01*
X0284797Y0012642D01*
X0284816Y0012589D01*
X0284839Y0012538D01*
X0284865Y0012489D01*
X0284895Y0012442D01*
X0284928Y0012396D01*
X0284963Y0012354D01*
X0285002Y0012314D01*
X0285044Y0012276D01*
X0285088Y0012242D01*
X0285134Y0012211D01*
X0285182Y0012183D01*
X0285233Y0012158D01*
X0285284Y0012137D01*
X0285337Y0012120D01*
X0285392Y0012106D01*
X0285447Y0012097D01*
X0285502Y0012091D01*
X0285558Y0012089D01*
X0285614Y0012091D01*
X0285669Y0012097D01*
X0285724Y0012106D01*
X0285779Y0012120D01*
X0285832Y0012137D01*
X0285883Y0012158D01*
X0285934Y0012183D01*
X0285982Y0012211D01*
X0286028Y0012242D01*
X0286072Y0012276D01*
X0286114Y0012314D01*
X0286153Y0012354D01*
X0286188Y0012396D01*
X0286221Y0012442D01*
X0286251Y0012489D01*
X0286277Y0012538D01*
X0286300Y0012589D01*
X0286319Y0012642D01*
X0286334Y0012695D01*
X0286346Y0012750D01*
X0286354Y0012805D01*
X0286358Y0012861D01*
X0286358Y0012917D01*
X0286354Y0012973D01*
X0286346Y0013028D01*
X0286334Y0013083D01*
X0286319Y0013136D01*
X0286300Y0013189D01*
X0286277Y0013240D01*
X0286251Y0013289D01*
X0286221Y0013336D01*
X0286188Y0013382D01*
X0286153Y0013424D01*
X0286114Y0013464D01*
X0286072Y0013502D01*
X0286028Y0013536D01*
X0285982Y0013567D01*
X0285934Y0013595D01*
X0285883Y0013620D01*
X0285832Y0013641D01*
X0285779Y0013658D01*
X0285724Y0013672D01*
X0285669Y0013681D01*
X0285614Y0013687D01*
X0285558Y0013689D01*
D15*
X0280566Y0085396D02*
X0277566Y0085396D01*
X0274566Y0085396D01*
X0274566Y0087896D02*
X0277566Y0087896D01*
X0280566Y0087896D01*
X0203862Y0094064D02*
X0203862Y0097064D01*
X0203862Y0100064D01*
X0201362Y0100064D02*
X0201362Y0097064D01*
X0201362Y0094064D01*
X0170061Y0094123D02*
X0170061Y0097123D01*
X0170061Y0100123D01*
X0167561Y0100123D02*
X0167561Y0097123D01*
X0167561Y0094123D01*
X0128497Y0060664D02*
X0128497Y0057664D01*
X0128497Y0054664D01*
X0125997Y0054664D02*
X0125997Y0057664D01*
X0125997Y0060664D01*
X0126210Y0033440D02*
X0126210Y0030440D01*
X0126210Y0027440D01*
X0128710Y0027440D02*
X0128710Y0030440D01*
X0128710Y0033440D01*
X0128571Y0149408D02*
X0125571Y0149408D01*
X0125571Y0151908D02*
X0128571Y0151908D01*
X0131571Y0151908D01*
X0131571Y0149408D02*
X0128571Y0149408D01*
X0128585Y0182582D02*
X0125585Y0182582D01*
X0125585Y0185082D02*
X0128585Y0185082D01*
X0131585Y0185082D01*
X0131585Y0182582D02*
X0128585Y0182582D01*
X0162584Y0215035D02*
X0162584Y0218035D01*
X0162584Y0221035D01*
X0165084Y0221035D02*
X0165084Y0218035D01*
X0165084Y0215035D01*
X0239682Y0215030D02*
X0239682Y0218030D01*
X0239682Y0221030D01*
X0242182Y0221030D02*
X0242182Y0218030D01*
X0242182Y0215030D01*
X0278941Y0186961D02*
X0278941Y0183961D01*
X0278941Y0180961D01*
X0281441Y0180961D02*
X0281441Y0183961D01*
X0281441Y0186961D01*
X0281411Y0164877D02*
X0281411Y0161877D01*
X0281411Y0158877D01*
X0278911Y0158877D02*
X0278911Y0161877D01*
X0278911Y0164877D01*
D16*
X0278717Y0167627D02*
X0277215Y0167627D01*
X0276465Y0168377D01*
X0274863Y0168377D02*
X0274113Y0167627D01*
X0272611Y0167627D01*
X0271861Y0168377D01*
X0271861Y0171380D01*
X0272611Y0172131D01*
X0274113Y0172131D01*
X0274863Y0171380D01*
X0276465Y0171380D02*
X0277215Y0172131D01*
X0278717Y0172131D01*
X0279467Y0171380D01*
X0279467Y0170629D01*
X0278717Y0169879D01*
X0279467Y0169128D01*
X0279467Y0168377D01*
X0278717Y0167627D01*
X0278717Y0169879D02*
X0277966Y0169879D01*
X0277996Y0189711D02*
X0277996Y0194215D01*
X0276495Y0192714D01*
X0274894Y0193464D02*
X0274143Y0194215D01*
X0272642Y0194215D01*
X0271891Y0193464D01*
X0271891Y0190462D01*
X0272642Y0189711D01*
X0274143Y0189711D01*
X0274894Y0190462D01*
X0276495Y0189711D02*
X0279498Y0189711D01*
X0281099Y0189711D02*
X0284102Y0189711D01*
X0282600Y0189711D02*
X0282600Y0194215D01*
X0281099Y0192714D01*
X0239488Y0223780D02*
X0239488Y0228284D01*
X0237236Y0226032D01*
X0240239Y0226032D01*
X0235635Y0224531D02*
X0234884Y0223780D01*
X0233383Y0223780D01*
X0232632Y0224531D01*
X0232632Y0227534D01*
X0233383Y0228284D01*
X0234884Y0228284D01*
X0235635Y0227534D01*
X0207177Y0258442D02*
X0207177Y0262946D01*
X0204925Y0260694D01*
X0207928Y0260694D01*
X0203324Y0261444D02*
X0202573Y0260694D01*
X0203324Y0259943D01*
X0203324Y0259192D01*
X0202573Y0258442D01*
X0201072Y0258442D01*
X0200322Y0259192D01*
X0201823Y0260694D02*
X0202573Y0260694D01*
X0203324Y0261444D02*
X0203324Y0262195D01*
X0202573Y0262946D01*
X0201072Y0262946D01*
X0200322Y0262195D01*
X0225692Y0290213D02*
X0228695Y0290213D01*
X0227193Y0290213D02*
X0227193Y0294717D01*
X0225692Y0293216D01*
X0208368Y0291946D02*
X0205365Y0291946D01*
X0206867Y0291946D02*
X0206867Y0296450D01*
X0205365Y0294948D01*
X0203764Y0296450D02*
X0203764Y0291946D01*
X0200762Y0296450D01*
X0200762Y0291946D01*
X0199160Y0292697D02*
X0198410Y0291946D01*
X0196908Y0291946D01*
X0196158Y0292697D01*
X0196158Y0295699D01*
X0196908Y0296450D01*
X0198410Y0296450D01*
X0199160Y0295699D01*
X0170282Y0212289D02*
X0168780Y0212289D01*
X0168030Y0211538D01*
X0169531Y0210037D02*
X0170282Y0210037D01*
X0171032Y0209286D01*
X0171032Y0208535D01*
X0170282Y0207785D01*
X0168780Y0207785D01*
X0168030Y0208535D01*
X0166428Y0207785D02*
X0163426Y0207785D01*
X0164927Y0207785D02*
X0164927Y0212289D01*
X0163426Y0210787D01*
X0161824Y0211538D02*
X0161074Y0212289D01*
X0159572Y0212289D01*
X0158822Y0211538D01*
X0158822Y0208535D01*
X0159572Y0207785D01*
X0161074Y0207785D01*
X0161824Y0208535D01*
X0170282Y0210037D02*
X0171032Y0210787D01*
X0171032Y0211538D01*
X0170282Y0212289D01*
X0138835Y0191030D02*
X0138835Y0188028D01*
X0135833Y0191030D01*
X0135082Y0191030D01*
X0134331Y0190280D01*
X0134331Y0188778D01*
X0135082Y0188028D01*
X0134331Y0184925D02*
X0138835Y0184925D01*
X0138835Y0183424D02*
X0138835Y0186426D01*
X0135833Y0183424D02*
X0134331Y0184925D01*
X0135082Y0181822D02*
X0134331Y0181072D01*
X0134331Y0179571D01*
X0135082Y0178820D01*
X0138084Y0178820D01*
X0138835Y0179571D01*
X0138835Y0181072D01*
X0138084Y0181822D01*
X0122071Y0154569D02*
X0122821Y0153818D01*
X0122821Y0152317D01*
X0122071Y0151566D01*
X0119068Y0154569D01*
X0122071Y0154569D01*
X0119068Y0154569D02*
X0118318Y0153818D01*
X0118318Y0152317D01*
X0119068Y0151566D01*
X0122071Y0151566D01*
X0122821Y0149965D02*
X0122821Y0146962D01*
X0122821Y0148464D02*
X0118318Y0148464D01*
X0119819Y0146962D01*
X0119068Y0145361D02*
X0118318Y0144610D01*
X0118318Y0143109D01*
X0119068Y0142358D01*
X0122071Y0142358D01*
X0122821Y0143109D01*
X0122821Y0144610D01*
X0122071Y0145361D01*
X0160511Y0106626D02*
X0160511Y0103623D01*
X0161262Y0102873D01*
X0162763Y0102873D01*
X0163514Y0103623D01*
X0165115Y0103623D02*
X0165866Y0102873D01*
X0167367Y0102873D01*
X0168118Y0103623D01*
X0168118Y0105125D01*
X0167367Y0105875D01*
X0166616Y0105875D01*
X0165115Y0105125D01*
X0165115Y0107377D01*
X0168118Y0107377D01*
X0163514Y0106626D02*
X0162763Y0107377D01*
X0161262Y0107377D01*
X0160511Y0106626D01*
X0190187Y0090494D02*
X0190187Y0087492D01*
X0190937Y0086741D01*
X0192438Y0086741D01*
X0193189Y0087492D01*
X0194791Y0086741D02*
X0197793Y0089744D01*
X0197793Y0090494D01*
X0197042Y0091245D01*
X0195541Y0091245D01*
X0194791Y0090494D01*
X0193189Y0090494D02*
X0192438Y0091245D01*
X0190937Y0091245D01*
X0190187Y0090494D01*
X0194791Y0086741D02*
X0197793Y0086741D01*
X0159906Y0052748D02*
X0158405Y0051998D01*
X0156903Y0050496D01*
X0159155Y0050496D01*
X0159906Y0049746D01*
X0159906Y0048995D01*
X0159155Y0048244D01*
X0157654Y0048244D01*
X0156903Y0048995D01*
X0156903Y0050496D01*
X0155302Y0048995D02*
X0154551Y0048244D01*
X0153050Y0048244D01*
X0152299Y0048995D01*
X0152299Y0051998D01*
X0153050Y0052748D01*
X0154551Y0052748D01*
X0155302Y0051998D01*
X0134445Y0051167D02*
X0134445Y0050416D01*
X0133695Y0049666D01*
X0132193Y0049666D01*
X0131443Y0050416D01*
X0131443Y0051167D01*
X0132193Y0051918D01*
X0133695Y0051918D01*
X0134445Y0051167D01*
X0133695Y0049666D02*
X0134445Y0048915D01*
X0134445Y0048164D01*
X0133695Y0047414D01*
X0132193Y0047414D01*
X0131443Y0048164D01*
X0131443Y0048915D01*
X0132193Y0049666D01*
X0129841Y0051167D02*
X0129091Y0051918D01*
X0127589Y0051918D01*
X0126839Y0051167D01*
X0126839Y0048164D01*
X0127589Y0047414D01*
X0129091Y0047414D01*
X0129841Y0048164D01*
X0153184Y0025390D02*
X0152433Y0024639D01*
X0152433Y0021637D01*
X0153184Y0020886D01*
X0154685Y0020886D01*
X0155436Y0021637D01*
X0157037Y0021637D02*
X0157037Y0020886D01*
X0157037Y0021637D02*
X0160040Y0024639D01*
X0160040Y0025390D01*
X0157037Y0025390D01*
X0155436Y0024639D02*
X0154685Y0025390D01*
X0153184Y0025390D01*
X0134659Y0023943D02*
X0134659Y0020940D01*
X0133908Y0020190D01*
X0132407Y0020190D01*
X0131656Y0020940D01*
X0130055Y0020940D02*
X0129304Y0020190D01*
X0127803Y0020190D01*
X0127052Y0020940D01*
X0127052Y0023943D01*
X0127803Y0024693D01*
X0129304Y0024693D01*
X0130055Y0023943D01*
X0131656Y0023943D02*
X0131656Y0023192D01*
X0132407Y0022442D01*
X0134659Y0022442D01*
X0134659Y0023943D02*
X0133908Y0024693D01*
X0132407Y0024693D01*
X0131656Y0023943D01*
X0043425Y0088060D02*
X0042674Y0087310D01*
X0041173Y0087310D01*
X0040422Y0088060D01*
X0041923Y0089562D02*
X0042674Y0089562D01*
X0043425Y0088811D01*
X0043425Y0088060D01*
X0042674Y0089562D02*
X0043425Y0090312D01*
X0043425Y0091063D01*
X0042674Y0091814D01*
X0041173Y0091814D01*
X0040422Y0091063D01*
X0038821Y0091063D02*
X0038821Y0089562D01*
X0038070Y0088811D01*
X0035818Y0088811D01*
X0035818Y0087310D02*
X0035818Y0091814D01*
X0038070Y0091814D01*
X0038821Y0091063D01*
X0034217Y0091814D02*
X0032716Y0091814D01*
X0033466Y0091814D02*
X0033466Y0088060D01*
X0032716Y0087310D01*
X0031965Y0087310D01*
X0031214Y0088060D01*
X0031965Y0107310D02*
X0032716Y0107310D01*
X0033466Y0108060D01*
X0033466Y0111814D01*
X0032716Y0111814D02*
X0034217Y0111814D01*
X0035818Y0111814D02*
X0038070Y0111814D01*
X0038821Y0111063D01*
X0038821Y0109562D01*
X0038070Y0108811D01*
X0035818Y0108811D01*
X0035818Y0107310D02*
X0035818Y0111814D01*
X0040422Y0111063D02*
X0041173Y0111814D01*
X0042674Y0111814D01*
X0043425Y0111063D01*
X0043425Y0110312D01*
X0040422Y0107310D01*
X0043425Y0107310D01*
X0031965Y0107310D02*
X0031214Y0108060D01*
X0031965Y0127310D02*
X0031214Y0128060D01*
X0031965Y0127310D02*
X0032716Y0127310D01*
X0033466Y0128060D01*
X0033466Y0131814D01*
X0032716Y0131814D02*
X0034217Y0131814D01*
X0035818Y0131814D02*
X0035818Y0127310D01*
X0035818Y0128811D02*
X0038070Y0128811D01*
X0038821Y0129562D01*
X0038821Y0131063D01*
X0038070Y0131814D01*
X0035818Y0131814D01*
X0040422Y0130312D02*
X0041923Y0131814D01*
X0041923Y0127310D01*
X0040422Y0127310D02*
X0043425Y0127310D01*
X0043823Y0290442D02*
X0043823Y0294946D01*
X0042322Y0293444D01*
X0042322Y0290442D02*
X0045324Y0290442D01*
X0283312Y0092343D02*
X0287816Y0092343D01*
X0287816Y0090842D02*
X0287816Y0093844D01*
X0284813Y0090842D02*
X0283312Y0092343D01*
X0284063Y0089240D02*
X0283312Y0088490D01*
X0283312Y0086988D01*
X0284063Y0086238D01*
X0287065Y0086238D01*
X0287816Y0086988D01*
X0287816Y0088490D01*
X0287065Y0089240D01*
X0312190Y0053897D02*
X0312190Y0050895D01*
X0314442Y0050895D01*
X0313692Y0052396D01*
X0313692Y0053147D01*
X0314442Y0053897D01*
X0315943Y0053897D01*
X0316694Y0053147D01*
X0316694Y0051645D01*
X0315943Y0050895D01*
X0316694Y0049293D02*
X0312190Y0049293D01*
X0312190Y0046291D02*
X0316694Y0049293D01*
X0316694Y0046291D02*
X0312190Y0046291D01*
X0312941Y0044689D02*
X0312190Y0043939D01*
X0312190Y0042437D01*
X0312941Y0041687D01*
X0315943Y0041687D01*
X0316694Y0042437D01*
X0316694Y0043939D01*
X0315943Y0044689D01*
X0330291Y0046821D02*
X0333694Y0046821D01*
X0333694Y0045687D02*
X0333694Y0047955D01*
X0331425Y0045687D02*
X0330291Y0046821D01*
X0330858Y0055687D02*
X0330291Y0056254D01*
X0330291Y0057388D01*
X0330858Y0057955D01*
X0331425Y0057955D01*
X0333694Y0055687D01*
X0333694Y0057955D01*
X0333127Y0065687D02*
X0333694Y0066254D01*
X0333694Y0067388D01*
X0333127Y0067955D01*
X0332560Y0067955D01*
X0331993Y0067388D01*
X0331993Y0066821D01*
X0331993Y0067388D02*
X0331425Y0067955D01*
X0330858Y0067955D01*
X0330291Y0067388D01*
X0330291Y0066254D01*
X0330858Y0065687D01*
X0355139Y0053154D02*
X0357391Y0050902D01*
X0357391Y0053905D01*
X0359643Y0053154D02*
X0355139Y0053154D01*
X0355139Y0049301D02*
X0359643Y0049301D01*
X0355139Y0046299D01*
X0359643Y0046299D01*
X0358892Y0044697D02*
X0359643Y0043947D01*
X0359643Y0042445D01*
X0358892Y0041695D01*
X0355890Y0041695D01*
X0355139Y0042445D01*
X0355139Y0043947D01*
X0355890Y0044697D01*
X0373240Y0046829D02*
X0376643Y0046829D01*
X0376643Y0045695D02*
X0376643Y0047963D01*
X0374374Y0045695D02*
X0373240Y0046829D01*
X0373807Y0055695D02*
X0373240Y0056262D01*
X0373240Y0057396D01*
X0373807Y0057963D01*
X0374374Y0057963D01*
X0376643Y0055695D01*
X0376643Y0057963D01*
X0376076Y0065695D02*
X0376643Y0066262D01*
X0376643Y0067396D01*
X0376076Y0067963D01*
X0375509Y0067963D01*
X0374941Y0067396D01*
X0374941Y0066829D01*
X0374941Y0067396D02*
X0374374Y0067963D01*
X0373807Y0067963D01*
X0373240Y0067396D01*
X0373240Y0066262D01*
X0373807Y0065695D01*
X0353939Y0172777D02*
X0350936Y0172777D01*
X0350186Y0173528D01*
X0350186Y0175029D01*
X0350936Y0175780D01*
X0350186Y0177381D02*
X0354690Y0180384D01*
X0350186Y0180384D01*
X0350936Y0181985D02*
X0350186Y0182736D01*
X0350186Y0184237D01*
X0350936Y0184988D01*
X0351687Y0184988D01*
X0352438Y0184237D01*
X0353188Y0184988D01*
X0353939Y0184988D01*
X0354690Y0184237D01*
X0354690Y0182736D01*
X0353939Y0181985D01*
X0352438Y0183487D02*
X0352438Y0184237D01*
X0354690Y0177381D02*
X0350186Y0177381D01*
X0353939Y0175780D02*
X0354690Y0175029D01*
X0354690Y0173528D01*
X0353939Y0172777D01*
X0368186Y0176779D02*
X0372690Y0176779D01*
X0372690Y0178280D02*
X0372690Y0175277D01*
X0369687Y0175277D02*
X0368186Y0176779D01*
X0353939Y0225277D02*
X0354690Y0226028D01*
X0354690Y0227529D01*
X0353939Y0228280D01*
X0353188Y0228280D01*
X0352438Y0227529D01*
X0352438Y0225277D01*
X0353939Y0225277D01*
X0352438Y0225277D02*
X0350936Y0226779D01*
X0350186Y0228280D01*
X0350548Y0258213D02*
X0351299Y0258964D01*
X0351299Y0259714D01*
X0350548Y0260465D01*
X0348296Y0260465D01*
X0348296Y0258964D01*
X0349047Y0258213D01*
X0350548Y0258213D01*
X0348296Y0260465D02*
X0349797Y0261966D01*
X0351299Y0262717D01*
X0346695Y0261966D02*
X0345944Y0262717D01*
X0344443Y0262717D01*
X0343692Y0261966D01*
X0346695Y0261966D02*
X0346695Y0261216D01*
X0343692Y0258213D01*
X0346695Y0258213D01*
X0347672Y0291777D02*
X0347672Y0296281D01*
X0349273Y0295530D02*
X0350024Y0296281D01*
X0351525Y0296281D01*
X0352276Y0295530D01*
X0352276Y0294779D01*
X0349273Y0291777D01*
X0352276Y0291777D01*
X0347672Y0291777D02*
X0344669Y0296281D01*
X0344669Y0291777D01*
X0343068Y0292527D02*
X0342317Y0291777D01*
X0340816Y0291777D01*
X0340065Y0292527D01*
X0340065Y0295530D01*
X0340816Y0296281D01*
X0342317Y0296281D01*
X0343068Y0295530D01*
D17*
X0214669Y0201201D02*
X0214669Y0200201D01*
X0213169Y0200201D01*
X0213169Y0201201D01*
X0214669Y0201201D01*
X0214669Y0201175D02*
X0213169Y0201175D01*
X0213169Y0201076D02*
X0214669Y0201076D01*
X0214669Y0200978D02*
X0213169Y0200978D01*
X0213169Y0200879D02*
X0214669Y0200879D01*
X0214669Y0200781D02*
X0213169Y0200781D01*
X0213169Y0200682D02*
X0214669Y0200682D01*
X0214669Y0200584D02*
X0213169Y0200584D01*
X0213169Y0200485D02*
X0214669Y0200485D01*
X0214669Y0200387D02*
X0213169Y0200387D01*
X0213169Y0200288D02*
X0214669Y0200288D01*
X0194984Y0200288D02*
X0193484Y0200288D01*
X0193484Y0200201D02*
X0194984Y0200201D01*
X0194984Y0201201D01*
X0193484Y0201201D01*
X0193484Y0200201D01*
X0193484Y0200387D02*
X0194984Y0200387D01*
X0194984Y0200485D02*
X0193484Y0200485D01*
X0193484Y0200584D02*
X0194984Y0200584D01*
X0194984Y0200682D02*
X0193484Y0200682D01*
X0193484Y0200781D02*
X0194984Y0200781D01*
X0194984Y0200879D02*
X0193484Y0200879D01*
X0193484Y0200978D02*
X0194984Y0200978D01*
X0194984Y0201076D02*
X0193484Y0201076D01*
X0193484Y0201175D02*
X0194984Y0201175D01*
X0175299Y0201175D02*
X0173799Y0201175D01*
X0173799Y0201201D02*
X0175299Y0201201D01*
X0175299Y0200201D01*
X0173799Y0200201D01*
X0173799Y0201201D01*
X0173799Y0201076D02*
X0175299Y0201076D01*
X0175299Y0200978D02*
X0173799Y0200978D01*
X0173799Y0200879D02*
X0175299Y0200879D01*
X0175299Y0200781D02*
X0173799Y0200781D01*
X0173799Y0200682D02*
X0175299Y0200682D01*
X0175299Y0200584D02*
X0173799Y0200584D01*
X0173799Y0200485D02*
X0175299Y0200485D01*
X0175299Y0200387D02*
X0173799Y0200387D01*
X0173799Y0200288D02*
X0175299Y0200288D01*
X0163471Y0172157D02*
X0162471Y0172157D01*
X0162471Y0170657D01*
X0163471Y0170657D01*
X0163471Y0172157D01*
X0163471Y0172114D02*
X0162471Y0172114D01*
X0162471Y0172016D02*
X0163471Y0172016D01*
X0163471Y0171917D02*
X0162471Y0171917D01*
X0162471Y0171819D02*
X0163471Y0171819D01*
X0163471Y0171720D02*
X0162471Y0171720D01*
X0162471Y0171622D02*
X0163471Y0171622D01*
X0163471Y0171523D02*
X0162471Y0171523D01*
X0162471Y0171425D02*
X0163471Y0171425D01*
X0163471Y0171326D02*
X0162471Y0171326D01*
X0162471Y0171228D02*
X0163471Y0171228D01*
X0163471Y0171129D02*
X0162471Y0171129D01*
X0162471Y0171031D02*
X0163471Y0171031D01*
X0163471Y0170932D02*
X0162471Y0170932D01*
X0162471Y0170834D02*
X0163471Y0170834D01*
X0163471Y0170735D02*
X0162471Y0170735D01*
X0162471Y0152471D02*
X0163471Y0152471D01*
X0163471Y0150971D01*
X0162471Y0150971D01*
X0162471Y0152471D01*
X0162471Y0152412D02*
X0163471Y0152412D01*
X0163471Y0152313D02*
X0162471Y0152313D01*
X0162471Y0152215D02*
X0163471Y0152215D01*
X0163471Y0152116D02*
X0162471Y0152116D01*
X0162471Y0152018D02*
X0163471Y0152018D01*
X0163471Y0151919D02*
X0162471Y0151919D01*
X0162471Y0151821D02*
X0163471Y0151821D01*
X0163471Y0151722D02*
X0162471Y0151722D01*
X0162471Y0151624D02*
X0163471Y0151624D01*
X0163471Y0151525D02*
X0162471Y0151525D01*
X0162471Y0151427D02*
X0163471Y0151427D01*
X0163471Y0151328D02*
X0162471Y0151328D01*
X0162471Y0151230D02*
X0163471Y0151230D01*
X0163471Y0151131D02*
X0162471Y0151131D01*
X0162471Y0151033D02*
X0163471Y0151033D01*
X0181673Y0130801D02*
X0183173Y0130801D01*
X0183173Y0129801D01*
X0181673Y0129801D01*
X0181673Y0130801D01*
X0181673Y0130739D02*
X0183173Y0130739D01*
X0183173Y0130641D02*
X0181673Y0130641D01*
X0181673Y0130542D02*
X0183173Y0130542D01*
X0183173Y0130444D02*
X0181673Y0130444D01*
X0181673Y0130345D02*
X0183173Y0130345D01*
X0183173Y0130247D02*
X0181673Y0130247D01*
X0181673Y0130148D02*
X0183173Y0130148D01*
X0183173Y0130050D02*
X0181673Y0130050D01*
X0181673Y0129951D02*
X0183173Y0129951D01*
X0183173Y0129853D02*
X0181673Y0129853D01*
X0201358Y0129853D02*
X0202858Y0129853D01*
X0202858Y0129801D02*
X0202858Y0130801D01*
X0201358Y0130801D01*
X0201358Y0129801D01*
X0202858Y0129801D01*
X0202858Y0129951D02*
X0201358Y0129951D01*
X0201358Y0130050D02*
X0202858Y0130050D01*
X0202858Y0130148D02*
X0201358Y0130148D01*
X0201358Y0130247D02*
X0202858Y0130247D01*
X0202858Y0130345D02*
X0201358Y0130345D01*
X0201358Y0130444D02*
X0202858Y0130444D01*
X0202858Y0130542D02*
X0201358Y0130542D01*
X0201358Y0130641D02*
X0202858Y0130641D01*
X0202858Y0130739D02*
X0201358Y0130739D01*
X0221043Y0130739D02*
X0222543Y0130739D01*
X0222543Y0130801D02*
X0221043Y0130801D01*
X0221043Y0129801D01*
X0222543Y0129801D01*
X0222543Y0130801D01*
X0222543Y0130641D02*
X0221043Y0130641D01*
X0221043Y0130542D02*
X0222543Y0130542D01*
X0222543Y0130444D02*
X0221043Y0130444D01*
X0221043Y0130345D02*
X0222543Y0130345D01*
X0222543Y0130247D02*
X0221043Y0130247D01*
X0221043Y0130148D02*
X0222543Y0130148D01*
X0222543Y0130050D02*
X0221043Y0130050D01*
X0221043Y0129951D02*
X0222543Y0129951D01*
X0222543Y0129853D02*
X0221043Y0129853D01*
X0232871Y0158846D02*
X0232871Y0160346D01*
X0233871Y0160346D01*
X0233871Y0158846D01*
X0232871Y0158846D01*
X0232871Y0158914D02*
X0233871Y0158914D01*
X0233871Y0159012D02*
X0232871Y0159012D01*
X0232871Y0159111D02*
X0233871Y0159111D01*
X0233871Y0159209D02*
X0232871Y0159209D01*
X0232871Y0159308D02*
X0233871Y0159308D01*
X0233871Y0159406D02*
X0232871Y0159406D01*
X0232871Y0159505D02*
X0233871Y0159505D01*
X0233871Y0159603D02*
X0232871Y0159603D01*
X0232871Y0159702D02*
X0233871Y0159702D01*
X0233871Y0159800D02*
X0232871Y0159800D01*
X0232871Y0159899D02*
X0233871Y0159899D01*
X0233871Y0159997D02*
X0232871Y0159997D01*
X0232871Y0160096D02*
X0233871Y0160096D01*
X0233871Y0160194D02*
X0232871Y0160194D01*
X0232871Y0160293D02*
X0233871Y0160293D01*
X0233871Y0178531D02*
X0232871Y0178531D01*
X0232871Y0180031D01*
X0233871Y0180031D01*
X0233871Y0178531D01*
X0233871Y0178616D02*
X0232871Y0178616D01*
X0232871Y0178714D02*
X0233871Y0178714D01*
X0233871Y0178813D02*
X0232871Y0178813D01*
X0232871Y0178911D02*
X0233871Y0178911D01*
X0233871Y0179010D02*
X0232871Y0179010D01*
X0232871Y0179108D02*
X0233871Y0179108D01*
X0233871Y0179207D02*
X0232871Y0179207D01*
X0232871Y0179305D02*
X0233871Y0179305D01*
X0233871Y0179404D02*
X0232871Y0179404D01*
X0232871Y0179503D02*
X0233871Y0179503D01*
X0233871Y0179601D02*
X0232871Y0179601D01*
X0232871Y0179700D02*
X0233871Y0179700D01*
X0233871Y0179798D02*
X0232871Y0179798D01*
X0232871Y0179897D02*
X0233871Y0179897D01*
X0233871Y0179995D02*
X0232871Y0179995D01*
X0286643Y0114943D02*
X0287643Y0114943D01*
X0287643Y0113443D01*
X0286643Y0113443D01*
X0286643Y0114943D01*
X0286643Y0114879D02*
X0287643Y0114879D01*
X0287643Y0114781D02*
X0286643Y0114781D01*
X0286643Y0114682D02*
X0287643Y0114682D01*
X0287643Y0114584D02*
X0286643Y0114584D01*
X0286643Y0114485D02*
X0287643Y0114485D01*
X0287643Y0114387D02*
X0286643Y0114387D01*
X0286643Y0114288D02*
X0287643Y0114288D01*
X0287643Y0114190D02*
X0286643Y0114190D01*
X0286643Y0114091D02*
X0287643Y0114091D01*
X0287643Y0113992D02*
X0286643Y0113992D01*
X0286643Y0113894D02*
X0287643Y0113894D01*
X0287643Y0113795D02*
X0286643Y0113795D01*
X0286643Y0113697D02*
X0287643Y0113697D01*
X0287643Y0113598D02*
X0286643Y0113598D01*
X0286643Y0113500D02*
X0287643Y0113500D01*
X0320043Y0136483D02*
X0321043Y0136483D01*
X0321043Y0137983D01*
X0320043Y0137983D01*
X0320043Y0136483D01*
X0320043Y0136552D02*
X0321043Y0136552D01*
X0321043Y0136650D02*
X0320043Y0136650D01*
X0320043Y0136749D02*
X0321043Y0136749D01*
X0321043Y0136847D02*
X0320043Y0136847D01*
X0320043Y0136946D02*
X0321043Y0136946D01*
X0321043Y0137044D02*
X0320043Y0137044D01*
X0320043Y0137143D02*
X0321043Y0137143D01*
X0321043Y0137241D02*
X0320043Y0137241D01*
X0320043Y0137340D02*
X0321043Y0137340D01*
X0321043Y0137438D02*
X0320043Y0137438D01*
X0320043Y0137537D02*
X0321043Y0137537D01*
X0321043Y0137635D02*
X0320043Y0137635D01*
X0320043Y0137734D02*
X0321043Y0137734D01*
X0321043Y0137832D02*
X0320043Y0137832D01*
X0320043Y0137931D02*
X0321043Y0137931D01*
D18*
X0313524Y0141017D02*
X0310388Y0141017D01*
X0313524Y0144153D01*
X0313524Y0144937D01*
X0312740Y0145721D01*
X0311172Y0145721D01*
X0310388Y0144937D01*
X0308920Y0144937D02*
X0305784Y0141801D01*
X0306568Y0141017D01*
X0308136Y0141017D01*
X0308920Y0141801D01*
X0308920Y0144937D01*
X0308136Y0145721D01*
X0306568Y0145721D01*
X0305784Y0144937D01*
X0305784Y0141801D01*
X0304317Y0141801D02*
X0303533Y0141017D01*
X0301965Y0141017D01*
X0301181Y0141801D01*
X0301181Y0144937D01*
X0301965Y0145721D01*
X0303533Y0145721D01*
X0304317Y0144937D01*
X0299679Y0145721D02*
X0298111Y0145721D01*
X0298895Y0145721D02*
X0298895Y0141017D01*
X0298111Y0141017D02*
X0299679Y0141017D01*
X0315557Y0112179D02*
X0318693Y0109043D01*
X0318693Y0110611D02*
X0315557Y0110611D01*
X0315557Y0109043D02*
X0318693Y0112179D01*
X0317125Y0112179D02*
X0317125Y0109043D01*
X0291409Y0069063D02*
X0292193Y0068279D01*
X0292193Y0067495D01*
X0291409Y0066711D01*
X0292193Y0065927D01*
X0292193Y0065143D01*
X0291409Y0064359D01*
X0289841Y0064359D01*
X0289057Y0065143D01*
X0287589Y0065143D02*
X0287589Y0068279D01*
X0284453Y0065143D01*
X0285237Y0064359D01*
X0286805Y0064359D01*
X0287589Y0065143D01*
X0287589Y0068279D02*
X0286805Y0069063D01*
X0285237Y0069063D01*
X0284453Y0068279D01*
X0284453Y0065143D01*
X0282985Y0065143D02*
X0282201Y0064359D01*
X0280633Y0064359D01*
X0279849Y0065143D01*
X0279849Y0068279D01*
X0280633Y0069063D01*
X0282201Y0069063D01*
X0282985Y0068279D01*
X0278347Y0069063D02*
X0276779Y0069063D01*
X0277563Y0069063D02*
X0277563Y0064359D01*
X0276779Y0064359D02*
X0278347Y0064359D01*
X0289057Y0068279D02*
X0289841Y0069063D01*
X0291409Y0069063D01*
X0291409Y0066711D02*
X0290625Y0066711D01*
X0250446Y0147831D02*
X0247310Y0147831D01*
X0248878Y0147831D02*
X0248878Y0152535D01*
X0247310Y0150967D01*
X0245842Y0151751D02*
X0242706Y0148615D01*
X0243490Y0147831D01*
X0245058Y0147831D01*
X0245842Y0148615D01*
X0245842Y0151751D01*
X0245058Y0152535D01*
X0243490Y0152535D01*
X0242706Y0151751D01*
X0242706Y0148615D01*
X0241238Y0148615D02*
X0240454Y0147831D01*
X0238886Y0147831D01*
X0238102Y0148615D01*
X0238102Y0151751D01*
X0238886Y0152535D01*
X0240454Y0152535D01*
X0241238Y0151751D01*
X0236601Y0152535D02*
X0235033Y0152535D01*
X0235817Y0152535D02*
X0235817Y0147831D01*
X0235033Y0147831D02*
X0236601Y0147831D01*
X0162957Y0190035D02*
X0159821Y0193171D01*
X0159821Y0191603D02*
X0162957Y0191603D01*
X0162957Y0193171D02*
X0159821Y0190035D01*
X0161389Y0190035D02*
X0161389Y0193171D01*
M02*
