%
M48
M72
T01C0.0120
T02C0.0157
T03C0.0197
T04C0.0236
T05C0.0320
T06C0.0360
T07C0.0400
T08C0.0540
T09C0.1260
%
T01
X13240Y12944
X13338Y13289
X13338Y13978
X14273Y14569
X15405Y14815
X15946Y15700
X14765Y15700
X14027Y16094
X13781Y15848
X13338Y16291
X14765Y17472
X14027Y17915
X12846Y18752
X12009Y18998
X16242Y17128
X17423Y15504
X18506Y14224
X16881Y13191
X17669Y12403
X15405Y12403
X21125Y11605
X21943Y11978
X22196Y11616
X22344Y12502
X23181Y12551
X23181Y13535
X22246Y14372
X21507Y14126
X21754Y15504
X22246Y15356
X23476Y15208
X23427Y14815
X25641Y15700
X25986Y15700
X26281Y15897
X24805Y16537
X25051Y17521
X25346Y18063
X25937Y18063
X24569Y18063
X24313Y18998
X25297Y19539
X24559Y19785
X23476Y20720
X23279Y19933
X21507Y18998
X22098Y18063
X21015Y22295
X21655Y23820
X21655Y24165
X22295Y23919
X23279Y23919
X24313Y24411
X23476Y25592
X23082Y25641
X22443Y26281
X22049Y26675
X22049Y27019
X20376Y26183
X21261Y25395
X21015Y25149
X18506Y25395
X18506Y24657
X16980Y25395
X17226Y26330
X15976Y27658
X14519Y26429
X12305Y25248
X11025Y26527
X9106Y26330
X7876Y28102
X7482Y23181
X8614Y22935
X15011Y23820
X16488Y22000
X25494Y25395
X25740Y22885
X28200Y21212
X28545Y21409
X28545Y21901
X28791Y22492
X29677Y24805
X29923Y25395
X29037Y25395
X28643Y26429
X29300Y27660
X31252Y29628
X26429Y28988
X33663Y21114
X33417Y20523
X29097Y19539
X29578Y17029
X29578Y16685
X31202Y15700
X31547Y14027
X30956Y13437
X29775Y12797
X30956Y12157
X32137Y11468
X33958Y11124
X29289Y11124
X28348Y14027
X28446Y14372
X24509Y12944
X21212Y12600
T02
X15690Y19562
X17415Y20191
X18547Y18567
X18500Y18198
X19033Y18064
X18487Y17531
X18483Y16632
X19033Y16353
X19793Y16861
X20535Y17220
X21061Y16747
X20535Y16473
X21128Y15836
X21471Y14687
X19985Y15060
X19792Y15746
X19239Y15106
X18708Y14543
X15693Y11821
X16587Y11363
X20200Y9220
X27838Y11419
X29076Y10752
X30239Y10752
X20784Y18414
X20309Y18774
X19802Y18758
X29260Y23980
T03
X20533Y15422
T04
X29354Y13976
X34295Y11910
T05
X5920Y8050
X7920Y8050
X7920Y10050
X5920Y10050
X5920Y12050
X7920Y12050
X12857Y14061
X12857Y16061
X12859Y17388
X12859Y19388
X15388Y21803
X17388Y21803
X23088Y21803
X25088Y21803
X27014Y18396
X29014Y18396
X29011Y16188
X27011Y16188
X27757Y9670
X27757Y7670
X22294Y8559
X21266Y9706
X20294Y8559
X19266Y9706
X17876Y9712
X15876Y9712
X16576Y5799
X17576Y5799
X17589Y3064
X16589Y3064
X13751Y3044
X11751Y3044
X11730Y5766
X13730Y5766
T06
X4357Y28169
X5357Y28169
X5357Y27169
X4357Y27169
X6357Y27169
X7357Y27169
X8357Y27169
X9357Y27169
X10357Y27169
X11357Y27169
X12357Y27169
X13357Y27169
X14357Y27169
X15357Y27169
X16357Y27169
X17357Y27169
X18357Y27169
X19357Y27169
X20357Y27169
X20357Y28169
X19357Y28169
X18357Y28169
X17357Y28169
X16357Y28169
X15357Y28169
X14357Y28169
X13357Y28169
X12357Y28169
X11357Y28169
X10357Y28169
X9357Y28169
X8357Y28169
X7357Y28169
X6357Y28169
X22694Y28146
X23694Y28146
X23694Y27146
X22694Y27146
X24694Y27146
X25694Y27146
X26694Y27146
X27694Y27146
X28694Y27146
X29694Y27146
X30694Y27146
X31694Y27146
X32694Y27146
X33694Y27146
X34694Y27146
X34694Y28146
X33694Y28146
X32694Y28146
X31694Y28146
X30694Y28146
X29694Y28146
X28694Y28146
X27694Y28146
X26694Y28146
X25694Y28146
X24694Y28146
X36639Y6544
X36639Y5544
X36639Y4544
X32344Y4544
X32344Y5544
X32344Y6544
X4596Y8056
X3596Y8056
X3596Y10056
X4596Y10056
X4596Y12056
X3596Y12056
T07
X36144Y22753
X36144Y21753
X36144Y20753
X36144Y19753
X36144Y18753
X36144Y17753
T08
X28556Y3109
X28556Y4109
X28556Y5109
T09
X2069Y29628
X2069Y2069
X37441Y2101
X37502Y29628
M30
