G75*
%MOIN*%
%OFA0B0*%
%FSLAX25Y25*%
%IPPOS*%
%LPD*%
%AMOC8*
5,1,8,0,0,1.08239X$1,22.5*
%
%ADD10C,0.00000*%
%ADD11C,0.00900*%
%ADD12OC8,0.05200*%
%ADD13OC8,0.06300*%
%ADD14C,0.06300*%
%ADD15C,0.05600*%
%ADD16OC8,0.05600*%
%ADD17R,0.08100X0.08100*%
%ADD18C,0.08100*%
%ADD19C,0.06000*%
%ADD20C,0.05600*%
%ADD21C,0.00600*%
%ADD22C,0.02400*%
%ADD23C,0.01000*%
%ADD24C,0.02775*%
%ADD25C,0.01600*%
%ADD26C,0.03562*%
%ADD27C,0.05000*%
%ADD28C,0.03169*%
D10*
X0001000Y0001000D02*
X0001000Y0315961D01*
X0394701Y0315961D01*
X0394701Y0001000D01*
X0001000Y0001000D01*
X0014386Y0020685D02*
X0014388Y0020843D01*
X0014394Y0021001D01*
X0014404Y0021159D01*
X0014418Y0021317D01*
X0014436Y0021474D01*
X0014457Y0021631D01*
X0014483Y0021787D01*
X0014513Y0021943D01*
X0014546Y0022098D01*
X0014584Y0022251D01*
X0014625Y0022404D01*
X0014670Y0022556D01*
X0014719Y0022707D01*
X0014772Y0022856D01*
X0014828Y0023004D01*
X0014888Y0023150D01*
X0014952Y0023295D01*
X0015020Y0023438D01*
X0015091Y0023580D01*
X0015165Y0023720D01*
X0015243Y0023857D01*
X0015325Y0023993D01*
X0015409Y0024127D01*
X0015498Y0024258D01*
X0015589Y0024387D01*
X0015684Y0024514D01*
X0015781Y0024639D01*
X0015882Y0024761D01*
X0015986Y0024880D01*
X0016093Y0024997D01*
X0016203Y0025111D01*
X0016316Y0025222D01*
X0016431Y0025331D01*
X0016549Y0025436D01*
X0016670Y0025538D01*
X0016793Y0025638D01*
X0016919Y0025734D01*
X0017047Y0025827D01*
X0017177Y0025917D01*
X0017310Y0026003D01*
X0017445Y0026087D01*
X0017581Y0026166D01*
X0017720Y0026243D01*
X0017861Y0026315D01*
X0018003Y0026385D01*
X0018147Y0026450D01*
X0018293Y0026512D01*
X0018440Y0026570D01*
X0018589Y0026625D01*
X0018739Y0026676D01*
X0018890Y0026723D01*
X0019042Y0026766D01*
X0019195Y0026805D01*
X0019350Y0026841D01*
X0019505Y0026872D01*
X0019661Y0026900D01*
X0019817Y0026924D01*
X0019974Y0026944D01*
X0020132Y0026960D01*
X0020289Y0026972D01*
X0020448Y0026980D01*
X0020606Y0026984D01*
X0020764Y0026984D01*
X0020922Y0026980D01*
X0021081Y0026972D01*
X0021238Y0026960D01*
X0021396Y0026944D01*
X0021553Y0026924D01*
X0021709Y0026900D01*
X0021865Y0026872D01*
X0022020Y0026841D01*
X0022175Y0026805D01*
X0022328Y0026766D01*
X0022480Y0026723D01*
X0022631Y0026676D01*
X0022781Y0026625D01*
X0022930Y0026570D01*
X0023077Y0026512D01*
X0023223Y0026450D01*
X0023367Y0026385D01*
X0023509Y0026315D01*
X0023650Y0026243D01*
X0023789Y0026166D01*
X0023925Y0026087D01*
X0024060Y0026003D01*
X0024193Y0025917D01*
X0024323Y0025827D01*
X0024451Y0025734D01*
X0024577Y0025638D01*
X0024700Y0025538D01*
X0024821Y0025436D01*
X0024939Y0025331D01*
X0025054Y0025222D01*
X0025167Y0025111D01*
X0025277Y0024997D01*
X0025384Y0024880D01*
X0025488Y0024761D01*
X0025589Y0024639D01*
X0025686Y0024514D01*
X0025781Y0024387D01*
X0025872Y0024258D01*
X0025961Y0024127D01*
X0026045Y0023993D01*
X0026127Y0023857D01*
X0026205Y0023720D01*
X0026279Y0023580D01*
X0026350Y0023438D01*
X0026418Y0023295D01*
X0026482Y0023150D01*
X0026542Y0023004D01*
X0026598Y0022856D01*
X0026651Y0022707D01*
X0026700Y0022556D01*
X0026745Y0022404D01*
X0026786Y0022251D01*
X0026824Y0022098D01*
X0026857Y0021943D01*
X0026887Y0021787D01*
X0026913Y0021631D01*
X0026934Y0021474D01*
X0026952Y0021317D01*
X0026966Y0021159D01*
X0026976Y0021001D01*
X0026982Y0020843D01*
X0026984Y0020685D01*
X0026982Y0020527D01*
X0026976Y0020369D01*
X0026966Y0020211D01*
X0026952Y0020053D01*
X0026934Y0019896D01*
X0026913Y0019739D01*
X0026887Y0019583D01*
X0026857Y0019427D01*
X0026824Y0019272D01*
X0026786Y0019119D01*
X0026745Y0018966D01*
X0026700Y0018814D01*
X0026651Y0018663D01*
X0026598Y0018514D01*
X0026542Y0018366D01*
X0026482Y0018220D01*
X0026418Y0018075D01*
X0026350Y0017932D01*
X0026279Y0017790D01*
X0026205Y0017650D01*
X0026127Y0017513D01*
X0026045Y0017377D01*
X0025961Y0017243D01*
X0025872Y0017112D01*
X0025781Y0016983D01*
X0025686Y0016856D01*
X0025589Y0016731D01*
X0025488Y0016609D01*
X0025384Y0016490D01*
X0025277Y0016373D01*
X0025167Y0016259D01*
X0025054Y0016148D01*
X0024939Y0016039D01*
X0024821Y0015934D01*
X0024700Y0015832D01*
X0024577Y0015732D01*
X0024451Y0015636D01*
X0024323Y0015543D01*
X0024193Y0015453D01*
X0024060Y0015367D01*
X0023925Y0015283D01*
X0023789Y0015204D01*
X0023650Y0015127D01*
X0023509Y0015055D01*
X0023367Y0014985D01*
X0023223Y0014920D01*
X0023077Y0014858D01*
X0022930Y0014800D01*
X0022781Y0014745D01*
X0022631Y0014694D01*
X0022480Y0014647D01*
X0022328Y0014604D01*
X0022175Y0014565D01*
X0022020Y0014529D01*
X0021865Y0014498D01*
X0021709Y0014470D01*
X0021553Y0014446D01*
X0021396Y0014426D01*
X0021238Y0014410D01*
X0021081Y0014398D01*
X0020922Y0014390D01*
X0020764Y0014386D01*
X0020606Y0014386D01*
X0020448Y0014390D01*
X0020289Y0014398D01*
X0020132Y0014410D01*
X0019974Y0014426D01*
X0019817Y0014446D01*
X0019661Y0014470D01*
X0019505Y0014498D01*
X0019350Y0014529D01*
X0019195Y0014565D01*
X0019042Y0014604D01*
X0018890Y0014647D01*
X0018739Y0014694D01*
X0018589Y0014745D01*
X0018440Y0014800D01*
X0018293Y0014858D01*
X0018147Y0014920D01*
X0018003Y0014985D01*
X0017861Y0015055D01*
X0017720Y0015127D01*
X0017581Y0015204D01*
X0017445Y0015283D01*
X0017310Y0015367D01*
X0017177Y0015453D01*
X0017047Y0015543D01*
X0016919Y0015636D01*
X0016793Y0015732D01*
X0016670Y0015832D01*
X0016549Y0015934D01*
X0016431Y0016039D01*
X0016316Y0016148D01*
X0016203Y0016259D01*
X0016093Y0016373D01*
X0015986Y0016490D01*
X0015882Y0016609D01*
X0015781Y0016731D01*
X0015684Y0016856D01*
X0015589Y0016983D01*
X0015498Y0017112D01*
X0015409Y0017243D01*
X0015325Y0017377D01*
X0015243Y0017513D01*
X0015165Y0017650D01*
X0015091Y0017790D01*
X0015020Y0017932D01*
X0014952Y0018075D01*
X0014888Y0018220D01*
X0014828Y0018366D01*
X0014772Y0018514D01*
X0014719Y0018663D01*
X0014670Y0018814D01*
X0014625Y0018966D01*
X0014584Y0019119D01*
X0014546Y0019272D01*
X0014513Y0019427D01*
X0014483Y0019583D01*
X0014457Y0019739D01*
X0014436Y0019896D01*
X0014418Y0020053D01*
X0014404Y0020211D01*
X0014394Y0020369D01*
X0014388Y0020527D01*
X0014386Y0020685D01*
X0014386Y0296276D02*
X0014388Y0296434D01*
X0014394Y0296592D01*
X0014404Y0296750D01*
X0014418Y0296908D01*
X0014436Y0297065D01*
X0014457Y0297222D01*
X0014483Y0297378D01*
X0014513Y0297534D01*
X0014546Y0297689D01*
X0014584Y0297842D01*
X0014625Y0297995D01*
X0014670Y0298147D01*
X0014719Y0298298D01*
X0014772Y0298447D01*
X0014828Y0298595D01*
X0014888Y0298741D01*
X0014952Y0298886D01*
X0015020Y0299029D01*
X0015091Y0299171D01*
X0015165Y0299311D01*
X0015243Y0299448D01*
X0015325Y0299584D01*
X0015409Y0299718D01*
X0015498Y0299849D01*
X0015589Y0299978D01*
X0015684Y0300105D01*
X0015781Y0300230D01*
X0015882Y0300352D01*
X0015986Y0300471D01*
X0016093Y0300588D01*
X0016203Y0300702D01*
X0016316Y0300813D01*
X0016431Y0300922D01*
X0016549Y0301027D01*
X0016670Y0301129D01*
X0016793Y0301229D01*
X0016919Y0301325D01*
X0017047Y0301418D01*
X0017177Y0301508D01*
X0017310Y0301594D01*
X0017445Y0301678D01*
X0017581Y0301757D01*
X0017720Y0301834D01*
X0017861Y0301906D01*
X0018003Y0301976D01*
X0018147Y0302041D01*
X0018293Y0302103D01*
X0018440Y0302161D01*
X0018589Y0302216D01*
X0018739Y0302267D01*
X0018890Y0302314D01*
X0019042Y0302357D01*
X0019195Y0302396D01*
X0019350Y0302432D01*
X0019505Y0302463D01*
X0019661Y0302491D01*
X0019817Y0302515D01*
X0019974Y0302535D01*
X0020132Y0302551D01*
X0020289Y0302563D01*
X0020448Y0302571D01*
X0020606Y0302575D01*
X0020764Y0302575D01*
X0020922Y0302571D01*
X0021081Y0302563D01*
X0021238Y0302551D01*
X0021396Y0302535D01*
X0021553Y0302515D01*
X0021709Y0302491D01*
X0021865Y0302463D01*
X0022020Y0302432D01*
X0022175Y0302396D01*
X0022328Y0302357D01*
X0022480Y0302314D01*
X0022631Y0302267D01*
X0022781Y0302216D01*
X0022930Y0302161D01*
X0023077Y0302103D01*
X0023223Y0302041D01*
X0023367Y0301976D01*
X0023509Y0301906D01*
X0023650Y0301834D01*
X0023789Y0301757D01*
X0023925Y0301678D01*
X0024060Y0301594D01*
X0024193Y0301508D01*
X0024323Y0301418D01*
X0024451Y0301325D01*
X0024577Y0301229D01*
X0024700Y0301129D01*
X0024821Y0301027D01*
X0024939Y0300922D01*
X0025054Y0300813D01*
X0025167Y0300702D01*
X0025277Y0300588D01*
X0025384Y0300471D01*
X0025488Y0300352D01*
X0025589Y0300230D01*
X0025686Y0300105D01*
X0025781Y0299978D01*
X0025872Y0299849D01*
X0025961Y0299718D01*
X0026045Y0299584D01*
X0026127Y0299448D01*
X0026205Y0299311D01*
X0026279Y0299171D01*
X0026350Y0299029D01*
X0026418Y0298886D01*
X0026482Y0298741D01*
X0026542Y0298595D01*
X0026598Y0298447D01*
X0026651Y0298298D01*
X0026700Y0298147D01*
X0026745Y0297995D01*
X0026786Y0297842D01*
X0026824Y0297689D01*
X0026857Y0297534D01*
X0026887Y0297378D01*
X0026913Y0297222D01*
X0026934Y0297065D01*
X0026952Y0296908D01*
X0026966Y0296750D01*
X0026976Y0296592D01*
X0026982Y0296434D01*
X0026984Y0296276D01*
X0026982Y0296118D01*
X0026976Y0295960D01*
X0026966Y0295802D01*
X0026952Y0295644D01*
X0026934Y0295487D01*
X0026913Y0295330D01*
X0026887Y0295174D01*
X0026857Y0295018D01*
X0026824Y0294863D01*
X0026786Y0294710D01*
X0026745Y0294557D01*
X0026700Y0294405D01*
X0026651Y0294254D01*
X0026598Y0294105D01*
X0026542Y0293957D01*
X0026482Y0293811D01*
X0026418Y0293666D01*
X0026350Y0293523D01*
X0026279Y0293381D01*
X0026205Y0293241D01*
X0026127Y0293104D01*
X0026045Y0292968D01*
X0025961Y0292834D01*
X0025872Y0292703D01*
X0025781Y0292574D01*
X0025686Y0292447D01*
X0025589Y0292322D01*
X0025488Y0292200D01*
X0025384Y0292081D01*
X0025277Y0291964D01*
X0025167Y0291850D01*
X0025054Y0291739D01*
X0024939Y0291630D01*
X0024821Y0291525D01*
X0024700Y0291423D01*
X0024577Y0291323D01*
X0024451Y0291227D01*
X0024323Y0291134D01*
X0024193Y0291044D01*
X0024060Y0290958D01*
X0023925Y0290874D01*
X0023789Y0290795D01*
X0023650Y0290718D01*
X0023509Y0290646D01*
X0023367Y0290576D01*
X0023223Y0290511D01*
X0023077Y0290449D01*
X0022930Y0290391D01*
X0022781Y0290336D01*
X0022631Y0290285D01*
X0022480Y0290238D01*
X0022328Y0290195D01*
X0022175Y0290156D01*
X0022020Y0290120D01*
X0021865Y0290089D01*
X0021709Y0290061D01*
X0021553Y0290037D01*
X0021396Y0290017D01*
X0021238Y0290001D01*
X0021081Y0289989D01*
X0020922Y0289981D01*
X0020764Y0289977D01*
X0020606Y0289977D01*
X0020448Y0289981D01*
X0020289Y0289989D01*
X0020132Y0290001D01*
X0019974Y0290017D01*
X0019817Y0290037D01*
X0019661Y0290061D01*
X0019505Y0290089D01*
X0019350Y0290120D01*
X0019195Y0290156D01*
X0019042Y0290195D01*
X0018890Y0290238D01*
X0018739Y0290285D01*
X0018589Y0290336D01*
X0018440Y0290391D01*
X0018293Y0290449D01*
X0018147Y0290511D01*
X0018003Y0290576D01*
X0017861Y0290646D01*
X0017720Y0290718D01*
X0017581Y0290795D01*
X0017445Y0290874D01*
X0017310Y0290958D01*
X0017177Y0291044D01*
X0017047Y0291134D01*
X0016919Y0291227D01*
X0016793Y0291323D01*
X0016670Y0291423D01*
X0016549Y0291525D01*
X0016431Y0291630D01*
X0016316Y0291739D01*
X0016203Y0291850D01*
X0016093Y0291964D01*
X0015986Y0292081D01*
X0015882Y0292200D01*
X0015781Y0292322D01*
X0015684Y0292447D01*
X0015589Y0292574D01*
X0015498Y0292703D01*
X0015409Y0292834D01*
X0015325Y0292968D01*
X0015243Y0293104D01*
X0015165Y0293241D01*
X0015091Y0293381D01*
X0015020Y0293523D01*
X0014952Y0293666D01*
X0014888Y0293811D01*
X0014828Y0293957D01*
X0014772Y0294105D01*
X0014719Y0294254D01*
X0014670Y0294405D01*
X0014625Y0294557D01*
X0014584Y0294710D01*
X0014546Y0294863D01*
X0014513Y0295018D01*
X0014483Y0295174D01*
X0014457Y0295330D01*
X0014436Y0295487D01*
X0014418Y0295644D01*
X0014404Y0295802D01*
X0014394Y0295960D01*
X0014388Y0296118D01*
X0014386Y0296276D01*
X0368717Y0296276D02*
X0368719Y0296434D01*
X0368725Y0296592D01*
X0368735Y0296750D01*
X0368749Y0296908D01*
X0368767Y0297065D01*
X0368788Y0297222D01*
X0368814Y0297378D01*
X0368844Y0297534D01*
X0368877Y0297689D01*
X0368915Y0297842D01*
X0368956Y0297995D01*
X0369001Y0298147D01*
X0369050Y0298298D01*
X0369103Y0298447D01*
X0369159Y0298595D01*
X0369219Y0298741D01*
X0369283Y0298886D01*
X0369351Y0299029D01*
X0369422Y0299171D01*
X0369496Y0299311D01*
X0369574Y0299448D01*
X0369656Y0299584D01*
X0369740Y0299718D01*
X0369829Y0299849D01*
X0369920Y0299978D01*
X0370015Y0300105D01*
X0370112Y0300230D01*
X0370213Y0300352D01*
X0370317Y0300471D01*
X0370424Y0300588D01*
X0370534Y0300702D01*
X0370647Y0300813D01*
X0370762Y0300922D01*
X0370880Y0301027D01*
X0371001Y0301129D01*
X0371124Y0301229D01*
X0371250Y0301325D01*
X0371378Y0301418D01*
X0371508Y0301508D01*
X0371641Y0301594D01*
X0371776Y0301678D01*
X0371912Y0301757D01*
X0372051Y0301834D01*
X0372192Y0301906D01*
X0372334Y0301976D01*
X0372478Y0302041D01*
X0372624Y0302103D01*
X0372771Y0302161D01*
X0372920Y0302216D01*
X0373070Y0302267D01*
X0373221Y0302314D01*
X0373373Y0302357D01*
X0373526Y0302396D01*
X0373681Y0302432D01*
X0373836Y0302463D01*
X0373992Y0302491D01*
X0374148Y0302515D01*
X0374305Y0302535D01*
X0374463Y0302551D01*
X0374620Y0302563D01*
X0374779Y0302571D01*
X0374937Y0302575D01*
X0375095Y0302575D01*
X0375253Y0302571D01*
X0375412Y0302563D01*
X0375569Y0302551D01*
X0375727Y0302535D01*
X0375884Y0302515D01*
X0376040Y0302491D01*
X0376196Y0302463D01*
X0376351Y0302432D01*
X0376506Y0302396D01*
X0376659Y0302357D01*
X0376811Y0302314D01*
X0376962Y0302267D01*
X0377112Y0302216D01*
X0377261Y0302161D01*
X0377408Y0302103D01*
X0377554Y0302041D01*
X0377698Y0301976D01*
X0377840Y0301906D01*
X0377981Y0301834D01*
X0378120Y0301757D01*
X0378256Y0301678D01*
X0378391Y0301594D01*
X0378524Y0301508D01*
X0378654Y0301418D01*
X0378782Y0301325D01*
X0378908Y0301229D01*
X0379031Y0301129D01*
X0379152Y0301027D01*
X0379270Y0300922D01*
X0379385Y0300813D01*
X0379498Y0300702D01*
X0379608Y0300588D01*
X0379715Y0300471D01*
X0379819Y0300352D01*
X0379920Y0300230D01*
X0380017Y0300105D01*
X0380112Y0299978D01*
X0380203Y0299849D01*
X0380292Y0299718D01*
X0380376Y0299584D01*
X0380458Y0299448D01*
X0380536Y0299311D01*
X0380610Y0299171D01*
X0380681Y0299029D01*
X0380749Y0298886D01*
X0380813Y0298741D01*
X0380873Y0298595D01*
X0380929Y0298447D01*
X0380982Y0298298D01*
X0381031Y0298147D01*
X0381076Y0297995D01*
X0381117Y0297842D01*
X0381155Y0297689D01*
X0381188Y0297534D01*
X0381218Y0297378D01*
X0381244Y0297222D01*
X0381265Y0297065D01*
X0381283Y0296908D01*
X0381297Y0296750D01*
X0381307Y0296592D01*
X0381313Y0296434D01*
X0381315Y0296276D01*
X0381313Y0296118D01*
X0381307Y0295960D01*
X0381297Y0295802D01*
X0381283Y0295644D01*
X0381265Y0295487D01*
X0381244Y0295330D01*
X0381218Y0295174D01*
X0381188Y0295018D01*
X0381155Y0294863D01*
X0381117Y0294710D01*
X0381076Y0294557D01*
X0381031Y0294405D01*
X0380982Y0294254D01*
X0380929Y0294105D01*
X0380873Y0293957D01*
X0380813Y0293811D01*
X0380749Y0293666D01*
X0380681Y0293523D01*
X0380610Y0293381D01*
X0380536Y0293241D01*
X0380458Y0293104D01*
X0380376Y0292968D01*
X0380292Y0292834D01*
X0380203Y0292703D01*
X0380112Y0292574D01*
X0380017Y0292447D01*
X0379920Y0292322D01*
X0379819Y0292200D01*
X0379715Y0292081D01*
X0379608Y0291964D01*
X0379498Y0291850D01*
X0379385Y0291739D01*
X0379270Y0291630D01*
X0379152Y0291525D01*
X0379031Y0291423D01*
X0378908Y0291323D01*
X0378782Y0291227D01*
X0378654Y0291134D01*
X0378524Y0291044D01*
X0378391Y0290958D01*
X0378256Y0290874D01*
X0378120Y0290795D01*
X0377981Y0290718D01*
X0377840Y0290646D01*
X0377698Y0290576D01*
X0377554Y0290511D01*
X0377408Y0290449D01*
X0377261Y0290391D01*
X0377112Y0290336D01*
X0376962Y0290285D01*
X0376811Y0290238D01*
X0376659Y0290195D01*
X0376506Y0290156D01*
X0376351Y0290120D01*
X0376196Y0290089D01*
X0376040Y0290061D01*
X0375884Y0290037D01*
X0375727Y0290017D01*
X0375569Y0290001D01*
X0375412Y0289989D01*
X0375253Y0289981D01*
X0375095Y0289977D01*
X0374937Y0289977D01*
X0374779Y0289981D01*
X0374620Y0289989D01*
X0374463Y0290001D01*
X0374305Y0290017D01*
X0374148Y0290037D01*
X0373992Y0290061D01*
X0373836Y0290089D01*
X0373681Y0290120D01*
X0373526Y0290156D01*
X0373373Y0290195D01*
X0373221Y0290238D01*
X0373070Y0290285D01*
X0372920Y0290336D01*
X0372771Y0290391D01*
X0372624Y0290449D01*
X0372478Y0290511D01*
X0372334Y0290576D01*
X0372192Y0290646D01*
X0372051Y0290718D01*
X0371912Y0290795D01*
X0371776Y0290874D01*
X0371641Y0290958D01*
X0371508Y0291044D01*
X0371378Y0291134D01*
X0371250Y0291227D01*
X0371124Y0291323D01*
X0371001Y0291423D01*
X0370880Y0291525D01*
X0370762Y0291630D01*
X0370647Y0291739D01*
X0370534Y0291850D01*
X0370424Y0291964D01*
X0370317Y0292081D01*
X0370213Y0292200D01*
X0370112Y0292322D01*
X0370015Y0292447D01*
X0369920Y0292574D01*
X0369829Y0292703D01*
X0369740Y0292834D01*
X0369656Y0292968D01*
X0369574Y0293104D01*
X0369496Y0293241D01*
X0369422Y0293381D01*
X0369351Y0293523D01*
X0369283Y0293666D01*
X0369219Y0293811D01*
X0369159Y0293957D01*
X0369103Y0294105D01*
X0369050Y0294254D01*
X0369001Y0294405D01*
X0368956Y0294557D01*
X0368915Y0294710D01*
X0368877Y0294863D01*
X0368844Y0295018D01*
X0368814Y0295174D01*
X0368788Y0295330D01*
X0368767Y0295487D01*
X0368749Y0295644D01*
X0368735Y0295802D01*
X0368725Y0295960D01*
X0368719Y0296118D01*
X0368717Y0296276D01*
X0368115Y0021008D02*
X0368117Y0021166D01*
X0368123Y0021324D01*
X0368133Y0021482D01*
X0368147Y0021640D01*
X0368165Y0021797D01*
X0368186Y0021954D01*
X0368212Y0022110D01*
X0368242Y0022266D01*
X0368275Y0022421D01*
X0368313Y0022574D01*
X0368354Y0022727D01*
X0368399Y0022879D01*
X0368448Y0023030D01*
X0368501Y0023179D01*
X0368557Y0023327D01*
X0368617Y0023473D01*
X0368681Y0023618D01*
X0368749Y0023761D01*
X0368820Y0023903D01*
X0368894Y0024043D01*
X0368972Y0024180D01*
X0369054Y0024316D01*
X0369138Y0024450D01*
X0369227Y0024581D01*
X0369318Y0024710D01*
X0369413Y0024837D01*
X0369510Y0024962D01*
X0369611Y0025084D01*
X0369715Y0025203D01*
X0369822Y0025320D01*
X0369932Y0025434D01*
X0370045Y0025545D01*
X0370160Y0025654D01*
X0370278Y0025759D01*
X0370399Y0025861D01*
X0370522Y0025961D01*
X0370648Y0026057D01*
X0370776Y0026150D01*
X0370906Y0026240D01*
X0371039Y0026326D01*
X0371174Y0026410D01*
X0371310Y0026489D01*
X0371449Y0026566D01*
X0371590Y0026638D01*
X0371732Y0026708D01*
X0371876Y0026773D01*
X0372022Y0026835D01*
X0372169Y0026893D01*
X0372318Y0026948D01*
X0372468Y0026999D01*
X0372619Y0027046D01*
X0372771Y0027089D01*
X0372924Y0027128D01*
X0373079Y0027164D01*
X0373234Y0027195D01*
X0373390Y0027223D01*
X0373546Y0027247D01*
X0373703Y0027267D01*
X0373861Y0027283D01*
X0374018Y0027295D01*
X0374177Y0027303D01*
X0374335Y0027307D01*
X0374493Y0027307D01*
X0374651Y0027303D01*
X0374810Y0027295D01*
X0374967Y0027283D01*
X0375125Y0027267D01*
X0375282Y0027247D01*
X0375438Y0027223D01*
X0375594Y0027195D01*
X0375749Y0027164D01*
X0375904Y0027128D01*
X0376057Y0027089D01*
X0376209Y0027046D01*
X0376360Y0026999D01*
X0376510Y0026948D01*
X0376659Y0026893D01*
X0376806Y0026835D01*
X0376952Y0026773D01*
X0377096Y0026708D01*
X0377238Y0026638D01*
X0377379Y0026566D01*
X0377518Y0026489D01*
X0377654Y0026410D01*
X0377789Y0026326D01*
X0377922Y0026240D01*
X0378052Y0026150D01*
X0378180Y0026057D01*
X0378306Y0025961D01*
X0378429Y0025861D01*
X0378550Y0025759D01*
X0378668Y0025654D01*
X0378783Y0025545D01*
X0378896Y0025434D01*
X0379006Y0025320D01*
X0379113Y0025203D01*
X0379217Y0025084D01*
X0379318Y0024962D01*
X0379415Y0024837D01*
X0379510Y0024710D01*
X0379601Y0024581D01*
X0379690Y0024450D01*
X0379774Y0024316D01*
X0379856Y0024180D01*
X0379934Y0024043D01*
X0380008Y0023903D01*
X0380079Y0023761D01*
X0380147Y0023618D01*
X0380211Y0023473D01*
X0380271Y0023327D01*
X0380327Y0023179D01*
X0380380Y0023030D01*
X0380429Y0022879D01*
X0380474Y0022727D01*
X0380515Y0022574D01*
X0380553Y0022421D01*
X0380586Y0022266D01*
X0380616Y0022110D01*
X0380642Y0021954D01*
X0380663Y0021797D01*
X0380681Y0021640D01*
X0380695Y0021482D01*
X0380705Y0021324D01*
X0380711Y0021166D01*
X0380713Y0021008D01*
X0380711Y0020850D01*
X0380705Y0020692D01*
X0380695Y0020534D01*
X0380681Y0020376D01*
X0380663Y0020219D01*
X0380642Y0020062D01*
X0380616Y0019906D01*
X0380586Y0019750D01*
X0380553Y0019595D01*
X0380515Y0019442D01*
X0380474Y0019289D01*
X0380429Y0019137D01*
X0380380Y0018986D01*
X0380327Y0018837D01*
X0380271Y0018689D01*
X0380211Y0018543D01*
X0380147Y0018398D01*
X0380079Y0018255D01*
X0380008Y0018113D01*
X0379934Y0017973D01*
X0379856Y0017836D01*
X0379774Y0017700D01*
X0379690Y0017566D01*
X0379601Y0017435D01*
X0379510Y0017306D01*
X0379415Y0017179D01*
X0379318Y0017054D01*
X0379217Y0016932D01*
X0379113Y0016813D01*
X0379006Y0016696D01*
X0378896Y0016582D01*
X0378783Y0016471D01*
X0378668Y0016362D01*
X0378550Y0016257D01*
X0378429Y0016155D01*
X0378306Y0016055D01*
X0378180Y0015959D01*
X0378052Y0015866D01*
X0377922Y0015776D01*
X0377789Y0015690D01*
X0377654Y0015606D01*
X0377518Y0015527D01*
X0377379Y0015450D01*
X0377238Y0015378D01*
X0377096Y0015308D01*
X0376952Y0015243D01*
X0376806Y0015181D01*
X0376659Y0015123D01*
X0376510Y0015068D01*
X0376360Y0015017D01*
X0376209Y0014970D01*
X0376057Y0014927D01*
X0375904Y0014888D01*
X0375749Y0014852D01*
X0375594Y0014821D01*
X0375438Y0014793D01*
X0375282Y0014769D01*
X0375125Y0014749D01*
X0374967Y0014733D01*
X0374810Y0014721D01*
X0374651Y0014713D01*
X0374493Y0014709D01*
X0374335Y0014709D01*
X0374177Y0014713D01*
X0374018Y0014721D01*
X0373861Y0014733D01*
X0373703Y0014749D01*
X0373546Y0014769D01*
X0373390Y0014793D01*
X0373234Y0014821D01*
X0373079Y0014852D01*
X0372924Y0014888D01*
X0372771Y0014927D01*
X0372619Y0014970D01*
X0372468Y0015017D01*
X0372318Y0015068D01*
X0372169Y0015123D01*
X0372022Y0015181D01*
X0371876Y0015243D01*
X0371732Y0015308D01*
X0371590Y0015378D01*
X0371449Y0015450D01*
X0371310Y0015527D01*
X0371174Y0015606D01*
X0371039Y0015690D01*
X0370906Y0015776D01*
X0370776Y0015866D01*
X0370648Y0015959D01*
X0370522Y0016055D01*
X0370399Y0016155D01*
X0370278Y0016257D01*
X0370160Y0016362D01*
X0370045Y0016471D01*
X0369932Y0016582D01*
X0369822Y0016696D01*
X0369715Y0016813D01*
X0369611Y0016932D01*
X0369510Y0017054D01*
X0369413Y0017179D01*
X0369318Y0017306D01*
X0369227Y0017435D01*
X0369138Y0017566D01*
X0369054Y0017700D01*
X0368972Y0017836D01*
X0368894Y0017973D01*
X0368820Y0018113D01*
X0368749Y0018255D01*
X0368681Y0018398D01*
X0368617Y0018543D01*
X0368557Y0018689D01*
X0368501Y0018837D01*
X0368448Y0018986D01*
X0368399Y0019137D01*
X0368354Y0019289D01*
X0368313Y0019442D01*
X0368275Y0019595D01*
X0368242Y0019750D01*
X0368212Y0019906D01*
X0368186Y0020062D01*
X0368165Y0020219D01*
X0368147Y0020376D01*
X0368133Y0020534D01*
X0368123Y0020692D01*
X0368117Y0020850D01*
X0368115Y0021008D01*
D11*
X0025117Y0035179D02*
X0019412Y0035179D01*
X0022265Y0035179D02*
X0023215Y0036130D01*
X0023215Y0038031D01*
X0022265Y0038982D01*
X0019412Y0038982D01*
X0020363Y0042207D02*
X0019412Y0043158D01*
X0020363Y0042207D02*
X0024166Y0042207D01*
X0023215Y0041256D02*
X0023215Y0043158D01*
X0023215Y0045308D02*
X0023215Y0047209D01*
X0024166Y0046258D02*
X0020363Y0046258D01*
X0019412Y0047209D01*
X0019412Y0049359D02*
X0019412Y0052212D01*
X0020363Y0053162D01*
X0022265Y0053162D01*
X0023215Y0052212D01*
X0023215Y0049359D01*
X0017511Y0049359D01*
X0019412Y0055436D02*
X0019412Y0058289D01*
X0020363Y0059240D01*
X0021314Y0058289D01*
X0021314Y0056387D01*
X0022265Y0055436D01*
X0023215Y0056387D01*
X0023215Y0059240D01*
X0023215Y0061513D02*
X0022265Y0061513D01*
X0022265Y0062464D01*
X0023215Y0062464D01*
X0023215Y0061513D01*
X0020363Y0061513D02*
X0019412Y0061513D01*
X0019412Y0062464D01*
X0020363Y0062464D01*
X0020363Y0061513D01*
X0019412Y0064552D02*
X0025117Y0068355D01*
X0025117Y0074433D02*
X0019412Y0070629D01*
X0020363Y0076706D02*
X0019412Y0077657D01*
X0019412Y0080510D01*
X0018461Y0080510D02*
X0023215Y0080510D01*
X0023215Y0077657D01*
X0022265Y0076706D01*
X0020363Y0076706D01*
X0017511Y0078608D02*
X0017511Y0079559D01*
X0018461Y0080510D01*
X0019412Y0082784D02*
X0019412Y0084685D01*
X0019412Y0083734D02*
X0023215Y0083734D01*
X0023215Y0082784D01*
X0025117Y0083734D02*
X0026068Y0083734D01*
X0023215Y0086835D02*
X0023215Y0088737D01*
X0024166Y0087786D02*
X0020363Y0087786D01*
X0019412Y0088737D01*
X0019412Y0090887D02*
X0025117Y0090887D01*
X0023215Y0091837D02*
X0023215Y0093739D01*
X0022265Y0094690D01*
X0019412Y0094690D01*
X0020363Y0096964D02*
X0019412Y0097915D01*
X0019412Y0100767D01*
X0023215Y0100767D01*
X0023215Y0103041D02*
X0023215Y0105893D01*
X0022265Y0106844D01*
X0020363Y0106844D01*
X0019412Y0105893D01*
X0019412Y0103041D01*
X0025117Y0103041D01*
X0023215Y0096964D02*
X0020363Y0096964D01*
X0023215Y0091837D02*
X0022265Y0090887D01*
X0020363Y0109118D02*
X0019412Y0109118D01*
X0019412Y0110069D01*
X0020363Y0110069D01*
X0020363Y0109118D01*
X0020363Y0112157D02*
X0019412Y0113108D01*
X0019412Y0115960D01*
X0020363Y0118234D02*
X0019412Y0119185D01*
X0019412Y0121086D01*
X0020363Y0122037D01*
X0022265Y0122037D01*
X0023215Y0121086D01*
X0023215Y0119185D01*
X0022265Y0118234D01*
X0020363Y0118234D01*
X0023215Y0115960D02*
X0023215Y0113108D01*
X0022265Y0112157D01*
X0020363Y0112157D01*
X0019412Y0124311D02*
X0023215Y0124311D01*
X0023215Y0125262D01*
X0022265Y0126213D01*
X0023215Y0127164D01*
X0022265Y0128114D01*
X0019412Y0128114D01*
X0019412Y0126213D02*
X0022265Y0126213D01*
X0019412Y0130388D02*
X0025117Y0134192D01*
X0025117Y0136465D02*
X0019412Y0136465D01*
X0021314Y0136465D02*
X0019412Y0139318D01*
X0020363Y0141530D02*
X0019412Y0142481D01*
X0019412Y0144382D01*
X0021314Y0145333D02*
X0021314Y0141530D01*
X0022265Y0141530D02*
X0023215Y0142481D01*
X0023215Y0144382D01*
X0022265Y0145333D01*
X0021314Y0145333D01*
X0021314Y0147607D02*
X0023215Y0150459D01*
X0023215Y0152671D02*
X0020363Y0152671D01*
X0019412Y0153622D01*
X0019412Y0156475D01*
X0018461Y0156475D02*
X0017511Y0155524D01*
X0017511Y0154573D01*
X0018461Y0156475D02*
X0023215Y0156475D01*
X0022265Y0158748D02*
X0020363Y0158748D01*
X0019412Y0159699D01*
X0019412Y0161601D01*
X0020363Y0162552D01*
X0022265Y0162552D01*
X0023215Y0161601D01*
X0023215Y0159699D01*
X0022265Y0158748D01*
X0019412Y0164826D02*
X0025117Y0168629D01*
X0024166Y0170903D02*
X0023215Y0170903D01*
X0022265Y0171854D01*
X0022265Y0173755D01*
X0021314Y0174706D01*
X0020363Y0174706D01*
X0019412Y0173755D01*
X0019412Y0171854D01*
X0020363Y0170903D01*
X0024166Y0170903D02*
X0025117Y0171854D01*
X0025117Y0173755D01*
X0024166Y0174706D01*
X0023215Y0176980D02*
X0023215Y0179832D01*
X0022265Y0180783D01*
X0020363Y0180783D01*
X0019412Y0179832D01*
X0019412Y0176980D01*
X0017511Y0176980D02*
X0023215Y0176980D01*
X0020363Y0183057D02*
X0021314Y0184008D01*
X0021314Y0186860D01*
X0022265Y0186860D02*
X0019412Y0186860D01*
X0019412Y0184008D01*
X0020363Y0183057D01*
X0023215Y0184008D02*
X0023215Y0185910D01*
X0022265Y0186860D01*
X0023215Y0189134D02*
X0019412Y0189134D01*
X0021314Y0189134D02*
X0023215Y0191036D01*
X0023215Y0191987D01*
X0023215Y0194199D02*
X0023215Y0196100D01*
X0024166Y0195150D02*
X0020363Y0195150D01*
X0019412Y0196100D01*
X0020363Y0198250D02*
X0019412Y0199201D01*
X0019412Y0202053D01*
X0022265Y0202053D01*
X0023215Y0201103D01*
X0023215Y0199201D01*
X0021314Y0199201D02*
X0021314Y0202053D01*
X0021314Y0199201D02*
X0020363Y0198250D01*
X0019412Y0204327D02*
X0023215Y0204327D01*
X0023215Y0207180D01*
X0022265Y0208131D01*
X0019412Y0208131D01*
X0019412Y0210405D02*
X0023215Y0214208D01*
X0024166Y0214208D01*
X0025117Y0213257D01*
X0025117Y0211355D01*
X0024166Y0210405D01*
X0019412Y0210405D02*
X0019412Y0214208D01*
X0019412Y0216482D02*
X0019412Y0219334D01*
X0020363Y0220285D01*
X0021314Y0220285D01*
X0022265Y0219334D01*
X0022265Y0216482D01*
X0025117Y0216482D02*
X0025117Y0219334D01*
X0024166Y0220285D01*
X0023215Y0220285D01*
X0022265Y0219334D01*
X0022265Y0222559D02*
X0020363Y0222559D01*
X0019412Y0223510D01*
X0019412Y0225411D01*
X0020363Y0226362D01*
X0022265Y0226362D01*
X0023215Y0225411D01*
X0023215Y0223510D01*
X0022265Y0222559D01*
X0023215Y0228636D02*
X0019412Y0228636D01*
X0019412Y0232439D02*
X0022265Y0232439D01*
X0023215Y0231489D01*
X0023215Y0228636D01*
X0022265Y0234713D02*
X0023215Y0235664D01*
X0023215Y0237566D01*
X0022265Y0238517D01*
X0021314Y0238517D01*
X0021314Y0234713D01*
X0020363Y0234713D02*
X0022265Y0234713D01*
X0020363Y0234713D02*
X0019412Y0235664D01*
X0019412Y0237566D01*
X0019412Y0216482D02*
X0025117Y0216482D01*
X0019412Y0150459D02*
X0021314Y0147607D01*
X0019412Y0147607D02*
X0025117Y0147607D01*
X0022265Y0141530D02*
X0020363Y0141530D01*
X0023215Y0139318D02*
X0021314Y0136465D01*
D12*
X0059199Y0120504D03*
X0079199Y0120504D03*
X0079199Y0100504D03*
X0059199Y0100504D03*
X0059199Y0080504D03*
X0079199Y0080504D03*
X0117297Y0057664D03*
X0137297Y0057664D03*
X0137510Y0030440D03*
X0117510Y0030440D03*
X0158761Y0097123D03*
X0178761Y0097123D03*
X0192662Y0097064D03*
X0202944Y0085586D03*
X0212662Y0097064D03*
X0222944Y0085586D03*
X0277566Y0076696D03*
X0277566Y0096696D03*
X0270111Y0161877D03*
X0290111Y0161877D03*
X0290141Y0183961D03*
X0270141Y0183961D03*
X0250882Y0218030D03*
X0230882Y0218030D03*
X0173884Y0218035D03*
X0153884Y0218035D03*
X0128585Y0193882D03*
X0128585Y0173882D03*
X0128571Y0160608D03*
X0128571Y0140608D03*
D13*
X0165757Y0057994D03*
X0165891Y0030636D03*
D14*
X0175891Y0030636D03*
X0175757Y0057994D03*
D15*
X0226942Y0281463D03*
X0043572Y0281692D03*
D16*
X0053572Y0281692D03*
X0063572Y0281692D03*
X0073572Y0281692D03*
X0083572Y0281692D03*
X0093572Y0281692D03*
X0103572Y0281692D03*
X0113572Y0281692D03*
X0123572Y0281692D03*
X0133572Y0281692D03*
X0143572Y0281692D03*
X0153572Y0281692D03*
X0163572Y0281692D03*
X0173572Y0281692D03*
X0183572Y0281692D03*
X0193572Y0281692D03*
X0203572Y0281692D03*
X0203572Y0271692D03*
X0193572Y0271692D03*
X0183572Y0271692D03*
X0173572Y0271692D03*
X0163572Y0271692D03*
X0153572Y0271692D03*
X0143572Y0271692D03*
X0133572Y0271692D03*
X0123572Y0271692D03*
X0113572Y0271692D03*
X0103572Y0271692D03*
X0093572Y0271692D03*
X0083572Y0271692D03*
X0073572Y0271692D03*
X0063572Y0271692D03*
X0053572Y0271692D03*
X0043572Y0271692D03*
X0226942Y0271463D03*
X0236942Y0271463D03*
X0236942Y0281463D03*
X0246942Y0281463D03*
X0256942Y0281463D03*
X0256942Y0271463D03*
X0246942Y0271463D03*
X0266942Y0271463D03*
X0276942Y0271463D03*
X0276942Y0281463D03*
X0266942Y0281463D03*
X0286942Y0281463D03*
X0286942Y0271463D03*
X0296942Y0271463D03*
X0306942Y0271463D03*
X0306942Y0281463D03*
X0296942Y0281463D03*
X0316942Y0281463D03*
X0326942Y0281463D03*
X0326942Y0271463D03*
X0316942Y0271463D03*
X0336942Y0271463D03*
X0346942Y0271463D03*
X0346942Y0281463D03*
X0336942Y0281463D03*
D17*
X0285558Y0031089D03*
D18*
X0285558Y0041089D03*
X0285558Y0051089D03*
D19*
X0358440Y0177527D02*
X0364440Y0177527D01*
X0364440Y0187527D02*
X0358440Y0187527D01*
X0358440Y0197527D02*
X0364440Y0197527D01*
X0364440Y0207527D02*
X0358440Y0207527D01*
X0358440Y0217527D02*
X0364440Y0217527D01*
X0364440Y0227527D02*
X0358440Y0227527D01*
D20*
X0361440Y0227527D02*
X0372368Y0227527D01*
X0376698Y0223197D01*
X0376835Y0070329D01*
X0370992Y0065445D01*
X0366393Y0065445D01*
X0355466Y0076372D01*
X0280318Y0076372D01*
X0278159Y0074213D01*
X0269821Y0065876D01*
X0269821Y0045605D01*
X0274338Y0041089D01*
X0285558Y0041089D01*
X0285558Y0031089D02*
X0212245Y0031089D01*
X0185878Y0057994D01*
X0175757Y0057994D01*
X0166006Y0058243D02*
X0166006Y0068608D01*
X0173770Y0076372D01*
X0124612Y0076372D01*
X0117297Y0069056D01*
X0117297Y0057664D01*
X0063738Y0057664D01*
X0059199Y0062203D01*
X0059199Y0080504D01*
X0059199Y0100504D01*
X0059199Y0120504D01*
X0045964Y0117760D02*
X0045964Y0123360D01*
X0035964Y0123360D02*
X0035964Y0117760D01*
X0035964Y0120560D02*
X0035964Y0100560D01*
X0035964Y0080560D01*
X0036002Y0032938D01*
X0048138Y0021021D01*
X0141951Y0020885D01*
X0137510Y0025325D01*
X0137510Y0030440D01*
X0141951Y0020885D02*
X0167643Y0020885D01*
X0175891Y0029132D01*
X0175891Y0030636D01*
X0175891Y0021521D01*
X0176528Y0020885D01*
X0167643Y0020885D01*
X0176528Y0020885D02*
X0185642Y0020885D01*
X0295262Y0020885D01*
X0302837Y0028460D01*
X0303210Y0028460D01*
X0303210Y0045318D01*
X0313328Y0055437D01*
X0323444Y0055437D01*
X0339623Y0055437D01*
X0349615Y0045445D01*
X0366393Y0045445D01*
X0369193Y0045445D02*
X0363593Y0045445D01*
X0363593Y0055445D02*
X0369193Y0055445D01*
X0369193Y0065445D02*
X0363593Y0065445D01*
X0326244Y0065437D02*
X0320644Y0065437D01*
X0323444Y0065437D02*
X0296860Y0065437D01*
X0285558Y0054135D01*
X0285558Y0051089D01*
X0280318Y0076372D02*
X0196725Y0076372D01*
X0192662Y0080435D01*
X0192662Y0097064D01*
X0196725Y0076372D02*
X0183351Y0076372D01*
X0173770Y0076372D01*
X0166006Y0058243D02*
X0165757Y0057994D01*
X0165757Y0030770D01*
X0165891Y0030636D01*
X0175891Y0030636D02*
X0185642Y0020885D01*
X0117510Y0030440D02*
X0117297Y0030653D01*
X0117297Y0057664D01*
X0045964Y0077760D02*
X0045964Y0083360D01*
X0035964Y0083360D02*
X0035964Y0077760D01*
X0035964Y0097760D02*
X0035964Y0103360D01*
X0045964Y0103360D02*
X0045964Y0097760D01*
X0320644Y0055437D02*
X0326244Y0055437D01*
X0326244Y0045437D02*
X0320644Y0045437D01*
D21*
X0245094Y0107791D02*
X0222949Y0085646D01*
X0218800Y0092200D02*
X0202000Y0092200D01*
X0218800Y0092200D02*
X0221965Y0095365D01*
X0221965Y0100600D01*
X0221965Y0116157D01*
X0223441Y0125016D02*
X0222457Y0126000D01*
X0212122Y0126000D01*
X0217535Y0135350D02*
X0231807Y0135350D01*
X0234268Y0127969D02*
X0231807Y0125508D01*
X0234268Y0127969D02*
X0234268Y0148146D01*
X0234760Y0152083D02*
X0223933Y0141256D01*
X0215075Y0141256D01*
X0215075Y0143717D02*
X0214091Y0143717D01*
X0212614Y0142240D01*
X0212614Y0140272D01*
X0217535Y0135350D01*
X0215075Y0143717D02*
X0219996Y0148638D01*
X0219996Y0154543D01*
X0223441Y0157988D01*
X0223441Y0181610D01*
X0215075Y0189976D01*
X0212614Y0190961D02*
X0212614Y0188992D01*
X0220980Y0180626D01*
X0217535Y0181610D02*
X0211138Y0188008D01*
X0211138Y0191945D01*
X0218520Y0199327D01*
X0232791Y0199327D01*
X0235252Y0198343D02*
X0233776Y0196866D01*
X0218520Y0196866D01*
X0212614Y0190961D01*
X0217535Y0181610D02*
X0217535Y0155035D01*
X0222457Y0153559D02*
X0222457Y0143717D01*
X0245094Y0129445D02*
X0245094Y0119800D01*
X0245110Y0119800D01*
X0245800Y0119110D01*
X0245094Y0118405D01*
X0245094Y0118000D01*
X0245094Y0107791D01*
X0245094Y0118000D02*
X0245094Y0118600D01*
X0245605Y0119110D01*
X0245800Y0119110D01*
X0310547Y0119110D01*
X0315469Y0124031D01*
X0315469Y0140272D01*
X0309563Y0134366D02*
X0293815Y0134366D01*
X0284465Y0143717D01*
X0284465Y0183579D01*
X0287909Y0187024D01*
X0287909Y0224917D01*
X0285449Y0219012D02*
X0259366Y0192929D01*
X0259366Y0180626D01*
X0253461Y0180626D02*
X0253461Y0192437D01*
X0275114Y0214091D01*
X0275114Y0229839D01*
X0299228Y0253953D01*
X0296768Y0248047D02*
X0282988Y0234268D01*
X0282988Y0219504D01*
X0256413Y0192929D01*
X0256413Y0157004D01*
X0259858Y0157004D02*
X0259858Y0168323D01*
X0282004Y0190469D01*
X0282004Y0212122D01*
X0285449Y0214091D02*
X0285449Y0191453D01*
X0262811Y0168815D01*
X0262811Y0158972D01*
X0248047Y0165370D02*
X0248047Y0209661D01*
X0254937Y0216551D01*
X0254937Y0253953D01*
X0245587Y0257890D02*
X0242634Y0260843D01*
X0242634Y0273146D01*
X0246571Y0277083D01*
X0262811Y0277083D01*
X0266748Y0281020D01*
X0266942Y0281463D01*
X0271177Y0280035D02*
X0271177Y0282988D01*
X0264287Y0289878D01*
X0271177Y0280035D02*
X0266748Y0275606D01*
X0261335Y0275606D01*
X0257398Y0271669D01*
X0256942Y0271463D01*
X0245587Y0257890D02*
X0245587Y0197850D01*
X0243126Y0196866D02*
X0245587Y0194406D01*
X0245587Y0188992D01*
X0245590Y0188199D01*
X0245590Y0180730D01*
X0245694Y0180626D01*
X0250508Y0175213D02*
X0250508Y0209661D01*
X0257398Y0216551D01*
X0257398Y0228854D01*
X0273146Y0229839D02*
X0273146Y0236728D01*
X0290370Y0253953D01*
X0286433Y0264287D02*
X0295291Y0264287D01*
X0302673Y0271669D01*
X0302673Y0273146D01*
X0305134Y0275606D01*
X0309071Y0275606D01*
X0312516Y0279051D01*
X0312516Y0296276D01*
X0311039Y0294307D02*
X0310055Y0295291D01*
X0310055Y0297260D01*
X0311531Y0298736D01*
X0313500Y0298736D01*
X0326787Y0285449D01*
X0326787Y0281512D01*
X0326942Y0281463D01*
X0311039Y0280035D02*
X0311039Y0294307D01*
X0311039Y0280035D02*
X0308087Y0277083D01*
X0304150Y0277083D01*
X0303657Y0276591D01*
X0293004Y0276599D01*
X0243126Y0244110D02*
X0243126Y0196866D01*
X0235252Y0198343D02*
X0235252Y0206709D01*
X0234760Y0207201D01*
X0252969Y0209661D02*
X0252969Y0195390D01*
X0252969Y0209661D02*
X0273146Y0229839D01*
X0234760Y0255921D02*
X0232791Y0253953D01*
X0232791Y0239189D01*
X0222949Y0239189D02*
X0222949Y0260843D01*
X0221965Y0261827D01*
X0221965Y0264780D01*
X0222949Y0265764D01*
X0222949Y0267732D01*
X0220488Y0270193D01*
X0220488Y0266748D02*
X0220488Y0238697D01*
X0210154Y0228362D01*
X0210154Y0222949D01*
X0216551Y0238205D02*
X0219012Y0240665D01*
X0219012Y0247555D01*
X0212614Y0253953D01*
X0210154Y0251492D02*
X0216551Y0245094D01*
X0216551Y0241650D01*
X0230823Y0256413D02*
X0224425Y0262811D01*
X0203756Y0261827D02*
X0193913Y0271669D01*
X0193572Y0271692D01*
X0184071Y0276591D02*
X0189484Y0282004D01*
X0189484Y0283480D01*
X0191945Y0285941D01*
X0205232Y0285941D01*
X0207693Y0283480D01*
X0207693Y0276098D01*
X0203756Y0272161D01*
X0203572Y0271692D01*
X0184071Y0276591D02*
X0159757Y0276578D01*
X0163572Y0271692D02*
X0163894Y0271669D01*
X0172260Y0263303D01*
X0169799Y0253953D02*
X0162417Y0246571D01*
X0162417Y0171276D01*
X0147654Y0170783D02*
X0142732Y0175705D01*
X0142732Y0187516D01*
X0062516Y0267732D01*
X0061531Y0267732D01*
X0059563Y0269701D01*
X0059563Y0273638D01*
X0063500Y0277575D01*
X0075311Y0277575D01*
X0078756Y0281020D01*
X0073572Y0281692D02*
X0073343Y0282004D01*
X0069406Y0285941D01*
X0041846Y0285941D01*
X0036433Y0280528D01*
X0036433Y0266748D01*
X0115665Y0187516D01*
X0120587Y0187516D01*
X0140272Y0167831D01*
X0140272Y0160941D01*
X0137811Y0158480D02*
X0133382Y0162909D01*
X0147654Y0157004D02*
X0147654Y0170783D01*
X0147654Y0174720D02*
X0147654Y0188008D01*
X0063992Y0271669D01*
X0063572Y0271692D01*
X0061531Y0266256D02*
X0059071Y0266256D01*
X0053657Y0271669D01*
X0053572Y0271692D01*
X0049228Y0273146D02*
X0053657Y0277575D01*
X0059563Y0277575D01*
X0063500Y0281512D01*
X0063572Y0281692D01*
X0053572Y0281692D02*
X0053165Y0281512D01*
X0049228Y0277575D01*
X0043815Y0277575D01*
X0039386Y0273146D01*
X0039386Y0270193D01*
X0041846Y0267732D01*
X0042339Y0267732D01*
X0120094Y0189976D01*
X0128461Y0188500D02*
X0088598Y0228362D01*
X0088598Y0230823D01*
X0049228Y0270193D01*
X0049228Y0273146D01*
X0043815Y0271669D02*
X0043572Y0271692D01*
X0043815Y0271669D02*
X0086138Y0229346D01*
X0074819Y0231807D02*
X0037909Y0268717D01*
X0037909Y0276098D01*
X0043323Y0281512D01*
X0043572Y0281692D01*
X0061531Y0266256D02*
X0140272Y0187516D01*
X0140272Y0179150D01*
X0128461Y0187516D02*
X0128461Y0188500D01*
X0154051Y0212614D02*
X0157988Y0216551D01*
X0157988Y0233776D01*
X0139287Y0252476D01*
X0123047Y0252476D01*
X0139287Y0254937D02*
X0086630Y0254937D01*
X0079248Y0262319D01*
X0079248Y0273146D01*
X0081709Y0275606D01*
X0090075Y0275606D01*
X0093520Y0272161D01*
X0093572Y0271692D01*
X0097949Y0270193D02*
X0097949Y0277575D01*
X0094012Y0281512D01*
X0093572Y0281692D01*
X0097949Y0270193D02*
X0091059Y0263303D01*
X0103572Y0271692D02*
X0103854Y0271669D01*
X0110252Y0265272D01*
X0117634Y0277575D02*
X0113697Y0281512D01*
X0113572Y0281692D01*
X0117634Y0277575D02*
X0133382Y0277575D01*
X0137811Y0273146D01*
X0137811Y0271669D01*
X0145193Y0264287D01*
X0139287Y0254937D02*
X0159465Y0234760D01*
X0159465Y0157004D01*
X0154051Y0148146D02*
X0154051Y0212614D01*
X0164878Y0219996D02*
X0176689Y0208185D01*
X0176689Y0152083D01*
X0185055Y0143717D01*
X0185055Y0142240D01*
X0174228Y0129937D02*
X0179150Y0125016D01*
X0179150Y0123047D01*
X0166846Y0110744D01*
X0155528Y0110744D01*
X0133382Y0132890D01*
X0132398Y0129445D02*
X0128953Y0129445D01*
X0080232Y0080724D01*
X0079248Y0080724D01*
X0079199Y0080504D01*
X0079199Y0100504D02*
X0079248Y0100902D01*
X0097949Y0100902D01*
X0142732Y0145685D01*
X0133382Y0139780D02*
X0114189Y0120587D01*
X0079248Y0120587D01*
X0079199Y0120504D01*
X0150114Y0127969D02*
X0150114Y0238205D01*
X0185055Y0246571D02*
X0185055Y0253953D01*
X0295783Y0170291D02*
X0336630Y0211138D01*
X0334169Y0205232D02*
X0295783Y0166846D01*
X0285449Y0140272D02*
X0283480Y0140272D01*
X0285449Y0140272D02*
X0297752Y0127969D01*
X0292891Y0111236D02*
X0339583Y0111236D01*
X0245800Y0119110D02*
X0245094Y0119110D01*
X0245094Y0119800D01*
X0245094Y0119110D02*
X0245094Y0118600D01*
X0221965Y0100600D02*
X0221965Y0100409D01*
X0176689Y0124031D02*
X0168815Y0131906D01*
X0174228Y0129937D02*
X0174228Y0155035D01*
X0150114Y0127969D02*
X0154051Y0124031D01*
D22*
X0154051Y0124031D03*
X0168815Y0131906D03*
X0176689Y0124031D03*
X0185055Y0142240D03*
X0174228Y0155035D03*
X0159465Y0157004D03*
X0154051Y0148146D03*
X0142732Y0145685D03*
X0133382Y0139780D03*
X0133382Y0132890D03*
X0132398Y0129445D03*
X0147654Y0157004D03*
X0140272Y0160941D03*
X0137811Y0158480D03*
X0133382Y0162909D03*
X0147654Y0174720D03*
X0140272Y0179150D03*
X0128461Y0187516D03*
X0120094Y0189976D03*
X0162417Y0171276D03*
X0215075Y0189976D03*
X0220980Y0180626D03*
X0232791Y0199327D03*
X0234760Y0207201D03*
X0245587Y0197850D03*
X0252969Y0195390D03*
X0243126Y0189976D03*
X0245694Y0180626D03*
X0250508Y0175213D03*
X0253461Y0180626D03*
X0259366Y0180626D03*
X0248047Y0165370D03*
X0256413Y0157004D03*
X0259858Y0157004D03*
X0262811Y0158972D03*
X0284465Y0143717D03*
X0283480Y0140272D03*
X0297752Y0127969D03*
X0309563Y0134366D03*
X0315469Y0140272D03*
X0312024Y0157004D03*
X0295783Y0166846D03*
X0295783Y0170291D03*
X0290970Y0195390D03*
X0282004Y0212122D03*
X0285449Y0214091D03*
X0285449Y0219012D03*
X0287909Y0224917D03*
X0257398Y0228854D03*
X0243126Y0244110D03*
X0232791Y0239189D03*
X0222949Y0239189D03*
X0216551Y0238205D03*
X0216551Y0241650D03*
X0210154Y0251492D03*
X0212614Y0253953D03*
X0203756Y0261827D03*
X0220488Y0266748D03*
X0220488Y0270193D03*
X0224425Y0262811D03*
X0230823Y0256413D03*
X0234760Y0255921D03*
X0254937Y0253953D03*
X0286433Y0264287D03*
X0290370Y0253953D03*
X0296768Y0248047D03*
X0299228Y0253953D03*
X0293004Y0276599D03*
X0312516Y0296276D03*
X0264287Y0289878D03*
X0185055Y0253953D03*
X0185055Y0246571D03*
X0169799Y0253953D03*
X0172260Y0263303D03*
X0159757Y0276578D03*
X0145193Y0264287D03*
X0123047Y0252476D03*
X0110252Y0265272D03*
X0091059Y0263303D03*
X0078756Y0281020D03*
X0074819Y0231807D03*
X0086138Y0229346D03*
X0150114Y0238205D03*
X0164878Y0219996D03*
X0210154Y0222949D03*
X0217535Y0155035D03*
X0222457Y0153559D03*
X0222457Y0143717D03*
X0215075Y0141256D03*
X0231807Y0135350D03*
X0231807Y0125508D03*
X0223441Y0125016D03*
X0219430Y0119785D03*
X0221965Y0116157D03*
X0211253Y0116053D03*
X0212122Y0126000D03*
X0234268Y0148146D03*
X0234760Y0152083D03*
X0245094Y0129445D03*
X0292891Y0111236D03*
X0309563Y0121571D03*
X0321374Y0114681D03*
X0339583Y0111236D03*
X0334169Y0205232D03*
X0336630Y0211138D03*
D23*
X0243126Y0189976D02*
X0242983Y0187929D01*
X0242882Y0185879D01*
X0242820Y0183828D01*
X0242800Y0181776D01*
X0242800Y0168400D01*
X0242805Y0167961D01*
X0242821Y0167522D01*
X0242847Y0167083D01*
X0242884Y0166645D01*
X0242932Y0166209D01*
X0242989Y0165773D01*
X0243057Y0165339D01*
X0243136Y0164907D01*
X0243225Y0164477D01*
X0243324Y0164049D01*
X0243434Y0163623D01*
X0243553Y0163201D01*
X0243683Y0162781D01*
X0243823Y0162364D01*
X0243972Y0161951D01*
X0244132Y0161542D01*
X0244301Y0161137D01*
X0244480Y0160736D01*
X0244669Y0160339D01*
X0244867Y0159947D01*
X0245074Y0159559D01*
X0245290Y0159177D01*
X0245516Y0158800D01*
X0245751Y0158429D01*
X0245994Y0158063D01*
X0246246Y0157703D01*
X0246507Y0157350D01*
X0246776Y0157003D01*
X0247054Y0156662D01*
X0247339Y0156328D01*
X0247632Y0156001D01*
X0247933Y0155681D01*
X0248242Y0155369D01*
X0248558Y0155064D01*
X0248882Y0154766D01*
X0249212Y0154477D01*
X0249549Y0154195D01*
X0249893Y0153922D01*
X0250243Y0153657D01*
X0250600Y0153400D01*
X0275800Y0128200D01*
X0290800Y0121600D02*
X0309534Y0121600D01*
X0309563Y0121571D01*
X0321374Y0114681D02*
X0321374Y0147654D01*
X0312024Y0157004D01*
X0290800Y0121600D02*
X0290260Y0121631D01*
X0289721Y0121674D01*
X0289183Y0121729D01*
X0288646Y0121798D01*
X0288112Y0121880D01*
X0287579Y0121974D01*
X0287049Y0122081D01*
X0286521Y0122201D01*
X0285997Y0122333D01*
X0285475Y0122478D01*
X0284958Y0122635D01*
X0284444Y0122804D01*
X0283935Y0122986D01*
X0283430Y0123180D01*
X0282930Y0123386D01*
X0282434Y0123604D01*
X0281945Y0123834D01*
X0281460Y0124075D01*
X0280982Y0124328D01*
X0280510Y0124592D01*
X0280045Y0124867D01*
X0279586Y0125154D01*
X0279134Y0125451D01*
X0278689Y0125759D01*
X0278252Y0126078D01*
X0277823Y0126407D01*
X0277401Y0126746D01*
X0276988Y0127095D01*
X0276583Y0127454D01*
X0276187Y0127823D01*
X0275800Y0128200D01*
X0290756Y0107517D02*
X0302390Y0107517D01*
X0240577Y0128846D02*
X0240577Y0261836D01*
X0240581Y0261957D01*
X0240582Y0262077D01*
X0240578Y0262198D01*
X0240571Y0262318D01*
X0240559Y0262438D01*
X0240544Y0262558D01*
X0240525Y0262677D01*
X0240502Y0262795D01*
X0240476Y0262913D01*
X0240445Y0263029D01*
X0240411Y0263145D01*
X0240373Y0263260D01*
X0240332Y0263373D01*
X0240287Y0263485D01*
X0240238Y0263595D01*
X0240185Y0263704D01*
X0240130Y0263810D01*
X0240070Y0263915D01*
X0240008Y0264019D01*
X0239942Y0264120D01*
X0239873Y0264218D01*
X0239801Y0264315D01*
X0239725Y0264409D01*
X0239647Y0264501D01*
X0239566Y0264590D01*
X0239482Y0264676D01*
X0239395Y0264760D01*
X0239306Y0264841D01*
X0239214Y0264919D01*
X0239119Y0264994D01*
X0239022Y0265066D01*
X0238923Y0265134D01*
X0238822Y0265200D01*
X0238719Y0265262D01*
X0238613Y0265321D01*
X0238506Y0265376D01*
X0238397Y0265428D01*
X0238287Y0265476D01*
X0238175Y0265521D01*
X0238061Y0265562D01*
X0237947Y0265600D01*
X0237831Y0265633D01*
X0237714Y0265663D01*
X0237596Y0265689D01*
X0237478Y0265712D01*
X0237359Y0265730D01*
X0237239Y0265745D01*
X0237119Y0265756D01*
X0236999Y0265763D01*
X0236878Y0265766D01*
X0236758Y0265765D01*
X0232878Y0262295D02*
X0230990Y0262295D01*
X0232878Y0262296D02*
X0233008Y0262307D01*
X0233139Y0262314D01*
X0233269Y0262317D01*
X0233400Y0262316D01*
X0233531Y0262311D01*
X0233661Y0262303D01*
X0233791Y0262291D01*
X0233921Y0262274D01*
X0234050Y0262254D01*
X0234179Y0262230D01*
X0234307Y0262203D01*
X0234434Y0262171D01*
X0234560Y0262136D01*
X0234684Y0262097D01*
X0234808Y0262054D01*
X0234930Y0262008D01*
X0235051Y0261958D01*
X0235171Y0261905D01*
X0235288Y0261848D01*
X0235404Y0261787D01*
X0235518Y0261723D01*
X0235631Y0261656D01*
X0235741Y0261586D01*
X0235849Y0261512D01*
X0235954Y0261435D01*
X0236058Y0261355D01*
X0236159Y0261272D01*
X0236257Y0261186D01*
X0236353Y0261097D01*
X0236447Y0261006D01*
X0236537Y0260911D01*
X0236625Y0260814D01*
X0236709Y0260715D01*
X0236791Y0260612D01*
X0236870Y0260508D01*
X0236945Y0260401D01*
X0237018Y0260292D01*
X0237087Y0260181D01*
X0237153Y0260068D01*
X0237215Y0259953D01*
X0237274Y0259837D01*
X0237329Y0259718D01*
X0237381Y0259598D01*
X0237430Y0259477D01*
X0237474Y0259354D01*
X0237515Y0259230D01*
X0237553Y0259104D01*
X0237586Y0258978D01*
X0237616Y0258851D01*
X0237642Y0258722D01*
X0237664Y0258594D01*
X0237683Y0258464D01*
X0237697Y0258334D01*
X0237708Y0258204D01*
X0237710Y0130571D01*
X0240577Y0128846D02*
X0240574Y0128624D01*
X0240566Y0128402D01*
X0240552Y0128180D01*
X0240533Y0127959D01*
X0240509Y0127738D01*
X0240479Y0127517D01*
X0240443Y0127298D01*
X0240403Y0127080D01*
X0240357Y0126862D01*
X0240305Y0126646D01*
X0240249Y0126431D01*
X0240187Y0126218D01*
X0240120Y0126006D01*
X0240047Y0125796D01*
X0239970Y0125587D01*
X0239887Y0125381D01*
X0239800Y0125177D01*
X0239707Y0124975D01*
X0239610Y0124775D01*
X0239507Y0124578D01*
X0239400Y0124383D01*
X0239288Y0124191D01*
X0239172Y0124002D01*
X0239050Y0123816D01*
X0238925Y0123633D01*
X0238794Y0123452D01*
X0238660Y0123276D01*
X0238521Y0123102D01*
X0238378Y0122932D01*
X0238231Y0122766D01*
X0238079Y0122603D01*
X0237924Y0122444D01*
X0237765Y0122289D01*
X0237602Y0122137D01*
X0237436Y0121990D01*
X0237266Y0121847D01*
X0237092Y0121708D01*
X0236916Y0121574D01*
X0236735Y0121443D01*
X0236552Y0121318D01*
X0236366Y0121196D01*
X0236177Y0121080D01*
X0235985Y0120968D01*
X0235790Y0120861D01*
X0235593Y0120758D01*
X0235393Y0120661D01*
X0235191Y0120568D01*
X0234987Y0120481D01*
X0234781Y0120398D01*
X0234572Y0120321D01*
X0234362Y0120248D01*
X0234150Y0120181D01*
X0233937Y0120119D01*
X0233722Y0120063D01*
X0233506Y0120011D01*
X0233288Y0119965D01*
X0233070Y0119925D01*
X0232851Y0119889D01*
X0232630Y0119859D01*
X0232409Y0119835D01*
X0232188Y0119816D01*
X0231966Y0119802D01*
X0231744Y0119794D01*
X0231522Y0119791D01*
X0231522Y0119792D02*
X0219430Y0119785D01*
X0217611Y0122411D02*
X0217507Y0122409D01*
X0217404Y0122403D01*
X0217300Y0122394D01*
X0217197Y0122381D01*
X0217095Y0122364D01*
X0216993Y0122343D01*
X0216892Y0122319D01*
X0216792Y0122291D01*
X0216693Y0122259D01*
X0216596Y0122223D01*
X0216499Y0122185D01*
X0216405Y0122142D01*
X0216312Y0122097D01*
X0216220Y0122047D01*
X0216130Y0121995D01*
X0216043Y0121939D01*
X0215957Y0121880D01*
X0215874Y0121818D01*
X0215793Y0121753D01*
X0215714Y0121686D01*
X0215638Y0121615D01*
X0215565Y0121542D01*
X0215494Y0121466D01*
X0215427Y0121387D01*
X0215362Y0121306D01*
X0215300Y0121223D01*
X0215241Y0121137D01*
X0215185Y0121050D01*
X0215133Y0120960D01*
X0215083Y0120868D01*
X0215038Y0120775D01*
X0214995Y0120681D01*
X0214957Y0120584D01*
X0214921Y0120487D01*
X0214889Y0120388D01*
X0214861Y0120288D01*
X0214837Y0120187D01*
X0214816Y0120085D01*
X0214799Y0119983D01*
X0214786Y0119880D01*
X0214777Y0119776D01*
X0214771Y0119673D01*
X0214769Y0119569D01*
X0214769Y0117817D01*
X0214767Y0117736D01*
X0214761Y0117654D01*
X0214752Y0117573D01*
X0214739Y0117493D01*
X0214722Y0117413D01*
X0214702Y0117334D01*
X0214678Y0117256D01*
X0214650Y0117180D01*
X0214619Y0117104D01*
X0214584Y0117031D01*
X0214546Y0116959D01*
X0214505Y0116888D01*
X0214460Y0116820D01*
X0214413Y0116754D01*
X0214362Y0116690D01*
X0214309Y0116629D01*
X0214252Y0116570D01*
X0214193Y0116513D01*
X0214132Y0116460D01*
X0214068Y0116409D01*
X0214002Y0116362D01*
X0213934Y0116317D01*
X0213863Y0116276D01*
X0213791Y0116238D01*
X0213718Y0116203D01*
X0213642Y0116172D01*
X0213566Y0116144D01*
X0213488Y0116120D01*
X0213409Y0116100D01*
X0213329Y0116083D01*
X0213249Y0116070D01*
X0213168Y0116061D01*
X0213086Y0116055D01*
X0213005Y0116053D01*
X0211253Y0116053D01*
X0217611Y0122411D02*
X0229550Y0122411D01*
X0229747Y0122413D01*
X0229944Y0122421D01*
X0230141Y0122432D01*
X0230338Y0122449D01*
X0230534Y0122470D01*
X0230729Y0122497D01*
X0230924Y0122527D01*
X0231118Y0122563D01*
X0231311Y0122603D01*
X0231503Y0122648D01*
X0231694Y0122698D01*
X0231883Y0122752D01*
X0232072Y0122810D01*
X0232258Y0122874D01*
X0232444Y0122941D01*
X0232627Y0123013D01*
X0232809Y0123090D01*
X0232989Y0123171D01*
X0233166Y0123256D01*
X0233342Y0123346D01*
X0233516Y0123439D01*
X0233687Y0123537D01*
X0233856Y0123639D01*
X0234022Y0123745D01*
X0234185Y0123855D01*
X0234346Y0123969D01*
X0234504Y0124087D01*
X0234660Y0124209D01*
X0234812Y0124334D01*
X0234961Y0124463D01*
X0235107Y0124596D01*
X0235250Y0124732D01*
X0235389Y0124871D01*
X0235525Y0125014D01*
X0235658Y0125160D01*
X0235787Y0125309D01*
X0235912Y0125461D01*
X0236034Y0125617D01*
X0236152Y0125775D01*
X0236266Y0125936D01*
X0236376Y0126099D01*
X0236482Y0126265D01*
X0236584Y0126434D01*
X0236682Y0126605D01*
X0236775Y0126779D01*
X0236865Y0126955D01*
X0236950Y0127132D01*
X0237031Y0127312D01*
X0237108Y0127494D01*
X0237180Y0127677D01*
X0237247Y0127863D01*
X0237311Y0128049D01*
X0237369Y0128238D01*
X0237423Y0128427D01*
X0237473Y0128618D01*
X0237518Y0128810D01*
X0237558Y0129003D01*
X0237594Y0129197D01*
X0237624Y0129392D01*
X0237651Y0129587D01*
X0237672Y0129783D01*
X0237689Y0129980D01*
X0237700Y0130177D01*
X0237708Y0130374D01*
X0237710Y0130571D01*
X0214706Y0146872D02*
X0214706Y0163374D01*
X0210611Y0167468D01*
X0205394Y0178197D02*
X0205346Y0178245D01*
X0205344Y0184138D02*
X0207841Y0184138D01*
X0207841Y0184138D01*
X0205343Y0187743D02*
X0205344Y0187743D01*
X0205343Y0187743D02*
X0203088Y0187743D01*
X0190326Y0183146D02*
X0187800Y0185672D01*
X0185466Y0185672D01*
X0184998Y0181981D02*
X0184830Y0181813D01*
X0184872Y0175314D02*
X0184830Y0175272D01*
X0165954Y0198716D02*
X0165956Y0198827D01*
X0165962Y0198939D01*
X0165971Y0199050D01*
X0165985Y0199161D01*
X0166003Y0199271D01*
X0166024Y0199380D01*
X0166049Y0199489D01*
X0166078Y0199596D01*
X0166110Y0199703D01*
X0166147Y0199808D01*
X0166187Y0199912D01*
X0166230Y0200015D01*
X0166277Y0200116D01*
X0166328Y0200215D01*
X0166382Y0200313D01*
X0166439Y0200409D01*
X0166500Y0200502D01*
X0166564Y0200593D01*
X0166631Y0200682D01*
X0166701Y0200769D01*
X0166774Y0200853D01*
X0166850Y0200935D01*
X0166929Y0201014D01*
X0167011Y0201090D01*
X0167095Y0201163D01*
X0167182Y0201233D01*
X0167271Y0201300D01*
X0167362Y0201364D01*
X0167455Y0201425D01*
X0167551Y0201482D01*
X0167649Y0201536D01*
X0167748Y0201587D01*
X0167849Y0201634D01*
X0167952Y0201677D01*
X0168056Y0201717D01*
X0168161Y0201754D01*
X0168268Y0201786D01*
X0168375Y0201815D01*
X0168484Y0201840D01*
X0168593Y0201861D01*
X0168703Y0201879D01*
X0168814Y0201893D01*
X0168925Y0201902D01*
X0169037Y0201908D01*
X0169148Y0201910D01*
X0174152Y0201910D01*
X0165954Y0198716D02*
X0165954Y0113721D01*
X0165952Y0113704D01*
X0165947Y0113688D01*
X0165940Y0113673D01*
X0165929Y0113660D01*
X0165916Y0113649D01*
X0165901Y0113642D01*
X0165885Y0113637D01*
X0165868Y0113635D01*
X0156934Y0118206D02*
X0156905Y0118235D01*
X0156905Y0195625D01*
X0190326Y0151449D02*
X0192389Y0151060D01*
X0190326Y0145997D02*
X0189756Y0145427D01*
X0187080Y0145427D01*
X0197849Y0150081D02*
X0198365Y0150598D01*
X0199851Y0150598D01*
X0290970Y0195390D02*
X0292600Y0197020D01*
X0292600Y0239800D01*
X0236757Y0265765D02*
X0236622Y0265764D01*
X0236487Y0265767D01*
X0236351Y0265773D01*
X0236216Y0265784D01*
X0236082Y0265799D01*
X0235948Y0265817D01*
X0235814Y0265839D01*
X0235682Y0265865D01*
X0235550Y0265895D01*
X0235418Y0265929D01*
X0235288Y0265967D01*
X0235160Y0266008D01*
X0235032Y0266053D01*
X0234906Y0266102D01*
X0234781Y0266154D01*
X0234658Y0266210D01*
X0234536Y0266269D01*
X0234416Y0266332D01*
X0234298Y0266399D01*
X0234182Y0266469D01*
X0234069Y0266542D01*
X0233957Y0266618D01*
X0233847Y0266698D01*
X0233740Y0266780D01*
X0233636Y0266866D01*
X0233534Y0266955D01*
X0233434Y0267047D01*
X0233337Y0267141D01*
X0233243Y0267239D01*
X0233152Y0267339D01*
X0233064Y0267441D01*
X0232979Y0267547D01*
X0232896Y0267654D01*
X0232818Y0267764D01*
X0232742Y0267876D01*
X0232669Y0267990D01*
X0232600Y0268107D01*
X0232534Y0268225D01*
X0232472Y0268345D01*
X0232413Y0268467D01*
X0232358Y0268591D01*
X0232307Y0268716D01*
X0232259Y0268842D01*
X0232214Y0268970D01*
X0232174Y0269099D01*
X0232137Y0269230D01*
X0232104Y0269361D01*
X0232075Y0269493D01*
X0232049Y0269626D01*
X0232028Y0269760D01*
X0232010Y0269894D01*
X0231997Y0270028D01*
X0231987Y0270163D01*
X0231981Y0270299D01*
X0231979Y0270434D01*
X0231979Y0276426D01*
X0231978Y0276426D02*
X0231976Y0276567D01*
X0231970Y0276708D01*
X0231960Y0276849D01*
X0231946Y0276990D01*
X0231929Y0277130D01*
X0231907Y0277270D01*
X0231881Y0277408D01*
X0231852Y0277547D01*
X0231818Y0277684D01*
X0231781Y0277820D01*
X0231740Y0277955D01*
X0231695Y0278089D01*
X0231647Y0278222D01*
X0231595Y0278353D01*
X0231539Y0278483D01*
X0231479Y0278611D01*
X0231416Y0278737D01*
X0231350Y0278862D01*
X0231280Y0278985D01*
X0231206Y0279105D01*
X0231129Y0279224D01*
X0231049Y0279340D01*
X0230966Y0279454D01*
X0230879Y0279566D01*
X0230790Y0279675D01*
X0230697Y0279782D01*
X0230601Y0279886D01*
X0230503Y0279987D01*
X0230402Y0280085D01*
X0230298Y0280181D01*
X0230191Y0280274D01*
X0230082Y0280363D01*
X0229970Y0280450D01*
X0229856Y0280533D01*
X0229740Y0280613D01*
X0229621Y0280690D01*
X0229501Y0280764D01*
X0229378Y0280834D01*
X0229253Y0280900D01*
X0229127Y0280963D01*
X0228999Y0281023D01*
X0228869Y0281079D01*
X0228738Y0281131D01*
X0228605Y0281179D01*
X0228471Y0281224D01*
X0228336Y0281265D01*
X0228200Y0281302D01*
X0228063Y0281336D01*
X0227924Y0281365D01*
X0227786Y0281391D01*
X0227646Y0281413D01*
X0227506Y0281430D01*
X0227365Y0281444D01*
X0227224Y0281454D01*
X0227083Y0281460D01*
X0226942Y0281462D01*
X0226942Y0281463D02*
X0226942Y0281456D01*
X0226942Y0271463D02*
X0226942Y0266344D01*
X0226944Y0266219D01*
X0226950Y0266095D01*
X0226959Y0265970D01*
X0226973Y0265847D01*
X0226990Y0265723D01*
X0227011Y0265600D01*
X0227036Y0265478D01*
X0227064Y0265357D01*
X0227097Y0265236D01*
X0227132Y0265117D01*
X0227172Y0264999D01*
X0227215Y0264882D01*
X0227262Y0264766D01*
X0227313Y0264652D01*
X0227366Y0264540D01*
X0227424Y0264429D01*
X0227484Y0264320D01*
X0227548Y0264213D01*
X0227616Y0264108D01*
X0227686Y0264005D01*
X0227760Y0263905D01*
X0227836Y0263806D01*
X0227916Y0263710D01*
X0227998Y0263617D01*
X0228084Y0263526D01*
X0228172Y0263438D01*
X0228263Y0263352D01*
X0228356Y0263270D01*
X0228452Y0263190D01*
X0228551Y0263114D01*
X0228651Y0263040D01*
X0228754Y0262970D01*
X0228859Y0262902D01*
X0228966Y0262838D01*
X0229075Y0262778D01*
X0229186Y0262720D01*
X0229298Y0262667D01*
X0229412Y0262616D01*
X0229528Y0262569D01*
X0229645Y0262526D01*
X0229763Y0262486D01*
X0229882Y0262451D01*
X0230003Y0262418D01*
X0230124Y0262390D01*
X0230246Y0262365D01*
X0230369Y0262344D01*
X0230493Y0262327D01*
X0230616Y0262313D01*
X0230741Y0262304D01*
X0230865Y0262298D01*
X0230990Y0262296D01*
D24*
X0292600Y0239800D03*
X0207841Y0184138D03*
X0203088Y0187743D03*
X0198020Y0187580D03*
X0190326Y0180637D03*
X0184998Y0181981D03*
X0185466Y0185672D03*
X0184872Y0175314D03*
X0184830Y0166322D03*
X0190326Y0163534D03*
X0197926Y0168612D03*
X0205347Y0172201D03*
X0210611Y0167468D03*
X0205349Y0164729D03*
X0211279Y0158363D03*
X0214706Y0146872D03*
X0199851Y0150598D03*
X0197918Y0157464D03*
X0192389Y0151060D03*
X0187080Y0145427D03*
X0156934Y0118206D03*
X0165868Y0113635D03*
X0202000Y0092200D03*
X0278380Y0114190D03*
X0290756Y0107517D03*
X0302390Y0107517D03*
X0174152Y0201910D03*
X0156905Y0195625D03*
D25*
X0184830Y0181813D02*
X0184830Y0175272D01*
X0184830Y0166322D01*
X0205328Y0154216D02*
X0209475Y0158363D01*
X0211279Y0158363D01*
X0278380Y0114190D02*
X0278380Y0097510D01*
X0342954Y0119097D02*
X0343181Y0119100D01*
X0343408Y0119108D01*
X0343635Y0119122D01*
X0343862Y0119141D01*
X0344088Y0119166D01*
X0344313Y0119196D01*
X0344538Y0119231D01*
X0344761Y0119272D01*
X0344984Y0119319D01*
X0345205Y0119370D01*
X0345425Y0119427D01*
X0345644Y0119490D01*
X0345861Y0119557D01*
X0346076Y0119630D01*
X0346290Y0119708D01*
X0346501Y0119791D01*
X0346711Y0119880D01*
X0346918Y0119973D01*
X0347123Y0120071D01*
X0347326Y0120175D01*
X0347526Y0120283D01*
X0347723Y0120395D01*
X0347918Y0120513D01*
X0348109Y0120635D01*
X0348298Y0120762D01*
X0348483Y0120894D01*
X0348666Y0121029D01*
X0348845Y0121170D01*
X0349020Y0121314D01*
X0349192Y0121463D01*
X0349360Y0121616D01*
X0349525Y0121772D01*
X0349686Y0121933D01*
X0349842Y0122098D01*
X0349995Y0122266D01*
X0350144Y0122438D01*
X0350288Y0122613D01*
X0350429Y0122792D01*
X0350564Y0122975D01*
X0350696Y0123160D01*
X0350823Y0123349D01*
X0350945Y0123540D01*
X0351063Y0123735D01*
X0351175Y0123932D01*
X0351283Y0124132D01*
X0351387Y0124335D01*
X0351485Y0124540D01*
X0351578Y0124747D01*
X0351667Y0124957D01*
X0351750Y0125168D01*
X0351828Y0125382D01*
X0351901Y0125597D01*
X0351968Y0125814D01*
X0352031Y0126033D01*
X0352088Y0126253D01*
X0352139Y0126474D01*
X0352186Y0126697D01*
X0352227Y0126920D01*
X0352262Y0127145D01*
X0352292Y0127370D01*
X0352317Y0127596D01*
X0352336Y0127823D01*
X0352350Y0128050D01*
X0352358Y0128277D01*
X0352361Y0128504D01*
X0352361Y0208449D01*
X0352362Y0208449D02*
X0352365Y0208668D01*
X0352373Y0208888D01*
X0352386Y0209107D01*
X0352404Y0209325D01*
X0352428Y0209543D01*
X0352457Y0209761D01*
X0352492Y0209977D01*
X0352531Y0210193D01*
X0352576Y0210408D01*
X0352626Y0210622D01*
X0352681Y0210834D01*
X0352741Y0211045D01*
X0352806Y0211254D01*
X0352877Y0211462D01*
X0352952Y0211668D01*
X0353032Y0211872D01*
X0353117Y0212074D01*
X0353207Y0212274D01*
X0353302Y0212472D01*
X0353402Y0212668D01*
X0353506Y0212861D01*
X0353615Y0213051D01*
X0353729Y0213239D01*
X0353847Y0213424D01*
X0353969Y0213606D01*
X0354096Y0213785D01*
X0354227Y0213961D01*
X0354362Y0214134D01*
X0354502Y0214303D01*
X0354645Y0214469D01*
X0354792Y0214631D01*
X0354944Y0214790D01*
X0355099Y0214945D01*
X0355258Y0215097D01*
X0355420Y0215244D01*
X0355586Y0215387D01*
X0355755Y0215527D01*
X0355928Y0215662D01*
X0356104Y0215793D01*
X0356283Y0215920D01*
X0356465Y0216042D01*
X0356650Y0216160D01*
X0356838Y0216274D01*
X0357028Y0216383D01*
X0357221Y0216487D01*
X0357417Y0216587D01*
X0357615Y0216682D01*
X0357815Y0216772D01*
X0358017Y0216857D01*
X0358221Y0216937D01*
X0358427Y0217012D01*
X0358635Y0217083D01*
X0358844Y0217148D01*
X0359055Y0217208D01*
X0359267Y0217263D01*
X0359481Y0217313D01*
X0359696Y0217358D01*
X0359912Y0217397D01*
X0360128Y0217432D01*
X0360346Y0217461D01*
X0360564Y0217485D01*
X0360782Y0217503D01*
X0361001Y0217516D01*
X0361221Y0217524D01*
X0361440Y0217527D01*
D26*
X0293544Y0139757D03*
X0342954Y0119096D03*
D27*
X0361440Y0106215D02*
X0351920Y0096696D01*
X0277566Y0096696D01*
X0277566Y0113376D01*
X0278380Y0114190D01*
X0293544Y0139757D02*
X0293544Y0158443D01*
X0296977Y0161877D01*
X0290111Y0161877D01*
X0290141Y0161907D01*
X0290141Y0183961D01*
X0296977Y0161877D02*
X0337069Y0161877D01*
X0341432Y0166239D01*
X0341432Y0218142D01*
X0350818Y0227527D01*
X0361440Y0227527D01*
X0361440Y0254245D01*
X0357214Y0258470D01*
X0310066Y0258470D01*
X0279710Y0258470D01*
X0250160Y0258470D01*
X0246942Y0261688D01*
X0246942Y0271463D01*
X0246942Y0281463D02*
X0246942Y0291994D01*
X0242754Y0296183D01*
X0220615Y0296183D01*
X0215712Y0291280D01*
X0211049Y0295943D01*
X0188273Y0295943D01*
X0183572Y0291242D01*
X0183572Y0281692D01*
X0183572Y0271692D02*
X0183572Y0262478D01*
X0187377Y0258672D01*
X0138979Y0258672D01*
X0133572Y0264079D01*
X0133572Y0271692D01*
X0133572Y0281692D02*
X0133572Y0290736D01*
X0138778Y0295943D01*
X0088697Y0295943D01*
X0083572Y0290818D01*
X0083572Y0281692D01*
X0083572Y0271692D02*
X0083572Y0263130D01*
X0088117Y0258584D01*
X0088997Y0258584D01*
X0089085Y0258672D01*
X0138979Y0258672D01*
X0138778Y0295943D02*
X0188273Y0295943D01*
X0215712Y0291280D02*
X0215712Y0264216D01*
X0205328Y0253833D01*
X0205337Y0214364D01*
X0209004Y0218030D01*
X0230882Y0218030D01*
X0205337Y0214364D02*
X0205344Y0187743D01*
X0205344Y0184138D01*
X0205346Y0178245D01*
X0205347Y0172201D01*
X0205349Y0164729D01*
X0205339Y0159456D01*
X0205328Y0154216D01*
X0205328Y0104397D01*
X0212662Y0097064D01*
X0197849Y0102251D02*
X0197849Y0150081D01*
X0197918Y0157464D01*
X0197926Y0168612D01*
X0198020Y0187580D01*
X0197849Y0253920D01*
X0193097Y0258672D01*
X0187377Y0258672D01*
X0190333Y0218065D02*
X0190326Y0218058D01*
X0173907Y0218058D01*
X0173884Y0218035D01*
X0190326Y0218058D02*
X0190326Y0183146D01*
X0190326Y0180637D01*
X0190326Y0163534D01*
X0190326Y0151449D01*
X0190326Y0145997D01*
X0190326Y0113864D01*
X0184209Y0107747D01*
X0169386Y0107747D01*
X0158761Y0097123D01*
X0178761Y0097123D02*
X0178761Y0080962D01*
X0183351Y0076372D01*
X0192662Y0097064D02*
X0197849Y0102251D01*
X0128585Y0160622D02*
X0128585Y0173882D01*
X0128585Y0160622D02*
X0128571Y0160608D01*
X0071874Y0160608D01*
X0059199Y0147934D01*
X0059199Y0120504D01*
X0242754Y0296183D02*
X0272450Y0296183D01*
X0276942Y0291691D01*
X0276942Y0281463D01*
X0276942Y0271463D02*
X0276942Y0261238D01*
X0279710Y0258470D01*
X0306942Y0261595D02*
X0310066Y0258470D01*
X0306942Y0261595D02*
X0306942Y0271463D01*
X0306942Y0281463D02*
X0306942Y0291881D01*
X0302641Y0296183D01*
X0272450Y0296183D01*
X0361440Y0177527D02*
X0361440Y0106215D01*
X0277566Y0076696D02*
X0277566Y0074807D01*
X0278159Y0074213D01*
D28*
X0205328Y0154216D03*
M02*
