G75*
%MOIN*%
%OFA0B0*%
%FSLAX25Y25*%
%IPPOS*%
%LPD*%
%AMOC8*
5,1,8,0,0,1.08239X$1,22.5*
%
%ADD10C,0.00000*%
%ADD11C,0.12998*%
%ADD12OC8,0.05600*%
%ADD13OC8,0.06700*%
%ADD14C,0.06700*%
%ADD15C,0.06000*%
%ADD16OC8,0.06000*%
%ADD17R,0.07400X0.01500*%
%ADD18R,0.01500X0.07400*%
%ADD19R,0.07400X0.02000*%
%ADD20R,0.08500X0.08500*%
%ADD21C,0.08500*%
%ADD22C,0.06400*%
%ADD23C,0.06000*%
D10*
X0001000Y0001000D02*
X0001000Y0315961D01*
X0394701Y0315961D01*
X0394701Y0001000D01*
X0001000Y0001000D01*
X0014386Y0020685D02*
X0014388Y0020843D01*
X0014394Y0021001D01*
X0014404Y0021159D01*
X0014418Y0021317D01*
X0014436Y0021474D01*
X0014457Y0021631D01*
X0014483Y0021787D01*
X0014513Y0021943D01*
X0014546Y0022098D01*
X0014584Y0022251D01*
X0014625Y0022404D01*
X0014670Y0022556D01*
X0014719Y0022707D01*
X0014772Y0022856D01*
X0014828Y0023004D01*
X0014888Y0023150D01*
X0014952Y0023295D01*
X0015020Y0023438D01*
X0015091Y0023580D01*
X0015165Y0023720D01*
X0015243Y0023857D01*
X0015325Y0023993D01*
X0015409Y0024127D01*
X0015498Y0024258D01*
X0015589Y0024387D01*
X0015684Y0024514D01*
X0015781Y0024639D01*
X0015882Y0024761D01*
X0015986Y0024880D01*
X0016093Y0024997D01*
X0016203Y0025111D01*
X0016316Y0025222D01*
X0016431Y0025331D01*
X0016549Y0025436D01*
X0016670Y0025538D01*
X0016793Y0025638D01*
X0016919Y0025734D01*
X0017047Y0025827D01*
X0017177Y0025917D01*
X0017310Y0026003D01*
X0017445Y0026087D01*
X0017581Y0026166D01*
X0017720Y0026243D01*
X0017861Y0026315D01*
X0018003Y0026385D01*
X0018147Y0026450D01*
X0018293Y0026512D01*
X0018440Y0026570D01*
X0018589Y0026625D01*
X0018739Y0026676D01*
X0018890Y0026723D01*
X0019042Y0026766D01*
X0019195Y0026805D01*
X0019350Y0026841D01*
X0019505Y0026872D01*
X0019661Y0026900D01*
X0019817Y0026924D01*
X0019974Y0026944D01*
X0020132Y0026960D01*
X0020289Y0026972D01*
X0020448Y0026980D01*
X0020606Y0026984D01*
X0020764Y0026984D01*
X0020922Y0026980D01*
X0021081Y0026972D01*
X0021238Y0026960D01*
X0021396Y0026944D01*
X0021553Y0026924D01*
X0021709Y0026900D01*
X0021865Y0026872D01*
X0022020Y0026841D01*
X0022175Y0026805D01*
X0022328Y0026766D01*
X0022480Y0026723D01*
X0022631Y0026676D01*
X0022781Y0026625D01*
X0022930Y0026570D01*
X0023077Y0026512D01*
X0023223Y0026450D01*
X0023367Y0026385D01*
X0023509Y0026315D01*
X0023650Y0026243D01*
X0023789Y0026166D01*
X0023925Y0026087D01*
X0024060Y0026003D01*
X0024193Y0025917D01*
X0024323Y0025827D01*
X0024451Y0025734D01*
X0024577Y0025638D01*
X0024700Y0025538D01*
X0024821Y0025436D01*
X0024939Y0025331D01*
X0025054Y0025222D01*
X0025167Y0025111D01*
X0025277Y0024997D01*
X0025384Y0024880D01*
X0025488Y0024761D01*
X0025589Y0024639D01*
X0025686Y0024514D01*
X0025781Y0024387D01*
X0025872Y0024258D01*
X0025961Y0024127D01*
X0026045Y0023993D01*
X0026127Y0023857D01*
X0026205Y0023720D01*
X0026279Y0023580D01*
X0026350Y0023438D01*
X0026418Y0023295D01*
X0026482Y0023150D01*
X0026542Y0023004D01*
X0026598Y0022856D01*
X0026651Y0022707D01*
X0026700Y0022556D01*
X0026745Y0022404D01*
X0026786Y0022251D01*
X0026824Y0022098D01*
X0026857Y0021943D01*
X0026887Y0021787D01*
X0026913Y0021631D01*
X0026934Y0021474D01*
X0026952Y0021317D01*
X0026966Y0021159D01*
X0026976Y0021001D01*
X0026982Y0020843D01*
X0026984Y0020685D01*
X0026982Y0020527D01*
X0026976Y0020369D01*
X0026966Y0020211D01*
X0026952Y0020053D01*
X0026934Y0019896D01*
X0026913Y0019739D01*
X0026887Y0019583D01*
X0026857Y0019427D01*
X0026824Y0019272D01*
X0026786Y0019119D01*
X0026745Y0018966D01*
X0026700Y0018814D01*
X0026651Y0018663D01*
X0026598Y0018514D01*
X0026542Y0018366D01*
X0026482Y0018220D01*
X0026418Y0018075D01*
X0026350Y0017932D01*
X0026279Y0017790D01*
X0026205Y0017650D01*
X0026127Y0017513D01*
X0026045Y0017377D01*
X0025961Y0017243D01*
X0025872Y0017112D01*
X0025781Y0016983D01*
X0025686Y0016856D01*
X0025589Y0016731D01*
X0025488Y0016609D01*
X0025384Y0016490D01*
X0025277Y0016373D01*
X0025167Y0016259D01*
X0025054Y0016148D01*
X0024939Y0016039D01*
X0024821Y0015934D01*
X0024700Y0015832D01*
X0024577Y0015732D01*
X0024451Y0015636D01*
X0024323Y0015543D01*
X0024193Y0015453D01*
X0024060Y0015367D01*
X0023925Y0015283D01*
X0023789Y0015204D01*
X0023650Y0015127D01*
X0023509Y0015055D01*
X0023367Y0014985D01*
X0023223Y0014920D01*
X0023077Y0014858D01*
X0022930Y0014800D01*
X0022781Y0014745D01*
X0022631Y0014694D01*
X0022480Y0014647D01*
X0022328Y0014604D01*
X0022175Y0014565D01*
X0022020Y0014529D01*
X0021865Y0014498D01*
X0021709Y0014470D01*
X0021553Y0014446D01*
X0021396Y0014426D01*
X0021238Y0014410D01*
X0021081Y0014398D01*
X0020922Y0014390D01*
X0020764Y0014386D01*
X0020606Y0014386D01*
X0020448Y0014390D01*
X0020289Y0014398D01*
X0020132Y0014410D01*
X0019974Y0014426D01*
X0019817Y0014446D01*
X0019661Y0014470D01*
X0019505Y0014498D01*
X0019350Y0014529D01*
X0019195Y0014565D01*
X0019042Y0014604D01*
X0018890Y0014647D01*
X0018739Y0014694D01*
X0018589Y0014745D01*
X0018440Y0014800D01*
X0018293Y0014858D01*
X0018147Y0014920D01*
X0018003Y0014985D01*
X0017861Y0015055D01*
X0017720Y0015127D01*
X0017581Y0015204D01*
X0017445Y0015283D01*
X0017310Y0015367D01*
X0017177Y0015453D01*
X0017047Y0015543D01*
X0016919Y0015636D01*
X0016793Y0015732D01*
X0016670Y0015832D01*
X0016549Y0015934D01*
X0016431Y0016039D01*
X0016316Y0016148D01*
X0016203Y0016259D01*
X0016093Y0016373D01*
X0015986Y0016490D01*
X0015882Y0016609D01*
X0015781Y0016731D01*
X0015684Y0016856D01*
X0015589Y0016983D01*
X0015498Y0017112D01*
X0015409Y0017243D01*
X0015325Y0017377D01*
X0015243Y0017513D01*
X0015165Y0017650D01*
X0015091Y0017790D01*
X0015020Y0017932D01*
X0014952Y0018075D01*
X0014888Y0018220D01*
X0014828Y0018366D01*
X0014772Y0018514D01*
X0014719Y0018663D01*
X0014670Y0018814D01*
X0014625Y0018966D01*
X0014584Y0019119D01*
X0014546Y0019272D01*
X0014513Y0019427D01*
X0014483Y0019583D01*
X0014457Y0019739D01*
X0014436Y0019896D01*
X0014418Y0020053D01*
X0014404Y0020211D01*
X0014394Y0020369D01*
X0014388Y0020527D01*
X0014386Y0020685D01*
X0014386Y0296276D02*
X0014388Y0296434D01*
X0014394Y0296592D01*
X0014404Y0296750D01*
X0014418Y0296908D01*
X0014436Y0297065D01*
X0014457Y0297222D01*
X0014483Y0297378D01*
X0014513Y0297534D01*
X0014546Y0297689D01*
X0014584Y0297842D01*
X0014625Y0297995D01*
X0014670Y0298147D01*
X0014719Y0298298D01*
X0014772Y0298447D01*
X0014828Y0298595D01*
X0014888Y0298741D01*
X0014952Y0298886D01*
X0015020Y0299029D01*
X0015091Y0299171D01*
X0015165Y0299311D01*
X0015243Y0299448D01*
X0015325Y0299584D01*
X0015409Y0299718D01*
X0015498Y0299849D01*
X0015589Y0299978D01*
X0015684Y0300105D01*
X0015781Y0300230D01*
X0015882Y0300352D01*
X0015986Y0300471D01*
X0016093Y0300588D01*
X0016203Y0300702D01*
X0016316Y0300813D01*
X0016431Y0300922D01*
X0016549Y0301027D01*
X0016670Y0301129D01*
X0016793Y0301229D01*
X0016919Y0301325D01*
X0017047Y0301418D01*
X0017177Y0301508D01*
X0017310Y0301594D01*
X0017445Y0301678D01*
X0017581Y0301757D01*
X0017720Y0301834D01*
X0017861Y0301906D01*
X0018003Y0301976D01*
X0018147Y0302041D01*
X0018293Y0302103D01*
X0018440Y0302161D01*
X0018589Y0302216D01*
X0018739Y0302267D01*
X0018890Y0302314D01*
X0019042Y0302357D01*
X0019195Y0302396D01*
X0019350Y0302432D01*
X0019505Y0302463D01*
X0019661Y0302491D01*
X0019817Y0302515D01*
X0019974Y0302535D01*
X0020132Y0302551D01*
X0020289Y0302563D01*
X0020448Y0302571D01*
X0020606Y0302575D01*
X0020764Y0302575D01*
X0020922Y0302571D01*
X0021081Y0302563D01*
X0021238Y0302551D01*
X0021396Y0302535D01*
X0021553Y0302515D01*
X0021709Y0302491D01*
X0021865Y0302463D01*
X0022020Y0302432D01*
X0022175Y0302396D01*
X0022328Y0302357D01*
X0022480Y0302314D01*
X0022631Y0302267D01*
X0022781Y0302216D01*
X0022930Y0302161D01*
X0023077Y0302103D01*
X0023223Y0302041D01*
X0023367Y0301976D01*
X0023509Y0301906D01*
X0023650Y0301834D01*
X0023789Y0301757D01*
X0023925Y0301678D01*
X0024060Y0301594D01*
X0024193Y0301508D01*
X0024323Y0301418D01*
X0024451Y0301325D01*
X0024577Y0301229D01*
X0024700Y0301129D01*
X0024821Y0301027D01*
X0024939Y0300922D01*
X0025054Y0300813D01*
X0025167Y0300702D01*
X0025277Y0300588D01*
X0025384Y0300471D01*
X0025488Y0300352D01*
X0025589Y0300230D01*
X0025686Y0300105D01*
X0025781Y0299978D01*
X0025872Y0299849D01*
X0025961Y0299718D01*
X0026045Y0299584D01*
X0026127Y0299448D01*
X0026205Y0299311D01*
X0026279Y0299171D01*
X0026350Y0299029D01*
X0026418Y0298886D01*
X0026482Y0298741D01*
X0026542Y0298595D01*
X0026598Y0298447D01*
X0026651Y0298298D01*
X0026700Y0298147D01*
X0026745Y0297995D01*
X0026786Y0297842D01*
X0026824Y0297689D01*
X0026857Y0297534D01*
X0026887Y0297378D01*
X0026913Y0297222D01*
X0026934Y0297065D01*
X0026952Y0296908D01*
X0026966Y0296750D01*
X0026976Y0296592D01*
X0026982Y0296434D01*
X0026984Y0296276D01*
X0026982Y0296118D01*
X0026976Y0295960D01*
X0026966Y0295802D01*
X0026952Y0295644D01*
X0026934Y0295487D01*
X0026913Y0295330D01*
X0026887Y0295174D01*
X0026857Y0295018D01*
X0026824Y0294863D01*
X0026786Y0294710D01*
X0026745Y0294557D01*
X0026700Y0294405D01*
X0026651Y0294254D01*
X0026598Y0294105D01*
X0026542Y0293957D01*
X0026482Y0293811D01*
X0026418Y0293666D01*
X0026350Y0293523D01*
X0026279Y0293381D01*
X0026205Y0293241D01*
X0026127Y0293104D01*
X0026045Y0292968D01*
X0025961Y0292834D01*
X0025872Y0292703D01*
X0025781Y0292574D01*
X0025686Y0292447D01*
X0025589Y0292322D01*
X0025488Y0292200D01*
X0025384Y0292081D01*
X0025277Y0291964D01*
X0025167Y0291850D01*
X0025054Y0291739D01*
X0024939Y0291630D01*
X0024821Y0291525D01*
X0024700Y0291423D01*
X0024577Y0291323D01*
X0024451Y0291227D01*
X0024323Y0291134D01*
X0024193Y0291044D01*
X0024060Y0290958D01*
X0023925Y0290874D01*
X0023789Y0290795D01*
X0023650Y0290718D01*
X0023509Y0290646D01*
X0023367Y0290576D01*
X0023223Y0290511D01*
X0023077Y0290449D01*
X0022930Y0290391D01*
X0022781Y0290336D01*
X0022631Y0290285D01*
X0022480Y0290238D01*
X0022328Y0290195D01*
X0022175Y0290156D01*
X0022020Y0290120D01*
X0021865Y0290089D01*
X0021709Y0290061D01*
X0021553Y0290037D01*
X0021396Y0290017D01*
X0021238Y0290001D01*
X0021081Y0289989D01*
X0020922Y0289981D01*
X0020764Y0289977D01*
X0020606Y0289977D01*
X0020448Y0289981D01*
X0020289Y0289989D01*
X0020132Y0290001D01*
X0019974Y0290017D01*
X0019817Y0290037D01*
X0019661Y0290061D01*
X0019505Y0290089D01*
X0019350Y0290120D01*
X0019195Y0290156D01*
X0019042Y0290195D01*
X0018890Y0290238D01*
X0018739Y0290285D01*
X0018589Y0290336D01*
X0018440Y0290391D01*
X0018293Y0290449D01*
X0018147Y0290511D01*
X0018003Y0290576D01*
X0017861Y0290646D01*
X0017720Y0290718D01*
X0017581Y0290795D01*
X0017445Y0290874D01*
X0017310Y0290958D01*
X0017177Y0291044D01*
X0017047Y0291134D01*
X0016919Y0291227D01*
X0016793Y0291323D01*
X0016670Y0291423D01*
X0016549Y0291525D01*
X0016431Y0291630D01*
X0016316Y0291739D01*
X0016203Y0291850D01*
X0016093Y0291964D01*
X0015986Y0292081D01*
X0015882Y0292200D01*
X0015781Y0292322D01*
X0015684Y0292447D01*
X0015589Y0292574D01*
X0015498Y0292703D01*
X0015409Y0292834D01*
X0015325Y0292968D01*
X0015243Y0293104D01*
X0015165Y0293241D01*
X0015091Y0293381D01*
X0015020Y0293523D01*
X0014952Y0293666D01*
X0014888Y0293811D01*
X0014828Y0293957D01*
X0014772Y0294105D01*
X0014719Y0294254D01*
X0014670Y0294405D01*
X0014625Y0294557D01*
X0014584Y0294710D01*
X0014546Y0294863D01*
X0014513Y0295018D01*
X0014483Y0295174D01*
X0014457Y0295330D01*
X0014436Y0295487D01*
X0014418Y0295644D01*
X0014404Y0295802D01*
X0014394Y0295960D01*
X0014388Y0296118D01*
X0014386Y0296276D01*
X0368717Y0296276D02*
X0368719Y0296434D01*
X0368725Y0296592D01*
X0368735Y0296750D01*
X0368749Y0296908D01*
X0368767Y0297065D01*
X0368788Y0297222D01*
X0368814Y0297378D01*
X0368844Y0297534D01*
X0368877Y0297689D01*
X0368915Y0297842D01*
X0368956Y0297995D01*
X0369001Y0298147D01*
X0369050Y0298298D01*
X0369103Y0298447D01*
X0369159Y0298595D01*
X0369219Y0298741D01*
X0369283Y0298886D01*
X0369351Y0299029D01*
X0369422Y0299171D01*
X0369496Y0299311D01*
X0369574Y0299448D01*
X0369656Y0299584D01*
X0369740Y0299718D01*
X0369829Y0299849D01*
X0369920Y0299978D01*
X0370015Y0300105D01*
X0370112Y0300230D01*
X0370213Y0300352D01*
X0370317Y0300471D01*
X0370424Y0300588D01*
X0370534Y0300702D01*
X0370647Y0300813D01*
X0370762Y0300922D01*
X0370880Y0301027D01*
X0371001Y0301129D01*
X0371124Y0301229D01*
X0371250Y0301325D01*
X0371378Y0301418D01*
X0371508Y0301508D01*
X0371641Y0301594D01*
X0371776Y0301678D01*
X0371912Y0301757D01*
X0372051Y0301834D01*
X0372192Y0301906D01*
X0372334Y0301976D01*
X0372478Y0302041D01*
X0372624Y0302103D01*
X0372771Y0302161D01*
X0372920Y0302216D01*
X0373070Y0302267D01*
X0373221Y0302314D01*
X0373373Y0302357D01*
X0373526Y0302396D01*
X0373681Y0302432D01*
X0373836Y0302463D01*
X0373992Y0302491D01*
X0374148Y0302515D01*
X0374305Y0302535D01*
X0374463Y0302551D01*
X0374620Y0302563D01*
X0374779Y0302571D01*
X0374937Y0302575D01*
X0375095Y0302575D01*
X0375253Y0302571D01*
X0375412Y0302563D01*
X0375569Y0302551D01*
X0375727Y0302535D01*
X0375884Y0302515D01*
X0376040Y0302491D01*
X0376196Y0302463D01*
X0376351Y0302432D01*
X0376506Y0302396D01*
X0376659Y0302357D01*
X0376811Y0302314D01*
X0376962Y0302267D01*
X0377112Y0302216D01*
X0377261Y0302161D01*
X0377408Y0302103D01*
X0377554Y0302041D01*
X0377698Y0301976D01*
X0377840Y0301906D01*
X0377981Y0301834D01*
X0378120Y0301757D01*
X0378256Y0301678D01*
X0378391Y0301594D01*
X0378524Y0301508D01*
X0378654Y0301418D01*
X0378782Y0301325D01*
X0378908Y0301229D01*
X0379031Y0301129D01*
X0379152Y0301027D01*
X0379270Y0300922D01*
X0379385Y0300813D01*
X0379498Y0300702D01*
X0379608Y0300588D01*
X0379715Y0300471D01*
X0379819Y0300352D01*
X0379920Y0300230D01*
X0380017Y0300105D01*
X0380112Y0299978D01*
X0380203Y0299849D01*
X0380292Y0299718D01*
X0380376Y0299584D01*
X0380458Y0299448D01*
X0380536Y0299311D01*
X0380610Y0299171D01*
X0380681Y0299029D01*
X0380749Y0298886D01*
X0380813Y0298741D01*
X0380873Y0298595D01*
X0380929Y0298447D01*
X0380982Y0298298D01*
X0381031Y0298147D01*
X0381076Y0297995D01*
X0381117Y0297842D01*
X0381155Y0297689D01*
X0381188Y0297534D01*
X0381218Y0297378D01*
X0381244Y0297222D01*
X0381265Y0297065D01*
X0381283Y0296908D01*
X0381297Y0296750D01*
X0381307Y0296592D01*
X0381313Y0296434D01*
X0381315Y0296276D01*
X0381313Y0296118D01*
X0381307Y0295960D01*
X0381297Y0295802D01*
X0381283Y0295644D01*
X0381265Y0295487D01*
X0381244Y0295330D01*
X0381218Y0295174D01*
X0381188Y0295018D01*
X0381155Y0294863D01*
X0381117Y0294710D01*
X0381076Y0294557D01*
X0381031Y0294405D01*
X0380982Y0294254D01*
X0380929Y0294105D01*
X0380873Y0293957D01*
X0380813Y0293811D01*
X0380749Y0293666D01*
X0380681Y0293523D01*
X0380610Y0293381D01*
X0380536Y0293241D01*
X0380458Y0293104D01*
X0380376Y0292968D01*
X0380292Y0292834D01*
X0380203Y0292703D01*
X0380112Y0292574D01*
X0380017Y0292447D01*
X0379920Y0292322D01*
X0379819Y0292200D01*
X0379715Y0292081D01*
X0379608Y0291964D01*
X0379498Y0291850D01*
X0379385Y0291739D01*
X0379270Y0291630D01*
X0379152Y0291525D01*
X0379031Y0291423D01*
X0378908Y0291323D01*
X0378782Y0291227D01*
X0378654Y0291134D01*
X0378524Y0291044D01*
X0378391Y0290958D01*
X0378256Y0290874D01*
X0378120Y0290795D01*
X0377981Y0290718D01*
X0377840Y0290646D01*
X0377698Y0290576D01*
X0377554Y0290511D01*
X0377408Y0290449D01*
X0377261Y0290391D01*
X0377112Y0290336D01*
X0376962Y0290285D01*
X0376811Y0290238D01*
X0376659Y0290195D01*
X0376506Y0290156D01*
X0376351Y0290120D01*
X0376196Y0290089D01*
X0376040Y0290061D01*
X0375884Y0290037D01*
X0375727Y0290017D01*
X0375569Y0290001D01*
X0375412Y0289989D01*
X0375253Y0289981D01*
X0375095Y0289977D01*
X0374937Y0289977D01*
X0374779Y0289981D01*
X0374620Y0289989D01*
X0374463Y0290001D01*
X0374305Y0290017D01*
X0374148Y0290037D01*
X0373992Y0290061D01*
X0373836Y0290089D01*
X0373681Y0290120D01*
X0373526Y0290156D01*
X0373373Y0290195D01*
X0373221Y0290238D01*
X0373070Y0290285D01*
X0372920Y0290336D01*
X0372771Y0290391D01*
X0372624Y0290449D01*
X0372478Y0290511D01*
X0372334Y0290576D01*
X0372192Y0290646D01*
X0372051Y0290718D01*
X0371912Y0290795D01*
X0371776Y0290874D01*
X0371641Y0290958D01*
X0371508Y0291044D01*
X0371378Y0291134D01*
X0371250Y0291227D01*
X0371124Y0291323D01*
X0371001Y0291423D01*
X0370880Y0291525D01*
X0370762Y0291630D01*
X0370647Y0291739D01*
X0370534Y0291850D01*
X0370424Y0291964D01*
X0370317Y0292081D01*
X0370213Y0292200D01*
X0370112Y0292322D01*
X0370015Y0292447D01*
X0369920Y0292574D01*
X0369829Y0292703D01*
X0369740Y0292834D01*
X0369656Y0292968D01*
X0369574Y0293104D01*
X0369496Y0293241D01*
X0369422Y0293381D01*
X0369351Y0293523D01*
X0369283Y0293666D01*
X0369219Y0293811D01*
X0369159Y0293957D01*
X0369103Y0294105D01*
X0369050Y0294254D01*
X0369001Y0294405D01*
X0368956Y0294557D01*
X0368915Y0294710D01*
X0368877Y0294863D01*
X0368844Y0295018D01*
X0368814Y0295174D01*
X0368788Y0295330D01*
X0368767Y0295487D01*
X0368749Y0295644D01*
X0368735Y0295802D01*
X0368725Y0295960D01*
X0368719Y0296118D01*
X0368717Y0296276D01*
X0368115Y0021008D02*
X0368117Y0021166D01*
X0368123Y0021324D01*
X0368133Y0021482D01*
X0368147Y0021640D01*
X0368165Y0021797D01*
X0368186Y0021954D01*
X0368212Y0022110D01*
X0368242Y0022266D01*
X0368275Y0022421D01*
X0368313Y0022574D01*
X0368354Y0022727D01*
X0368399Y0022879D01*
X0368448Y0023030D01*
X0368501Y0023179D01*
X0368557Y0023327D01*
X0368617Y0023473D01*
X0368681Y0023618D01*
X0368749Y0023761D01*
X0368820Y0023903D01*
X0368894Y0024043D01*
X0368972Y0024180D01*
X0369054Y0024316D01*
X0369138Y0024450D01*
X0369227Y0024581D01*
X0369318Y0024710D01*
X0369413Y0024837D01*
X0369510Y0024962D01*
X0369611Y0025084D01*
X0369715Y0025203D01*
X0369822Y0025320D01*
X0369932Y0025434D01*
X0370045Y0025545D01*
X0370160Y0025654D01*
X0370278Y0025759D01*
X0370399Y0025861D01*
X0370522Y0025961D01*
X0370648Y0026057D01*
X0370776Y0026150D01*
X0370906Y0026240D01*
X0371039Y0026326D01*
X0371174Y0026410D01*
X0371310Y0026489D01*
X0371449Y0026566D01*
X0371590Y0026638D01*
X0371732Y0026708D01*
X0371876Y0026773D01*
X0372022Y0026835D01*
X0372169Y0026893D01*
X0372318Y0026948D01*
X0372468Y0026999D01*
X0372619Y0027046D01*
X0372771Y0027089D01*
X0372924Y0027128D01*
X0373079Y0027164D01*
X0373234Y0027195D01*
X0373390Y0027223D01*
X0373546Y0027247D01*
X0373703Y0027267D01*
X0373861Y0027283D01*
X0374018Y0027295D01*
X0374177Y0027303D01*
X0374335Y0027307D01*
X0374493Y0027307D01*
X0374651Y0027303D01*
X0374810Y0027295D01*
X0374967Y0027283D01*
X0375125Y0027267D01*
X0375282Y0027247D01*
X0375438Y0027223D01*
X0375594Y0027195D01*
X0375749Y0027164D01*
X0375904Y0027128D01*
X0376057Y0027089D01*
X0376209Y0027046D01*
X0376360Y0026999D01*
X0376510Y0026948D01*
X0376659Y0026893D01*
X0376806Y0026835D01*
X0376952Y0026773D01*
X0377096Y0026708D01*
X0377238Y0026638D01*
X0377379Y0026566D01*
X0377518Y0026489D01*
X0377654Y0026410D01*
X0377789Y0026326D01*
X0377922Y0026240D01*
X0378052Y0026150D01*
X0378180Y0026057D01*
X0378306Y0025961D01*
X0378429Y0025861D01*
X0378550Y0025759D01*
X0378668Y0025654D01*
X0378783Y0025545D01*
X0378896Y0025434D01*
X0379006Y0025320D01*
X0379113Y0025203D01*
X0379217Y0025084D01*
X0379318Y0024962D01*
X0379415Y0024837D01*
X0379510Y0024710D01*
X0379601Y0024581D01*
X0379690Y0024450D01*
X0379774Y0024316D01*
X0379856Y0024180D01*
X0379934Y0024043D01*
X0380008Y0023903D01*
X0380079Y0023761D01*
X0380147Y0023618D01*
X0380211Y0023473D01*
X0380271Y0023327D01*
X0380327Y0023179D01*
X0380380Y0023030D01*
X0380429Y0022879D01*
X0380474Y0022727D01*
X0380515Y0022574D01*
X0380553Y0022421D01*
X0380586Y0022266D01*
X0380616Y0022110D01*
X0380642Y0021954D01*
X0380663Y0021797D01*
X0380681Y0021640D01*
X0380695Y0021482D01*
X0380705Y0021324D01*
X0380711Y0021166D01*
X0380713Y0021008D01*
X0380711Y0020850D01*
X0380705Y0020692D01*
X0380695Y0020534D01*
X0380681Y0020376D01*
X0380663Y0020219D01*
X0380642Y0020062D01*
X0380616Y0019906D01*
X0380586Y0019750D01*
X0380553Y0019595D01*
X0380515Y0019442D01*
X0380474Y0019289D01*
X0380429Y0019137D01*
X0380380Y0018986D01*
X0380327Y0018837D01*
X0380271Y0018689D01*
X0380211Y0018543D01*
X0380147Y0018398D01*
X0380079Y0018255D01*
X0380008Y0018113D01*
X0379934Y0017973D01*
X0379856Y0017836D01*
X0379774Y0017700D01*
X0379690Y0017566D01*
X0379601Y0017435D01*
X0379510Y0017306D01*
X0379415Y0017179D01*
X0379318Y0017054D01*
X0379217Y0016932D01*
X0379113Y0016813D01*
X0379006Y0016696D01*
X0378896Y0016582D01*
X0378783Y0016471D01*
X0378668Y0016362D01*
X0378550Y0016257D01*
X0378429Y0016155D01*
X0378306Y0016055D01*
X0378180Y0015959D01*
X0378052Y0015866D01*
X0377922Y0015776D01*
X0377789Y0015690D01*
X0377654Y0015606D01*
X0377518Y0015527D01*
X0377379Y0015450D01*
X0377238Y0015378D01*
X0377096Y0015308D01*
X0376952Y0015243D01*
X0376806Y0015181D01*
X0376659Y0015123D01*
X0376510Y0015068D01*
X0376360Y0015017D01*
X0376209Y0014970D01*
X0376057Y0014927D01*
X0375904Y0014888D01*
X0375749Y0014852D01*
X0375594Y0014821D01*
X0375438Y0014793D01*
X0375282Y0014769D01*
X0375125Y0014749D01*
X0374967Y0014733D01*
X0374810Y0014721D01*
X0374651Y0014713D01*
X0374493Y0014709D01*
X0374335Y0014709D01*
X0374177Y0014713D01*
X0374018Y0014721D01*
X0373861Y0014733D01*
X0373703Y0014749D01*
X0373546Y0014769D01*
X0373390Y0014793D01*
X0373234Y0014821D01*
X0373079Y0014852D01*
X0372924Y0014888D01*
X0372771Y0014927D01*
X0372619Y0014970D01*
X0372468Y0015017D01*
X0372318Y0015068D01*
X0372169Y0015123D01*
X0372022Y0015181D01*
X0371876Y0015243D01*
X0371732Y0015308D01*
X0371590Y0015378D01*
X0371449Y0015450D01*
X0371310Y0015527D01*
X0371174Y0015606D01*
X0371039Y0015690D01*
X0370906Y0015776D01*
X0370776Y0015866D01*
X0370648Y0015959D01*
X0370522Y0016055D01*
X0370399Y0016155D01*
X0370278Y0016257D01*
X0370160Y0016362D01*
X0370045Y0016471D01*
X0369932Y0016582D01*
X0369822Y0016696D01*
X0369715Y0016813D01*
X0369611Y0016932D01*
X0369510Y0017054D01*
X0369413Y0017179D01*
X0369318Y0017306D01*
X0369227Y0017435D01*
X0369138Y0017566D01*
X0369054Y0017700D01*
X0368972Y0017836D01*
X0368894Y0017973D01*
X0368820Y0018113D01*
X0368749Y0018255D01*
X0368681Y0018398D01*
X0368617Y0018543D01*
X0368557Y0018689D01*
X0368501Y0018837D01*
X0368448Y0018986D01*
X0368399Y0019137D01*
X0368354Y0019289D01*
X0368313Y0019442D01*
X0368275Y0019595D01*
X0368242Y0019750D01*
X0368212Y0019906D01*
X0368186Y0020062D01*
X0368165Y0020219D01*
X0368147Y0020376D01*
X0368133Y0020534D01*
X0368123Y0020692D01*
X0368117Y0020850D01*
X0368115Y0021008D01*
D11*
X0374414Y0021008D03*
X0375016Y0296276D03*
X0020685Y0296276D03*
X0020685Y0020685D03*
D12*
X0059199Y0080504D03*
X0059199Y0100504D03*
X0079199Y0100504D03*
X0079199Y0080504D03*
X0117297Y0057664D03*
X0137297Y0057664D03*
X0137510Y0030440D03*
X0117510Y0030440D03*
X0158761Y0097123D03*
X0178761Y0097123D03*
X0192662Y0097064D03*
X0202944Y0085586D03*
X0212662Y0097064D03*
X0222944Y0085586D03*
X0277566Y0076696D03*
X0277566Y0096696D03*
X0270111Y0161877D03*
X0290111Y0161877D03*
X0290141Y0183961D03*
X0270141Y0183961D03*
X0250882Y0218030D03*
X0230882Y0218030D03*
X0173884Y0218035D03*
X0153884Y0218035D03*
X0128585Y0193882D03*
X0128585Y0173882D03*
X0128571Y0160608D03*
X0128571Y0140608D03*
X0079199Y0120504D03*
X0059199Y0120504D03*
D13*
X0165757Y0057994D03*
X0165891Y0030636D03*
D14*
X0175891Y0030636D03*
X0175757Y0057994D03*
D15*
X0226942Y0281463D03*
X0043572Y0281692D03*
D16*
X0053572Y0281692D03*
X0063572Y0281692D03*
X0073572Y0281692D03*
X0083572Y0281692D03*
X0093572Y0281692D03*
X0103572Y0281692D03*
X0113572Y0281692D03*
X0123572Y0281692D03*
X0133572Y0281692D03*
X0143572Y0281692D03*
X0153572Y0281692D03*
X0163572Y0281692D03*
X0173572Y0281692D03*
X0183572Y0281692D03*
X0193572Y0281692D03*
X0203572Y0281692D03*
X0203572Y0271692D03*
X0193572Y0271692D03*
X0183572Y0271692D03*
X0173572Y0271692D03*
X0163572Y0271692D03*
X0153572Y0271692D03*
X0143572Y0271692D03*
X0133572Y0271692D03*
X0123572Y0271692D03*
X0113572Y0271692D03*
X0103572Y0271692D03*
X0093572Y0271692D03*
X0083572Y0271692D03*
X0073572Y0271692D03*
X0063572Y0271692D03*
X0053572Y0271692D03*
X0043572Y0271692D03*
X0226942Y0271463D03*
X0236942Y0271463D03*
X0236942Y0281463D03*
X0246942Y0281463D03*
X0256942Y0281463D03*
X0256942Y0271463D03*
X0246942Y0271463D03*
X0266942Y0271463D03*
X0276942Y0271463D03*
X0276942Y0281463D03*
X0266942Y0281463D03*
X0286942Y0281463D03*
X0286942Y0271463D03*
X0296942Y0271463D03*
X0306942Y0271463D03*
X0306942Y0281463D03*
X0296942Y0281463D03*
X0316942Y0281463D03*
X0326942Y0281463D03*
X0326942Y0271463D03*
X0316942Y0271463D03*
X0336942Y0271463D03*
X0346942Y0271463D03*
X0346942Y0281463D03*
X0336942Y0281463D03*
D17*
X0228371Y0189123D03*
X0228371Y0187155D03*
X0228371Y0185186D03*
X0228371Y0183218D03*
X0228371Y0181249D03*
X0228371Y0179281D03*
X0228371Y0177312D03*
X0228371Y0175344D03*
X0228371Y0173375D03*
X0228371Y0171407D03*
X0228371Y0169438D03*
X0228371Y0167470D03*
X0228371Y0165501D03*
X0228371Y0163533D03*
X0228371Y0161564D03*
X0228371Y0159596D03*
X0228371Y0157627D03*
X0228371Y0155659D03*
X0228371Y0153690D03*
X0228371Y0151721D03*
X0228371Y0149753D03*
X0228371Y0147784D03*
X0228371Y0145816D03*
X0228371Y0143847D03*
X0228371Y0141879D03*
X0167971Y0141879D03*
X0167971Y0143847D03*
X0167971Y0145816D03*
X0167971Y0147784D03*
X0167971Y0149753D03*
X0167971Y0151721D03*
X0167971Y0153690D03*
X0167971Y0155659D03*
X0167971Y0157627D03*
X0167971Y0159596D03*
X0167971Y0161564D03*
X0167971Y0163533D03*
X0167971Y0165501D03*
X0167971Y0167470D03*
X0167971Y0169438D03*
X0167971Y0171407D03*
X0167971Y0173375D03*
X0167971Y0175344D03*
X0167971Y0177312D03*
X0167971Y0179281D03*
X0167971Y0181249D03*
X0167971Y0183218D03*
X0167971Y0185186D03*
X0167971Y0187155D03*
X0167971Y0189123D03*
D18*
X0174549Y0195701D03*
X0176518Y0195701D03*
X0178486Y0195701D03*
X0180455Y0195701D03*
X0182423Y0195701D03*
X0184392Y0195701D03*
X0186360Y0195701D03*
X0188329Y0195701D03*
X0190297Y0195701D03*
X0192266Y0195701D03*
X0194234Y0195701D03*
X0196203Y0195701D03*
X0198171Y0195701D03*
X0200140Y0195701D03*
X0202108Y0195701D03*
X0204077Y0195701D03*
X0206045Y0195701D03*
X0208014Y0195701D03*
X0209982Y0195701D03*
X0211951Y0195701D03*
X0213919Y0195701D03*
X0215888Y0195701D03*
X0217856Y0195701D03*
X0219825Y0195701D03*
X0221793Y0195701D03*
X0221793Y0135301D03*
X0219825Y0135301D03*
X0217856Y0135301D03*
X0215888Y0135301D03*
X0213919Y0135301D03*
X0211951Y0135301D03*
X0209982Y0135301D03*
X0208014Y0135301D03*
X0206045Y0135301D03*
X0204077Y0135301D03*
X0202108Y0135301D03*
X0200140Y0135301D03*
X0198171Y0135301D03*
X0196203Y0135301D03*
X0194234Y0135301D03*
X0192266Y0135301D03*
X0190297Y0135301D03*
X0188329Y0135301D03*
X0186360Y0135301D03*
X0184392Y0135301D03*
X0182423Y0135301D03*
X0180455Y0135301D03*
X0178486Y0135301D03*
X0176518Y0135301D03*
X0174549Y0135301D03*
D19*
X0292143Y0134673D03*
X0292143Y0137233D03*
X0292143Y0132113D03*
X0292143Y0129553D03*
X0292143Y0126993D03*
X0292143Y0124433D03*
X0292143Y0121873D03*
X0292143Y0119313D03*
X0292143Y0116753D03*
X0292143Y0114193D03*
X0315543Y0114193D03*
X0315543Y0116753D03*
X0315543Y0119313D03*
X0315543Y0121873D03*
X0315543Y0124433D03*
X0315543Y0126993D03*
X0315543Y0129553D03*
X0315543Y0132113D03*
X0315543Y0134673D03*
X0315543Y0137233D03*
D20*
X0285558Y0031089D03*
D21*
X0285558Y0041089D03*
X0285558Y0051089D03*
D22*
X0358440Y0177527D02*
X0364440Y0177527D01*
X0364440Y0187527D02*
X0358440Y0187527D01*
X0358440Y0197527D02*
X0364440Y0197527D01*
X0364440Y0207527D02*
X0358440Y0207527D01*
X0358440Y0217527D02*
X0364440Y0217527D01*
X0364440Y0227527D02*
X0358440Y0227527D01*
D23*
X0363593Y0065445D02*
X0369193Y0065445D01*
X0369193Y0055445D02*
X0363593Y0055445D01*
X0363593Y0045445D02*
X0369193Y0045445D01*
X0326244Y0045437D02*
X0320644Y0045437D01*
X0320644Y0055437D02*
X0326244Y0055437D01*
X0326244Y0065437D02*
X0320644Y0065437D01*
X0045964Y0077760D02*
X0045964Y0083360D01*
X0035964Y0083360D02*
X0035964Y0077760D01*
X0035964Y0097760D02*
X0035964Y0103360D01*
X0045964Y0103360D02*
X0045964Y0097760D01*
X0045964Y0117760D02*
X0045964Y0123360D01*
X0035964Y0123360D02*
X0035964Y0117760D01*
M02*
